<?xml version="1.0" encoding="utf-8"?>
<!-- Generator: Adobe Illustrator 16.0.0, SVG Export Plug-In . SVG Version: 6.00 Build 0)  -->
<!DOCTYPE svg PUBLIC "-//W3C//DTD SVG 1.1//EN" "http://www.w3.org/Graphics/SVG/1.1/DTD/svg11.dtd">
<svg version="1.1" xmlns="http://www.w3.org/2000/svg" xmlns:xlink="http://www.w3.org/1999/xlink" x="0px" y="0px" width="140px"
	 height="100px" viewBox="0 0 140 100" enable-background="new 0 0 140 100" xml:space="preserve">
<g id="Layer_1" display="none">
	<path display="inline" fill="#EA302F" d="M20.333,56.489c2.569,0,4.65-2.085,4.65-4.652s-2.082-4.649-4.65-4.649
		c-2.566,0-4.649,2.082-4.649,4.649S17.767,56.489,20.333,56.489L20.333,56.489z M20.333,60.88c4.947,0,8.955-4.011,8.955-8.956
		s-4.008-8.954-8.955-8.954c-4.945,0-8.955,4.009-8.955,8.954C11.378,56.869,15.388,60.88,20.333,60.88L20.333,60.88z M6.851,51.924
		c0-7.446,6.037-13.482,13.482-13.482c7.447,0,13.484,6.037,13.484,13.482c0,7.445-6.037,13.482-13.484,13.482
		C12.887,65.405,6.851,59.369,6.851,51.924L6.851,51.924z"/>
	<polygon display="inline" fill="#010101" points="38.195,42.248 53.559,42.248 53.559,46.123 48.273,46.123 48.273,61.659
		43.579,61.659 43.579,46.152 38.195,46.152 	"/>
	<path display="inline" fill="#010101" d="M76.696,46.152h-4.308v3.876c0,0,3.36,0.012,3.863,0c1.35-0.028,2.394-0.63,2.394-1.952
		C78.645,46.638,77.758,46.152,76.696,46.152L76.696,46.152z M67.909,42.248c0,0,3.534,0,9.118,0c5.183,0,5.9,3.546,5.9,5.613
		c0,3.002-2.585,4.509-2.813,4.566c0,0,2.271,0.847,2.271,3.418v3.618c0,1.45,0.888,1.852,1.046,2.196h-3.703
		c-1.768-0.2-1.737-1.607-1.725-2.412v-3.115c-0.043-0.762-0.271-1.609-1.865-1.637h-3.746v7.164h-4.494L67.909,42.248
		L67.909,42.248z"/>
	<polygon display="inline" fill="#010101" points="102.742,42.248 102.742,61.659 116.728,61.659 116.728,57.667 107.307,57.667
		107.307,53.33 115.349,53.33 115.349,49.655 107.307,49.655 107.307,46.152 116.728,46.152 116.728,42.248 	"/>
	<polygon display="inline" fill="#010101" points="117.387,46.152 122.93,46.152 122.93,61.659 127.522,61.659 127.522,46.152
		133.15,46.152 133.15,42.248 117.387,42.248 	"/>
	<path display="inline" fill="#010101" d="M58.411,49.095l-1.651,5.011h3.404L58.411,49.095L58.411,49.095z M55.809,42.243h4.982
		l6.787,19.416H62.75l-1.403-4.035h-5.729l-1.323,4.035h-4.789L55.809,42.243L55.809,42.243z"/>
	<path display="inline" fill="#010101" d="M101.135,50.819h-8.343v3.775h3.964c-0.009,0.775,0.113,1.553-0.818,2.644
		c-0.316,0.37-1.4,1.205-2.918,1.205c-1.277,0-2.194-0.366-2.992-1.042c-1.761-1.496-2.176-4.289-2.176-5.751
		c0-1.838,0.732-6.402,5.227-6.59c0,0,3.029-0.196,3.819,3.46h4.207c-0.087-1.853-2.241-7.055-8.026-7.064
		c-1.996-0.002-4.533,0.599-6.632,2.7c-1.519,1.522-2.888,4.079-2.888,7.68c0,3.906,1.438,6.447,2.754,7.842
		c2.309,2.45,4.635,2.64,5.847,2.64c0.962,0,2.8-0.143,5.183-1.752l0.632,1.093h3.159v-10.84H101.135z"/>
	<path display="inline" fill="#010101" d="M129.654,60.383h0.242c0.153,0,0.269-0.025,0.269-0.19c0-0.148-0.157-0.171-0.283-0.171
		h-0.228V60.383L129.654,60.383z M129.383,59.809h0.517c0.343,0,0.537,0.107,0.537,0.406c0,0.25-0.158,0.349-0.361,0.365l0.365,0.6
		h-0.283l-0.333-0.587h-0.171v0.587h-0.271L129.383,59.809L129.383,59.809z M129.869,61.461c0.51,0,0.923-0.406,0.923-0.966
		c0-0.557-0.416-0.957-0.923-0.957c-0.514,0-0.923,0.4-0.923,0.957C128.946,61.055,129.354,61.461,129.869,61.461L129.869,61.461z
		 M129.869,59.274c0.664,0,1.257,0.479,1.257,1.221c0,0.747-0.593,1.229-1.257,1.229s-1.256-0.481-1.256-1.229
		C128.613,59.753,129.205,59.274,129.869,59.274L129.869,59.274z"/>
</g>
<g id="Layer_2" display="none">
	<g transform="matrix(1.25 0 0 -1.25 -279.62 519.24)" display="inline">
		<g transform="matrix(.25 0 0 .25 224.45 297.78)">
			<path fill="#127DC2" d="M16.961,339.035c0,0,10.153-41.603,11.772-48.356c1.894-7.881,5.3-10.781,15.125-8.828l6.339,25.797
				c1.608,6.403,2.684,10.975,3.717,17.491h0.181c0.727-6.581,1.759-11.106,3.081-17.513c0,0,2.581-11.709,3.903-17.859
				c1.325-6.147,5.012-10.022,14.636-7.916l15.108,57.181H78.625l-5.158-24.719c-1.386-7.2-2.644-12.822-3.614-19.406h-0.172
				c-0.881,6.522-2,11.922-3.411,18.931l-5.37,25.194H48.193l-5.744-24.559c-1.628-7.462-3.148-13.494-4.119-19.847h-0.175
				c-0.991,5.988-2.311,13.563-3.741,20.784c0,0-3.414,17.566-4.611,23.622l-12.842-0.003L16.961,339.035z M133.225,339.035v-57.181
				h11.613v12.144v45.041h-11.613V339.035z M296.762,339.035v-42.181c0-5.816,1.097-9.888,3.438-12.381
				c2.047-2.178,5.419-3.591,9.453-3.591c3.431,0,6.809,0.653,8.4,1.25l-0.147,9.075c-1.188-0.294-2.55-0.528-4.409-0.528
				c-3.956,0-5.281,2.537-5.281,7.756v16.141h10.109v10.936h-10.109v13.523H296.762L296.762,339.035z M107.273,325.781
				c-7.214,0-12.942-2.028-16.066-3.83l2.287-7.828c2.855,1.803,7.405,3.292,11.714,3.292c7.134,0.023,8.3-4.03,8.3-6.63v-0.613
				c-15.542,0.025-25.363-5.353-25.363-16.319c0-6.694,4.998-12.972,13.689-12.972c5.352,0,9.823,2.137,12.506,5.556h0.261
				c0,0,1.777-7.422,11.559-4.587c-0.516,3.094-0.683,6.387-0.683,10.353v15.278C125.479,317.217,121.325,325.781,107.273,325.781
				L107.273,325.781z M176.734,325.781c-7.267,0-10.531-3.683-12.511-6.805h-0.172v5.836H152.97v-42.961h11.672v25.197
				c0,1.175,0.134,2.428,0.548,3.519c0.966,2.531,3.325,5.5,7.094,5.5c4.711,0,6.914-3.981,6.914-9.728v-24.487h11.661v25.5
				c0,1.131,0.155,2.487,0.486,3.484c0.959,2.881,3.503,5.231,7.006,5.231c4.775,0,7.066-3.909,7.066-10.675v-23.541h11.67v25.303
				c0,13.344-6.775,18.627-14.425,18.627c-3.386,0-6.058-0.852-8.473-2.333c-2.036-1.247-3.853-3.019-5.442-5.353h-0.17
				c-1.853,4.633-6.191,7.686-11.845,7.686H176.734z M240.837,325.781c-7.216,0-12.944-2.028-16.066-3.83l2.284-7.828
				c2.859,1.803,7.409,3.292,11.716,3.292c7.128,0.023,8.294-4.03,8.294-6.63v-0.613c-15.541,0.025-25.356-5.353-25.356-16.319
				c0-6.694,4.997-12.972,13.694-12.972c5.344,0,9.822,2.137,12.497,5.556h0.266c0,0,1.772-7.422,11.562-4.587
				c-0.522,3.094-0.678,6.387-0.678,10.353v15.278C259.05,317.217,254.884,325.781,240.837,325.781L240.837,325.781z
				 M289.315,325.781c-4.472,0-9.559-2.886-11.691-9.07H277.3v8.102H266.79v-42.961h11.978v21.997c0,1.188,0.072,2.222,0.256,3.172
				c0.888,4.609,4.413,7.556,9.469,7.556c1.394,0,2.384-0.15,3.459-0.306v11.247C291.053,325.698,290.434,325.781,289.315,325.781
				L289.315,325.781z M113.882,302.56v-5.359c0-0.794-0.067-1.609-0.287-2.325c-0.9-2.978-3.983-5.494-7.838-5.494
				c-3.213,0-5.764,1.825-5.764,5.684C99.993,300.967,106.489,302.601,113.882,302.56L113.882,302.56z M247.447,302.56v-5.359
				c0-0.794-0.069-1.609-0.291-2.325c-0.9-2.978-3.981-5.494-7.837-5.494c-3.209,0-5.766,1.825-5.766,5.684
				C233.553,300.967,240.05,302.601,247.447,302.56L247.447,302.56z"/>
			<path fill="#FFC224" d="M381.106,359.717c-3.75,0-6.725-2.097-6.725-4.645l2.272-25.778c0.253-1.552,2.156-2.752,4.459-2.752
				c2.303,0.008,4.197,1.2,4.453,2.752l2.287,25.778c0,2.548-2.991,4.645-6.741,4.645H381.106z M344.012,339.035
				c-1.953-0.045-4.166-1.519-5.566-3.956c-1.884-3.247-1.55-6.873,0.653-8.148l23.456-10.927c1.466-0.547,3.459,0.497,4.613,2.484
				l0,0c1.153,1.998,1.066,4.245-0.153,5.242l-21.194,14.858C345.275,338.909,344.656,339.053,344.012,339.035L344.012,339.035z
				 M418.209,339.035c-0.656,0.017-1.272-0.127-1.822-0.447l-21.191-14.858c-1.209-0.997-1.297-3.244-0.147-5.239v-0.003
				c1.156-1.988,3.144-3.028,4.603-2.481l23.472,10.923c2.212,1.275,2.531,4.902,0.663,8.148c-1.416,2.438-3.628,3.911-5.572,3.956
				H418.209z M363.431,305.026c-0.3,0.003-0.591-0.041-0.875-0.147L339.1,293.967c-2.2-1.278-2.538-4.906-0.653-8.156
				c1.875-3.241,5.181-4.781,7.378-3.509l21.191,14.847c1.225,1.009,1.313,3.256,0.153,5.247l0.012-0.003
				C366.24,304.02,364.75,305.01,363.431,305.026L363.431,305.026z M398.787,305.026c-1.309-0.016-2.8-1.006-3.744-2.634
				l0.012,0.003c-1.15-1.991-1.063-4.238,0.147-5.247l21.194-14.847c2.194-1.272,5.5,0.266,7.391,3.509
				c1.859,3.25,1.544,6.878-0.663,8.156l-23.462,10.913C399.384,304.985,399.09,305.029,398.787,305.026L398.787,305.026z
				 M381.106,294.342c-2.303,0-4.2-1.197-4.447-2.744l-2.278-25.775c0-2.556,2.981-4.644,6.731-4.644s6.741,2.087,6.741,4.644
				l-2.281,25.775c-0.262,1.547-2.156,2.744-4.459,2.744H381.106L381.106,294.342z"/>
		</g>
	</g>
</g>
<g id="Layer_3">
	<path id="Beyond_any_store_of_its_kind" fill="#384C9D" d="M12.523,75.65c0.561-0.276,0.814-0.697,0.814-1.192
		c0-1.247-1.25-1.651-2.758-1.651H9.23v6.105h1.909c1.627,0,2.955-0.49,2.955-1.703C14.093,76.485,13.509,75.828,12.523,75.65z
		 M10.143,73.439h0.365c1.13,0,1.908,0.097,1.908,1.019c0,0.95-0.875,1.038-1.922,1.038h-0.351V73.439z M11.065,78.279h-0.923v-2.2
		h0.802c1.009,0,2.224,0.141,2.224,1.081C13.168,78.09,12.087,78.279,11.065,78.279z M17.01,75.003
		c-1.605,0-2.493,0.929-2.493,2.055c0,1.09,0.984,1.958,2.516,1.958c1.046,0,1.872-0.393,2.37-1.068L18.65,77.63
		c-0.328,0.457-0.814,0.788-1.556,0.788c-0.998,0-1.666-0.571-1.679-1.27h4.023C19.524,76.014,18.651,75.003,17.01,75.003z
		 M15.453,76.592c0.109-0.548,0.814-0.991,1.569-0.991c0.766,0,1.386,0.443,1.507,0.991H15.453z M19.332,75.106l2.357,3.447
		l-1.653,2.493h0.983l3.792-5.939h-0.996l-1.654,2.728l-1.81-2.728L19.332,75.106 M27.401,75.003c-1.507,0-2.697,0.899-2.697,2.014
		c0,1.119,1.202,1.999,2.697,1.999c1.495,0,2.696-0.88,2.696-1.999C30.098,75.902,28.909,75.003,27.401,75.003z M27.401,78.418
		c-1.082,0-1.824-0.632-1.824-1.409c0-0.771,0.742-1.408,1.824-1.408c1.082,0,1.823,0.637,1.823,1.408
		C29.225,77.786,28.483,78.418,27.401,78.418z M31.714,75.565v-0.459h-0.873v3.806h0.873v-1.807c0-0.68,0.075-1.505,1.276-1.505
		c1.023,0,1.083,0.548,1.083,1.165v2.146h0.875v-2.258c0-0.892-0.33-1.651-1.75-1.651c-0.633,0-1.107,0.2-1.458,0.563H31.714
		 M39.956,72.235v3.415h-0.025c-0.413-0.404-1.069-0.647-1.75-0.647c-1.543,0-2.468,0.929-2.468,2.014
		c0,1.05,0.949,1.999,2.457,1.999c0.691,0,1.337-0.219,1.76-0.632h0.025v0.528h0.875v-6.676L39.956,72.235L39.956,72.235z
		 M38.292,78.418c-1.094,0-1.689-0.705-1.689-1.451c0-0.71,0.654-1.366,1.676-1.366c1.082,0,1.726,0.619,1.726,1.376
		C40.005,77.742,39.408,78.418,38.292,78.418z M48.708,75.106v0.544h-0.026c-0.424-0.404-1.057-0.647-1.762-0.647
		c-1.532,0-2.468,0.929-2.468,2.014c0,1.051,0.95,1.999,2.456,1.999c0.729,0,1.325-0.216,1.774-0.632h0.025v0.528h0.873v-3.805
		L48.708,75.106L48.708,75.106z M47.03,78.418c-1.083,0-1.678-0.705-1.678-1.451c0-0.71,0.656-1.366,1.665-1.366
		c1.083,0,1.727,0.619,1.727,1.376C48.745,77.742,48.16,78.418,47.03,78.418z M51.611,75.565v-0.459h-0.874v3.806h0.874v-1.807
		c0-0.68,0.073-1.505,1.277-1.505c1.021,0,1.082,0.548,1.082,1.165v2.146h0.875v-2.258c0-0.892-0.328-1.651-1.751-1.651
		c-0.631,0-1.104,0.2-1.458,0.563H51.611 M55.196,75.106l2.358,3.447l-1.666,2.493h0.998l3.792-5.939h-0.997l-1.665,2.728
		l-1.812-2.728L55.196,75.106 M66.002,75.991l0.729-0.287c-0.231-0.396-0.778-0.701-1.362-0.701c-0.826,0-1.531,0.436-1.531,1.076
		c0,1.196,2.322,0.904,2.322,1.756c0,0.345-0.365,0.583-0.839,0.583c-0.571,0-0.827-0.255-1.045-0.61l-0.779,0.243
		c0.28,0.598,0.949,0.965,1.812,0.965c0.96,0,1.739-0.521,1.739-1.238c0-0.642-0.585-0.907-1.192-1.093
		c-0.594-0.186-1.19-0.313-1.19-0.663c0-0.243,0.328-0.421,0.632-0.421C65.613,75.601,65.881,75.786,66.002,75.991 M68.736,78.912
		v-3.209h0.925v-0.597h-0.925v-1.369h-0.862v1.369H67.34v0.597h0.534v3.209H68.736 M72.226,75.003c-1.508,0-2.697,0.899-2.697,2.014
		c0,1.119,1.201,1.999,2.697,1.999c1.495,0,2.697-0.88,2.697-1.999C74.923,75.902,73.732,75.003,72.226,75.003z M72.226,78.418
		c-1.083,0-1.824-0.632-1.824-1.409c0-0.771,0.741-1.408,1.824-1.408c1.082,0,1.824,0.637,1.824,1.408
		C74.05,77.786,73.308,78.418,72.226,78.418z M76.491,75.52v-0.413h-0.876v3.805h0.876v-1.902c0-0.493,0.048-1.408,1.009-1.408
		c0.229,0,0.353,0.077,0.523,0.166l0.412-0.587c-0.243-0.104-0.485-0.178-0.777-0.178c-0.571,0-0.839,0.216-1.144,0.517
		L76.491,75.52 M80.901,75.003c-1.613,0-2.489,0.929-2.489,2.055c0,1.09,0.973,1.958,2.504,1.958c1.058,0,1.883-0.393,2.369-1.068
		l-0.74-0.317c-0.342,0.457-0.813,0.788-1.558,0.788c-0.995,0-1.676-0.571-1.688-1.27h4.035
		C83.419,76.014,82.545,75.003,80.901,75.003z M79.348,76.592c0.109-0.548,0.803-0.991,1.554-0.991c0.767,0,1.399,0.443,1.508,0.991
		H79.348z M89.217,75.003c-1.506,0-2.699,0.899-2.699,2.014c0,1.119,1.203,1.999,2.699,1.999s2.697-0.88,2.697-1.999
		C91.915,75.902,90.725,75.003,89.217,75.003z M89.217,78.418c-1.083,0-1.824-0.632-1.824-1.409c0-0.771,0.741-1.408,1.824-1.408
		c1.082,0,1.824,0.637,1.824,1.408C91.041,77.786,90.299,78.418,89.217,78.418z M93.605,78.912v-3.209h1.3v-0.597h-1.3v-1.285
		c0-0.671,0-1.042,0.716-1.042c0.22,0,0.39,0.039,0.584,0.089v-0.659c-0.205-0.046-0.414-0.077-0.621-0.077
		c-0.522,0-1.031,0.139-1.323,0.475c-0.233,0.276-0.233,0.671-0.233,0.987v1.513h-0.472v0.597h0.472v3.208L93.605,78.912
		 M98.26,75.106h0.876v3.806H98.26V75.106 M99.315,73.672c0,0.261-0.278,0.466-0.617,0.466c-0.341,0-0.62-0.205-0.62-0.466
		c0-0.246,0.279-0.461,0.62-0.461C99.037,73.211,99.315,73.425,99.315,73.672z M101.42,78.912v-3.209h0.91v-0.597h-0.91v-1.369
		h-0.876v1.369h-0.534v0.597h0.534v3.209H101.42 M104.737,75.991l0.729-0.287c-0.229-0.396-0.778-0.701-1.36-0.701
		c-0.84,0-1.533,0.436-1.533,1.076c0,1.196,2.311,0.904,2.311,1.756c0,0.345-0.354,0.583-0.825,0.583
		c-0.584,0-0.827-0.255-1.047-0.61l-0.777,0.243c0.268,0.598,0.948,0.965,1.811,0.965c0.949,0,1.738-0.521,1.738-1.238
		c0-0.642-0.596-0.907-1.189-1.093c-0.596-0.186-1.191-0.313-1.191-0.663c0-0.243,0.328-0.421,0.632-0.421
		C104.349,75.601,104.615,75.786,104.737,75.991 M110.292,76.516v-4.28h-0.875v6.677h0.875v-1.563l0.232-0.174l2.064,1.736h1.155
		l-2.612-2.184l2.199-1.621h-1.168L110.292,76.516 M114.303,75.106h0.875v3.806h-0.875V75.106 M115.36,73.672
		c0,0.261-0.28,0.466-0.621,0.466c-0.34,0-0.619-0.205-0.619-0.466c0-0.246,0.279-0.461,0.619-0.461
		C115.08,73.211,115.36,73.425,115.36,73.672z M117.415,75.565v-0.459h-0.877v3.806h0.877v-1.807c0-0.68,0.073-1.505,1.274-1.505
		c1.021,0,1.083,0.548,1.083,1.165v2.146h0.875v-2.258c0-0.892-0.329-1.651-1.752-1.651c-0.631,0-1.105,0.2-1.456,0.563H117.415
		 M125.655,72.235v3.415h-0.013c-0.426-0.404-1.081-0.647-1.763-0.647c-1.543,0-2.467,0.929-2.467,2.014
		c0,1.05,0.949,1.999,2.455,1.999c0.693,0,1.338-0.219,1.774-0.632h0.013v0.528h0.874v-6.676L125.655,72.235L125.655,72.235z
		 M123.991,78.418c-1.095,0-1.69-0.705-1.69-1.451c0-0.71,0.655-1.366,1.675-1.366c1.084,0,1.728,0.619,1.728,1.376
		C125.703,77.742,125.107,78.418,123.991,78.418z M129.155,78.554c0-0.24-0.279-0.444-0.607-0.444c-0.342,0-0.622,0.204-0.622,0.444
		c0,0.246,0.28,0.462,0.622,0.462C128.876,79.016,129.155,78.8,129.155,78.554 M128.983,69.815c-0.995,0-1.785,0.788-1.785,1.776
		c0,0.994,0.79,1.777,1.785,1.777c0.997,0,1.787-0.783,1.787-1.777C130.771,70.604,129.98,69.815,128.983,69.815z M128.983,73.1
		c-0.814,0-1.518-0.667-1.518-1.509c0-0.838,0.703-1.505,1.518-1.505s1.52,0.667,1.52,1.505
		C130.503,72.433,129.798,73.1,128.983,73.1z M129.859,71.125c0-0.422-0.338-0.514-0.692-0.514h-0.85v1.944h0.278v-0.898h0.329
		l0.581,0.898h0.328l-0.593-0.898C129.592,71.648,129.859,71.51,129.859,71.125z M128.925,71.387h-0.329v-0.506h0.51
		c0.221,0,0.476,0.035,0.476,0.239C129.579,71.429,129.155,71.387,128.925,71.387z"/>
	<path id="Bed_Bath__x26__Beyond" fill="#384C9D" d="M9.388,55.085h6.564c2.99,0,6.052,0.652,6.052,3.897
		c0,1.235-0.679,2.451-2.03,2.841v0.116c1.678,0.535,2.748,1.659,2.748,3.338c0,2.896-2.954,3.886-5.664,3.886h-7.67V55.085
		 M15.125,60.5c0.827,0,1.75-0.073,1.75-1.046c0-1.05-1.057-0.975-1.872-0.975h-0.388V60.5H15.125z M14.616,65.803h0.63
		c0.924,0,2.262-0.021,2.262-1.178c0-1.175-1.434-1.152-2.347-1.152h-0.545V65.803z M23.621,55.085v14.078h11.546v-3.846h-5.359
		v-1.384h4.727v-3.662h-4.727V58.93h5.178v-3.845H23.621 M42.971,55.085h-7.814l6.622,8.008v6.07h6.76v-6.07l6.5-8.008h-7.764
		l-1.361,2.351c-0.244,0.434-0.424,0.88-0.62,1.325h-0.207L42.971,55.085 M74.584,62.162c0,4.521-5.069,7.222-11.292,7.222
		c-6.235,0-11.29-2.701-11.29-7.222c0-4.43,5.092-7.304,11.29-7.304C69.491,54.858,74.584,57.732,74.584,62.162 M59.477,62.234
		c0,1.607,1.567,2.706,3.815,2.706c2.249,0,3.816-1.099,3.816-2.706c0-1.491-1.459-2.741-3.816-2.741
		C60.933,59.493,59.477,60.743,59.477,62.234z M98.649,55.085h11.716c10.635,0,18.776,2.07,18.776,7.244
		c0,4.18-6.636,6.834-15.92,6.834H98.649V55.085 M110.159,64.94h0.716c3.816,0,6.757-0.782,6.757-2.631
		c0-1.976-2.563-2.816-6.757-2.816h-0.716V64.94z M126.651,55.237c0-1.041,0.825-1.877,1.883-1.877s1.886,0.836,1.886,1.877
		c0,1.044-0.828,1.874-1.886,1.874S126.651,56.281,126.651,55.237 M130.129,55.237c0-0.883-0.73-1.584-1.595-1.584
		c-0.861,0-1.591,0.701-1.591,1.584c0,0.887,0.729,1.586,1.591,1.586C129.398,56.823,130.129,56.123,130.129,55.237z M129.422,56.25
		h-0.339l-0.619-0.941h-0.341v0.941h-0.292v-2.048h0.897c0.366,0,0.73,0.097,0.73,0.542c0,0.398-0.28,0.554-0.645,0.564
		L129.422,56.25z M128.463,55.015c0.255,0,0.704,0.053,0.704-0.276c0-0.212-0.279-0.251-0.498-0.251h-0.546v0.527H128.463
		L128.463,55.015z M83.116,55.094h-7.622v14.078h7.586v-7.163l6.721,7.163h7.571V55.094h-7.571v7.294L83.116,55.094 M9.352,32.425
		h2.286c3.501,0,6.818,0.919,6.818,5.119c0,1.359-0.741,2.94-2.005,3.539v0.049c2.201,0.396,3.733,2.544,3.733,4.719
		c0,3.736-3.186,5.217-6.48,5.217H9.352V32.425 M11.687,40.687h0.583c2.211,0,4.011-0.449,4.011-3.118
		c0-2.618-1.786-3.063-3.951-3.063h-0.643V40.687z M11.687,48.992h1.773c2.151,0,4.399-0.641,4.399-3.291
		c0-2.618-2.672-3.162-4.738-3.162h-1.435V48.992z M21.543,32.425v18.643h10.015v-2.125h-7.693v-7.046h7.476v-2.131h-7.476v-5.217
		h7.693v-2.124H21.543 M33.734,32.425h3.852c5.714,0,10.466,3.019,10.466,9.225c0,6.354-4.657,9.418-10.537,9.418h-3.78V32.425
		 M36.055,48.943h0.815c4.751,0,8.86-1.785,8.86-7.194c0-5.44-4.108-7.2-8.86-7.2h-0.815V48.943z M54.588,32.425h2.273
		c3.514,0,6.832,0.919,6.832,5.119c0,1.359-0.741,2.94-2.005,3.539v0.049c2.199,0.396,3.732,2.544,3.732,4.719
		c0,3.736-3.186,5.217-6.479,5.217h-4.352V32.425 M56.913,40.687h0.593c2.201,0,4.012-0.449,4.012-3.118
		c0-2.618-1.787-3.063-3.963-3.063h-0.643L56.913,40.687L56.913,40.687z M56.913,48.992h1.785c2.151,0,4.401-0.641,4.401-3.291
		c0-2.618-2.674-3.162-4.753-3.162h-1.433V48.992L56.913,48.992z M69.915,46.395l-2.126,4.673h-2.491l8.895-19.433l8.898,19.433
		h-2.49l-2.127-4.673H69.915 M74.192,36.729l-3.316,7.539h6.636L74.192,36.729z M87.199,51.068V34.549h4.425v-2.124H80.453v2.124
		h4.425v16.519H87.199 M104.08,39.94h-8.872v-7.515h-2.321v18.643h2.321v-8.949h8.872v8.949h2.322V32.425h-2.322V39.94
		 M123.771,48.548c-1.408,1.655-3.379,2.915-5.579,2.915c-3.123,0-5.71-2.272-5.71-5.489c0-2.371,1.481-3.656,3.256-4.941
		l1.165-0.84c-1.057-1.117-2.053-2.5-2.053-4.08c0-2.576,1.86-4.082,4.303-4.082c2.273,0,4.302,1.434,4.302,3.884
		c0,2.099-1.82,3.507-3.391,4.645l3.891,4.697l2.175-2.52l1.483,1.532l-2.273,2.673l3.33,4.126H125.8L123.771,48.548
		 M118.047,42.021c-1.289,0.89-3.392,2.15-3.392,3.928c0,1.785,1.676,3.44,3.463,3.44c1.728,0,3.112-1.311,4.277-2.478l-4.131-5.039
		L118.047,42.021z M119.055,38.754c0.936-0.741,2.224-1.506,2.224-2.865c0-1.309-0.935-2.03-2.174-2.03
		c-1.107,0-2.08,0.796-2.08,1.981c0,0.939,0.571,1.63,1.118,2.323l0.62,0.79L119.055,38.754z"/>
	<rect x="-80" y="-10" fill="none" width="300" height="124.668"/>
</g>
<g id="Layer_4" display="none">
	<path display="inline" fill="#0D73BB" d="M50.271,37.505l4.171-0.047l0.083,27.435l-4.312,0.112L50.24,46.69l-2.385-0.008
		l0.013-3.8C47.868,42.882,50.41,41.897,50.271,37.505z"/>
	<path display="inline" fill="#0D73BB" d="M26.774,46.356c0,0,0.039-4.014,3.905-3.652l-0.074,22.527
		c-3.792-0.072-3.879-3.832-3.879-3.832L26.774,46.356z"/>
	<path display="inline" fill="#0D73BB" d="M31.329,45.58l0.039-2.872c4.178-0.225,3.954,3.785,3.954,3.785l0.125,7.769l-4.138,0.047
		l0.012-2.754c0,0,0.568,0.176,0.493-1.334l0.045-3.318C31.858,46.903,31.91,45.396,31.329,45.58z"/>
	<path display="inline" fill="#0D73BB" d="M35.403,56.19l0.011,5.259c0,0,0.247,3.887-4.18,3.848l0.014-2.741
		c0.482-0.115,0.382-1.373,0.382-1.373l0.01-4.998L35.403,56.19z"/>
	<polygon display="inline" fill="#0D73BB" points="14.475,64.923 14.389,37.379 10.202,37.391 10.202,64.921 	"/>
	<path display="inline" fill="#0D73BB" d="M20.432,51.005c0,0,0.187,4.523-5.347,3.856l0.028-3.165
		c1.341-0.11,1.192-1.86,1.192-1.86l-0.072-7.927c0,0,0.035-1.513-1.161-1.516l0.012-3.03c5.451-0.667,5.367,3.708,5.367,3.708
		L20.432,51.005z"/>
	<polygon display="inline" fill="#0D73BB" points="40.556,64.896 40.493,42.963 36.364,42.91 36.291,65.02 	"/>
	<path display="inline" fill="#0D73BB" d="M41.697,54.354l0.036-7.412c0,0,0.09-1.477-0.512-1.516l0.032-2.391
		c4.762-1.737,4.112,3.548,4.112,3.548l-0.043,7.718L41.697,54.354z"/>
	<path display="inline" fill="#0D73BB" d="M110.547,42.968l0.024-3.504l3.914,0.012l-0.026,3.494l0.796,0l0.004,2.833l-0.823,0.006
		l-0.091,15.193c0,0,0.06,0.843,1.215,0.983l-0.018,2.694c-5.707,1.677-5.006-3.859-5.006-3.859l-0.007-15.024
		c0.007,0.027-0.746,0-0.746,0l-0.018-2.826L110.547,42.968z"/>
	<path display="inline" fill="#0D73BB" d="M115.866,55.793l-0.05,5.479c0,0-0.133,3.775,4.158,3.755l0.02-2.106
		c-0.414,0.016-0.297-1.056-0.297-1.056l0.042-6.081L115.866,55.793z"/>
	<path display="inline" fill="#0D73BB" d="M124.733,50.168l0.005-4.341c0,0-0.263-3.526-4.158-3.285l-0.033,2.171
		c0.382-0.055,0.321,1.49,0.321,1.49l-0.048,3.975L124.733,50.168z"/>
	<path display="inline" fill="#0D73BB" d="M116.028,50.427c0,0-0.016,1.057,0.678,1.724c0.588,0.563,3.516,3.398,3.516,3.398
		s0.601,0.436,0.641,1.578l-0.024,4.564c0,0,0.03,1.176-0.293,1.28l0.035,2.047c4.319,0.399,4.201-3.759,4.201-3.759l-0.104-3.888
		c0.069-2.858-1.752-4.297-1.752-4.297l-2.515-2.45c-0.643-0.439-0.65-1.875-0.65-1.875l0.048-2.724c0,0-0.098-1.333,0.28-1.315
		l-0.02-2.132c-4.34-0.17-4.157,4.192-4.157,4.192L116.028,50.427z"/>
	<path display="inline" fill="#0D73BB" d="M128.549,42.85c1.17-0.01,2.151,0.911,2.161,2.119c0.011,1.2-0.955,2.144-2.123,2.153
		c-1.17,0.009-2.149-0.916-2.161-2.117C126.417,43.795,127.381,42.86,128.549,42.85z M128.59,47.537
		c1.43-0.012,2.55-1.151,2.536-2.574c-0.013-1.421-1.151-2.542-2.58-2.529c-1.428,0.013-2.548,1.151-2.535,2.574
		C126.022,46.43,127.163,47.549,128.59,47.537z M129.011,45.112c0.385-0.016,0.765-0.228,0.76-0.792
		c-0.006-0.603-0.474-0.756-0.994-0.751l-1.208,0.011l0.025,2.869l0.416-0.004l-0.011-1.324l0.531-0.005l0.745,1.319l0.474-0.004
		L129.011,45.112z M128.703,43.984c0.343-0.003,0.649,0.021,0.652,0.383c0.004,0.391-0.53,0.33-0.92,0.333l-0.44,0.003l-0.008-0.713
		L128.703,43.984z"/>
	<polygon display="inline" fill="#0D73BB" points="63.787,41.608 63.794,37.774 59.624,37.823 59.612,41.613 	"/>
	<polygon display="inline" fill="#0D73BB" points="63.707,64.969 63.769,42.945 59.605,42.951 59.657,64.97 	"/>
	<path display="inline" fill="#0D73BB" d="M74.078,64.97l-0.057-19.451c0,0,0.021-4.049-4.735-2.557l-0.008,2.524
		c0.8,0.108,0.867,1.368,0.867,1.368l-0.087,18.116L74.078,64.97z"/>
	<polygon display="inline" fill="#0D73BB" points="68.743,64.969 68.806,42.945 64.643,42.951 64.693,64.97 	"/>
	<path display="inline" fill="#0D73BB" d="M74.981,42.87c4.556-1.589,4.316,3.766,4.316,3.766l-0.033,18.333l-3.882,0.022
		l-0.006-18.349c0,0-0.052-1.104-0.676-1.219c0,0-0.04-1.408-0.615-1.969C74.086,43.453,74.535,43.024,74.981,42.87z"/>
	<path display="inline" fill="#0D73BB" d="M85.308,46.747c0,0,0.014-1.227-0.762-1.342l0.001-2.182
		c4.931-2.132,4.603,3.543,4.603,3.543l0.007,14.147c0,0,0.563,5.667-4.622,3.454l-0.033-1.672c0.71-0.238,0.893-1.433,0.893-1.433
		L85.308,46.747z"/>
	<g display="inline">
		<g>
			<defs>
				<rect id="SVGID_1_" x="10.202" y="37.295" width="120.924" height="32.087"/>
			</defs>
			<clipPath id="SVGID_2_">
				<use xlink:href="#SVGID_1_"  overflow="visible"/>
			</clipPath>
			<polygon clip-path="url(#SVGID_2_)" fill="#0D73BB" points="83.903,69.451 83.844,42.896 80.22,43.022 80.146,69.446 			"/>
		</g>
	</g>
	<path display="inline" fill="#0D73BB" d="M90.275,46.83c0,0-0.208-4.588,4.283-4.107l-0.009,2.259
		c-0.681-0.029-0.566,1.255-0.566,1.255l-0.04,5.519l-0.021,9.185c0,0-0.156,1.444,0.613,1.6l0.005,2.411
		c-4.459,0.602-4.337-3.885-4.337-3.885L90.275,46.83z"/>
	<path display="inline" fill="#0D73BB" d="M99.462,46.824c0,0,0.205-4.586-4.282-4.106l0.008,2.259
		c0.682-0.028,0.701,1.256,0.701,1.256l-0.095,5.519l0.022,9.186c0,0,0.155,1.443-0.614,1.6l-0.007,2.409
		c4.462,0.602,4.338-3.884,4.338-3.884L99.462,46.824z"/>
	<polygon display="inline" fill="#0D73BB" points="84.537,65.649 84.476,44.836 80.559,44.785 80.487,65.767 	"/>
	<path display="inline" fill="#0D73BB" d="M105.714,54.354l0.037-7.412c0,0,0.087-1.477-0.515-1.516l0.033-2.391
		c4.762-1.737,4.11,3.548,4.11,3.548l-0.044,7.718L105.714,54.354z"/>
	<polygon display="inline" fill="#0D73BB" points="25.482,41.608 25.491,37.774 21.32,37.823 21.309,41.613 	"/>
	<polygon display="inline" fill="#0D73BB" points="25.404,64.969 25.465,42.945 21.302,42.951 21.352,64.97 	"/>
</g>
<g id="Layer_5" display="none">
	<g id="g10" transform="matrix(1.25,0,0,-1.25,-228.89857,946.53091)" display="inline">
		<path id="path364" fill="#801336" d="M189.467,722.74h6.811v-4.626h0.045l5.193,4.626h7.635l-6.264-5.673l7.247-7.784h-8.618
			l-5.193,5.508h-0.045v-5.508h-6.811V722.74z"/>
		<path id="path370" fill="#801336" d="M219.974,711.617c3.029,0,2.829,3.379,2.829,4.495c0,1.116,0.034,4.212-2.829,4.212
			c-2.864,0-2.83-3.096-2.83-4.212C217.144,714.996,216.942,711.617,219.974,711.617 M219.974,723.115
			c7.733,0,9.836-1.622,9.836-7.145c0-5.523-2.104-7.144-9.836-7.144c-7.734,0-9.837,1.621-9.837,7.144
			C210.137,721.492,212.24,723.115,219.974,723.115"/>
		<path id="path376" fill="#801336" d="M244.497,714.336v-5.144h6.992v13.456h-6.992v-4.625h-5.017v4.625h-6.993v-13.456h6.993
			v5.144H244.497z"/>
		<path id="path382" fill="#801336" d="M254.795,722.648h7.154v-10.253c0,0,5.709-0.016,6.469-0.016c0.76,0,1.208,0.681,1.208,0.681
			v-3.868h-14.83V722.648z"/>
		<path id="path396" fill="#801336" d="M286.307,718.193c-1.48,1.184-2.749,1.582-4.113,1.605c-1.334,0.023-2.552-0.441-2.552-1.251
			c0-0.641,0.911-0.906,4.095-1.57c2.616-0.547,4.359-1.884,4.359-4.371c0-2.809-4.672-4.396-8.85-4.396
			c-2.934,0-5.186,0.528-7.2,1.432v3.769c1.245-1.298,4.032-1.988,6.166-1.988c1.184,0,1.766,0.173,1.766,1.116
			c0,0.583-0.738,1.115-2.975,1.524c-4.236,0.776-5.667,1.989-5.667,4.062c0,2.978,3.702,4.75,8.265,4.75
			c2.459,0,4.718-0.076,6.705-1V718.193L286.307,718.193z"/>
		<path id="path402" fill="#801336" d="M265.644,717.159l0.49,0.865c-1.474,0.729-1.909,2.584-1.16,3.643
			c0.805,1.139,3.041,1.626,4.248-0.136c1.029-1.503,0.045-2.777-0.402-3.143C268.374,718.023,265.644,717.159,265.644,717.159"/>
	</g>
</g>
<g id="Layer_6" display="none">
	<path id="path2215" sodipodi:nodetypes="cssscccccssscccssscccsssccc" display="inline" fill="#E51E25" d="M7.047,63.232
		c0.03-0.102,0.392-1.219,0.804-2.483C8.629,58.368,9.7,55.045,9.72,54.95c0.006-0.03-0.646-0.53-1.448-1.111
		c-0.803-0.58-2.437-1.763-3.631-2.626l-2.172-1.57l4.504-0.038l4.504-0.039l1.042-3.178c0.573-1.749,1.175-3.61,1.338-4.136
		c0.162-0.527,0.322-0.987,0.355-1.022c0.033-0.035,0.129,0.154,0.214,0.421c0.084,0.267,0.699,2.166,1.366,4.219l1.213,3.735h4.48
		c3.842,0.004,4.165,0.021,4.235,0.021c0.101,0-0.857,0.831-1.932,1.605c-4.035,2.908-5.064,3.678-5.033,3.763
		c0.03,0.08,2.503,7.692,2.663,8.195l0.069,0.219l-0.209-0.138c-0.191-0.124-2.503-1.803-3.427-2.485
		c-1.547-1.145-3.526-2.547-3.606-2.555c-0.084-0.008-3.466,2.401-5.853,4.168c-0.485,0.36-0.998,0.735-1.14,0.836l-0.258,0.182
		L7.047,63.232z"/>

		<path id="path2211" sodipodi:nodetypes="csscccsssssscccssssssssssssssssssssssssscccccsscccccssssssssssscccccssssssssssccccccccccssscccsssssscccccccssscccccccsssssccccccsssssssscccccccccccssccssssssssssssccsssssssssscccssssssssssscccccssccccccccccsccccccccssssc" display="inline" fill="#010101" d="
		M112.374,70.842c0.03-0.074,0.192-0.496,0.361-0.938c0.166-0.443,0.592-1.493,0.942-2.337c0.654-1.576,1.5-3.669,1.707-4.217
		l0.117-0.31l-0.467-1.146c-0.766-1.878-1.708-4.238-1.986-4.975c-0.146-0.379-0.586-1.481-0.979-2.451
		c-1.078-2.651-1.938-4.8-2.313-5.775c-0.187-0.481-0.625-1.584-0.978-2.451c-0.354-0.868-0.905-2.232-1.229-3.033
		c-0.322-0.801-0.601-1.491-0.62-1.533c-0.021-0.049,0.201-0.063,0.631-0.038l0.668,0.038l0.281,0.728
		c0.153,0.4,0.804,2.02,1.443,3.601c0.643,1.58,1.366,3.389,1.612,4.021c0.244,0.633,0.668,1.684,0.942,2.337
		c0.272,0.652,0.584,1.429,0.692,1.724c0.105,0.295,0.458,1.174,0.784,1.954c0.324,0.778,0.672,1.641,0.773,1.913
		c0.342,0.922,1.362,3.371,1.405,3.37c0.021-0.001,0.192-0.37,0.379-0.823c0.373-0.908,1.826-4.474,2.455-6.032
		c0.221-0.548,0.627-1.547,0.903-2.221c0.588-1.437,1.818-4.479,2.387-5.898c0.22-0.547,0.706-1.737,1.08-2.642
		c0.374-0.906,0.716-1.739,0.757-1.852c0.073-0.2,0.098-0.206,0.77-0.23c0.56-0.02,0.688-0.004,0.655,0.08
		c-0.022,0.057-0.226,0.557-0.452,1.11c-0.46,1.116-1.044,2.559-1.744,4.3c-0.253,0.632-0.802,1.977-1.217,2.987
		c-1.628,3.961-2.021,4.929-2.276,5.592c-0.145,0.38-0.601,1.499-1.014,2.49c-0.411,0.99-0.773,1.886-0.807,1.992
		c-0.032,0.104-0.376,0.949-0.765,1.876c-0.39,0.928-0.732,1.771-0.766,1.876c-0.03,0.106-0.365,0.933-0.745,1.84
		c-0.381,0.905-0.809,1.957-0.953,2.335c-0.146,0.38-0.472,1.181-0.725,1.781l-0.465,1.092h-0.65
		C112.381,70.976,112.324,70.963,112.374,70.842z M129.869,63.35c-0.715-0.129-1.563-0.429-2.088-0.738
		c-0.554-0.326-1.491-1.135-1.824-1.57c-0.979-1.286-1.621-2.926-1.684-4.313l-0.026-0.575l0.511-0.021l0.512-0.023l0.046,0.368
		c0.186,1.514,0.841,3.137,1.605,3.98c1.103,1.214,2.609,1.939,4.027,1.939c0.615,0,1.534-0.214,2.127-0.495
		c1.835-0.871,3.002-2.545,3.136-4.498c0.059-0.864-0.061-1.473-0.447-2.261c-0.657-1.341-2.28-2.517-4.753-3.441
		c-2.661-0.995-3.882-1.855-4.55-3.205c-0.299-0.604-0.484-1.473-0.489-2.285c-0.011-1.949,1.101-3.786,2.784-4.612
		c0.901-0.442,1.448-0.577,2.35-0.579c1.557-0.004,2.784,0.502,3.906,1.614c0.886,0.879,1.366,1.836,1.498,2.989l0.05,0.457h-0.53
		h-0.531l-0.087-0.512c-0.141-0.815-0.525-1.502-1.231-2.188c-0.776-0.754-1.487-1.115-2.437-1.233
		c-2.136-0.264-3.917,0.908-4.511,2.97c-0.182,0.626-0.128,1.976,0.102,2.566c0.495,1.266,1.381,1.949,3.652,2.815
		c2.932,1.118,4.503,2.17,5.531,3.702c0.575,0.858,0.813,1.718,0.807,2.91c-0.009,1.385-0.333,2.404-1.147,3.611
		c-0.415,0.612-0.809,1.007-1.563,1.563c-0.626,0.463-0.948,0.624-1.686,0.843C131.793,63.468,130.883,63.533,129.869,63.35z
		 M30.968,63.331l-0.594-0.021v-10.83l-0.013-10.877l0.533-0.001l0.704-0.002l0.021,1.714l0.02,1.713l0.306-0.448
		c0.645-0.941,1.995-2.083,3.15-2.662c0.624-0.312,1.886-0.653,2.786-0.752c1.973-0.22,4.184,0.393,5.784,1.602
		c1.026,0.775,1.76,1.654,2.436,2.92l0.337,0.629l0.129-0.337c0.071-0.187,0.331-0.645,0.578-1.019
		c1.062-1.609,2.461-2.748,4.065-3.307c1.15-0.4,1.78-0.511,2.911-0.51c1.108,0.001,1.545,0.071,2.668,0.425
		c0.842,0.266,1.159,0.419,1.916,0.93c1.593,1.073,2.679,2.528,3.306,4.424c0.443,1.34,0.459,1.676,0.459,9.397v7.034l-0.613-0.025
		l-0.613-0.024l0-7.368l-0.001-7.366l-0.188-0.829c-0.487-2.146-1.938-3.894-4.053-4.881c-0.885-0.413-1.411-0.538-2.48-0.587
		c-1.397-0.064-2.385,0.129-3.503,0.688c-1.843,0.921-3.154,2.482-3.81,4.539l-0.171,0.534l-0.022,7.639l-0.023,7.643h-0.57h-0.57
		L45.83,55.79c-0.025-8.634,0.029-7.957-0.779-9.594c-0.712-1.443-1.834-2.552-3.293-3.255c-0.963-0.464-1.621-0.623-2.772-0.669
		c-1.583-0.063-2.798,0.253-4.053,1.06c-0.877,0.563-1.283,0.925-1.833,1.63c-0.631,0.811-0.894,1.297-1.206,2.23l-0.255,0.767
		L31.6,55.656l-0.038,7.698L30.968,63.331z M73.468,63.232c-1.818-0.192-3.233-0.671-4.776-1.614
		c-2.215-1.354-4.013-3.688-4.716-6.119c-0.401-1.389-0.47-1.874-0.471-3.329c-0.001-1.505,0.079-2.045,0.507-3.443
		c0.979-3.195,3.802-6.063,6.964-7.074c2.555-0.816,4.694-0.818,7.265-0.004c2.27,0.719,4.686,2.663,5.853,4.708
		c0.178,0.309,0.357,0.577,0.398,0.593c0.052,0.021,0.069-0.883,0.056-2.642l-0.021-2.671h0.614h0.616v10.838v10.84h-0.613h-0.611
		l-0.02-3.007l-0.021-3.008l-0.263,0.461c-0.997,1.746-2.492,3.177-4.484,4.291c-1.081,0.604-2.528,1.021-4.09,1.182
		C74.769,63.325,74.352,63.325,73.468,63.232z M76.267,61.971c2.386-0.44,4.528-1.696,6-3.517c0.728-0.899,1.144-1.591,1.506-2.504
		c1.021-2.577,1.019-4.99-0.006-7.564c-0.644-1.617-1.798-3.101-3.271-4.208c-1.124-0.843-3.063-1.652-4.431-1.846
		c-0.805-0.115-2.38-0.096-3.149,0.039c-1.408,0.246-3.163,1.011-4.326,1.889c-0.662,0.499-1.593,1.459-2.105,2.174
		c-0.439,0.614-1.125,1.985-1.368,2.737c-0.666,2.064-0.604,4.506,0.162,6.448c0.756,1.918,1.876,3.389,3.51,4.612
		c0.988,0.739,2.787,1.506,4.092,1.741C73.689,62.118,75.476,62.118,76.267,61.971z M96.405,63.228
		c-2.604-0.272-4.818-1.331-6.674-3.195c-1.64-1.647-2.563-3.351-3.031-5.585c-0.173-0.834-0.203-1.162-0.203-2.277
		c0-2.454,0.521-4.173,1.91-6.305c0.231-0.354,0.768-1.001,1.191-1.437c1.643-1.689,3.435-2.657,5.888-3.181
		c1.053-0.225,2.979-0.246,4.019-0.044c2.478,0.482,4.405,1.502,6.053,3.205c0.464,0.478,1.001,1.112,1.196,1.408
		c0.48,0.728,1.09,1.871,1.031,1.928c-0.025,0.026-0.317,0.063-0.652,0.083l-0.605,0.035l-0.242-0.488
		c-0.287-0.579-0.889-1.395-1.545-2.098c-1.307-1.397-3.502-2.565-5.457-2.907c-0.877-0.153-2.511-0.153-3.387,0
		c-2.416,0.421-4.786,1.888-6.295,3.892c-0.811,1.077-1.579,2.869-1.816,4.241c-0.147,0.836-0.147,2.496-0.002,3.328
		c0.223,1.275,0.903,2.922,1.663,4.023c0.487,0.705,1.507,1.754,2.244,2.31c0.593,0.443,2.097,1.216,2.874,1.472
		c1.824,0.602,4.143,0.615,5.937,0.032c0.858-0.278,2.076-0.873,2.771-1.354c1.135-0.783,2.492-2.292,3.03-3.368l0.223-0.446h0.691
		h0.689l-0.394,0.737c-0.642,1.2-1.124,1.854-2.063,2.796c-1.545,1.549-3.389,2.577-5.337,2.979
		C98.735,63.294,97.647,63.357,96.405,63.228z M126.428,39.322c0-0.015,0.119-0.377,0.262-0.803l0.262-0.775l-0.471-0.326
		c-0.26-0.18-0.569-0.405-0.686-0.501l-0.214-0.175l0.86-0.021l0.86-0.022l0.198-0.689c0.11-0.379,0.219-0.741,0.242-0.804
		c0.021-0.063,0.162,0.247,0.307,0.689l0.269,0.804l0.825,0.039l0.826,0.039l-0.294,0.234c-0.164,0.128-0.458,0.344-0.655,0.479
		l-0.358,0.245l0.264,0.78c0.145,0.43,0.262,0.793,0.262,0.809c0,0.015-0.312-0.189-0.694-0.453c-0.503-0.349-0.722-0.46-0.8-0.407
		c-0.058,0.041-0.365,0.257-0.683,0.48C126.689,39.167,126.428,39.337,126.428,39.322z"/>
</g>
<g id="Layer_7" display="none">
	<path display="inline" fill="#05684C" d="M64.188,14.079c0.543,0,0.89-0.549,1.234-1.397c0.444-1.05,2.519-2.995,5.38-2.995
		c2.172,0,4.294,1.349,6.021,2.746c1.629,1.349,2.961,1.397,2.961,1.998c0,0.198-0.344,0.349-0.738,0.349
		c-1.629,0-4.49-2.445-7.552-2.445c-3.456,0-6.271,2.994-6.271,4.691c0,0.5,0.198,0.899,0.839,0.899
		c0.742,0,1.582-1.799,3.506-1.799c1.776,0,3.258,1.698,5.725,1.349c0.297-0.05,0.395,0.398,0.195,0.501
		c-4.936,2.793-10.166,5.44-10.166,14.277c0,6.789,3.8,13.331,12.19,13.331c8.738,0,12.933-5.692,12.933-13.331
		c0-6.59-3.994-12.68-9.377-12.68c-0.197,0-0.394,0-0.594,0.049c-0.346,0.099-0.643,0.397-0.643,0.849c0,0.548,0.15,0.7,0.496,0.946
		c3.456,2.449,4.643,4.846,4.643,11.486c0,4.691-1.928,9.903-6.768,9.903c-5.23,0-7.452-5.611-7.452-10.652
		c0-5.842,1.481-8.59,5.136-11.333c3.945-2.997,8.639-4.396,8.639-7.142c0-1.346-1.434-1.597-2.371-1.646
		c-0.84-0.05-2.025-0.351-2.617-1.199c-2.418-2.546-5.232-5.191-8.587-5.191c-4.788,0-7.603,5.093-7.603,6.989
		C63.348,13.383,63.496,14.079,64.188,14.079z"/>
	<path display="inline" fill="#05684C" d="M111.978,21.574h0.759c0.225,0,0.526,0.229,0.603,0.572
		c0.112,0.307,0.15,0.497,0.15,1.493v17.089c0,1.028-0.037,1.224-0.15,1.525c-0.076,0.269-0.339,0.498-0.603,0.498h-0.759
		c-0.526,0-0.943,0.459-0.943,1.033c0,0.84,0.417,1.109,1.702,1.109h14.814l0.722-0.041c0.599-0.037,0.79-0.188,1.053-0.84
		l1.098-2.56c0.227-0.535,0.305-0.88,0.305-1.071c0-0.536-0.379-0.916-0.983-0.916c-0.494,0-0.682,0.151-1.133,0.838
		c-0.757,1.111-1.475,1.684-2.348,1.833c-0.642,0.116-1.626,0.156-3.512,0.156c-2.006,0-2.758-0.078-3.253-0.269
		c-0.604-0.229-0.717-0.647-0.717-2.675v-6.042c0-0.841,0.112-1.223,0.341-1.376c0.189-0.113,0.453-0.15,1.547-0.15h2.951
		c0.983,0,1.47-0.459,1.47-1.341c0-0.917-0.376-1.259-1.47-1.259h-4.839v-4.896c0-2.024,0.229-2.29,2.306-2.29h2.533
		c2.381,0,3.098,0.266,3.857,1.373c0.264,0.347,0.412,0.575,0.451,0.653c0.15,0.15,0.343,0.304,0.529,0.38
		c0.111,0.076,0.264,0.117,0.412,0.117c0.571,0,1.024-0.423,1.024-0.881c0-0.113-0.077-0.345-0.19-0.649l-1.094-2.828
		c-0.228-0.577-0.531-0.766-1.322-0.766h-14.553c-1.285,0-1.74,0.269-1.74,1.107C110.996,21.076,111.451,21.574,111.978,21.574z"/>
	<path display="inline" fill="#05684C" d="M91.757,21.574h0.721c0.262,0,0.566,0.191,0.64,0.497
		c0.112,0.305,0.156,0.459,0.156,1.489v17.281c0,0.955-0.044,1.146-0.156,1.412c-0.073,0.269-0.378,0.498-0.64,0.498h-0.721
		c-0.528,0-0.942,0.459-0.942,1.033c0,0.84,0.414,1.109,1.663,1.109h14.552c1.17,0,1.473-0.191,1.851-1.147l1.171-2.905l0.152-0.421
		c0.076-0.155,0.114-0.306,0.114-0.458c0-0.459-0.456-0.841-1.021-0.841c-0.452,0-0.682,0.153-1.134,0.802
		c-0.908,1.302-1.398,1.796-2.04,2.064c-0.644,0.266-1.06,0.266-3.327,0.266c-2.606,0-3.326-0.038-3.703-0.303
		c-0.453-0.267-0.527-0.652-0.527-2.333V23.561c0-0.993,0-1.223,0.111-1.489c0.111-0.306,0.453-0.497,0.793-0.497h0.833
		c0.526,0,0.981-0.46,0.981-1.07c0-0.84-0.455-1.108-1.814-1.108h-6.991c-1.285,0-1.738,0.269-1.738,1.108
		C90.739,21.114,91.193,21.574,91.757,21.574z"/>
	<path display="inline" fill="#05684C" d="M85.633,69.471c-0.039,0.877-0.113,0.952-1.285,1.146
		c-0.643,0.076-1.018,0.457-1.018,1.03c0,0.306,0.188,0.651,0.451,0.84c1.325,1.036,5.82,1.914,9.75,1.914
		c4.198,0,7.107-0.844,9.339-2.64c2.796-2.253,4.345-6.076,4.345-10.701c0-4.131-1.207-7.61-3.438-9.864
		c-2.306-2.371-5.408-3.404-9.94-3.404c-4.271,0-8.693,0.805-10.016,1.838c-0.302,0.228-0.49,0.571-0.49,0.914
		c0,0.575,0.416,0.957,1.133,0.993c1.021,0.079,1.132,0.231,1.17,1.228l0.039,0.839v15.025L85.633,69.471z M90.963,54.102
		c0-2.18,0.075-2.638,0.566-3.02c0.568-0.46,1.664-0.767,2.836-0.767c4.496,0,7.179,3.977,7.179,10.704
		c0,6.731-2.683,10.628-7.331,10.628c-1.436,0-2.573-0.381-2.984-0.954c-0.227-0.383-0.266-0.691-0.266-2.218V54.102L90.963,54.102z
		"/>
	<path display="inline" fill="#05684C" d="M110.24,57.963c1.171,1.376,1.51,1.604,5.1,4.127c2.154,1.53,3.178,2.371,4.007,3.291
		c0.794,0.915,1.209,1.833,1.209,2.866c0,2.022-1.661,3.4-4.118,3.4c-2.153,0-4.271-1.148-5.592-3.019l-0.531-0.767
		c-0.229-0.305-0.568-0.497-0.945-0.497c-0.678,0-1.207,0.497-1.207,1.187c0,0.189,0.033,0.534,0.11,0.764l0.944,3.823
		c0.226,0.919,0.529,1.262,1.172,1.262c0.339,0,0.529-0.076,0.869-0.343c0.342-0.306,0.492-0.383,0.795-0.383
		c0.227,0,0.301,0.038,0.83,0.189c1.098,0.346,2.572,0.537,3.97,0.537c4.989,0,8.238-2.907,8.238-7.341
		c0-1.948-0.754-3.861-2.04-5.199c-1.208-1.265-2.191-2.024-5.177-4.13c-0.793-0.572-1.401-0.992-1.855-1.338
		c-0.753-0.573-1.36-1.185-1.733-1.758c-0.305-0.422-0.419-0.995-0.419-1.566c0-1.568,1.136-2.562,2.874-2.562
		c1.246,0,2.529,0.418,3.554,1.223c0.794,0.611,0.943,0.766,1.814,2.063c0.339,0.498,0.565,0.649,0.981,0.649
		c0.642,0,1.096-0.42,1.096-0.918c0-0.112,0-0.341-0.075-0.533l-0.907-4.128c-0.152-0.69-0.491-1.072-1.06-1.072
		c-0.301,0-0.416,0.037-0.794,0.307c-0.337,0.228-0.604,0.342-0.867,0.342c-0.152,0-0.341-0.035-0.531-0.074
		c-0.526-0.114-0.828-0.192-0.944-0.229c-1.096-0.229-2.192-0.346-3.251-0.346c-4.156,0-6.951,2.447-6.951,6.155
		C108.804,55.479,109.293,56.853,110.24,57.963z"/>
	<path display="inline" fill="#05684C" d="M26.457,50.926c3.933,0,4.387,0.156,5.445,1.761c0.378,0.572,0.641,0.802,1.057,0.802
		c0.568,0,0.981-0.419,0.981-0.918c0-0.152-0.035-0.305-0.148-0.61l-0.982-2.6c-0.189-0.461-0.378-0.764-0.604-0.877
		c-0.191-0.117-0.304-0.157-0.91-0.157H17.427c-1.248,0-1.663,0.271-1.663,1.109c0,0.575,0.376,1.072,0.906,1.072h0.756
		c0.264,0,0.528,0.191,0.642,0.495c0.076,0.271,0.114,0.498,0.114,1.493v17.163c0,1.034-0.038,1.225-0.114,1.491
		c-0.113,0.309-0.378,0.497-0.642,0.497H16.67c-0.53,0-0.981,0.496-0.981,1.07c0,0.84,0.452,1.108,1.738,1.108h6.953
		c1.399,0,1.853-0.269,1.853-1.108c0-0.574-0.417-1.07-0.983-1.07h-0.87c-0.301,0-0.641-0.188-0.793-0.497
		c-0.115-0.267-0.115-0.457-0.115-1.491v-7.607c0-0.801,0.038-1.032,0.303-1.145c0.152-0.076,0.34-0.116,0.53-0.116h3.856
		c1.059,0,1.625-0.458,1.625-1.301c0-0.879-0.528-1.298-1.625-1.298h-4.688v-5.696C23.472,51.003,23.701,50.926,26.457,50.926z"/>
	<path display="inline" fill="#05684C" d="M123.281,76.902H17.967c-3.223,0-5.834,2.641-5.834,5.9c0,3.257,2.612,5.901,5.834,5.901
		h105.314c3.223,0,5.834-2.645,5.834-5.901C129.115,79.543,126.504,76.902,123.281,76.902z M32.281,84.941
		c0.01,0.109,0.146,0.177,0.261,0.177h0.241c0.202,0,0.375,0.206,0.375,0.431c0,0.289-0.155,0.406-0.617,0.406h-2.72
		c-0.483,0-0.665-0.117-0.665-0.406c0-0.225,0.182-0.431,0.406-0.431h0.259c0.115,0,0.223-0.067,0.27-0.177
		c0.047-0.115,0.047-0.184,0.047-0.585v-3.061l-2.439,2.407c-0.146,0.156-0.317,0.243-0.49,0.243c-0.184,0-0.262-0.058-0.444-0.243
		l-2.295-2.477v3.13c0,0.38,0,0.47,0.04,0.585c0.038,0.118,0.143,0.177,0.261,0.177h0.289c0.232,0,0.403,0.205,0.403,0.43
		c0,0.29-0.155,0.407-0.692,0.407h-1.949c-0.472,0-0.665-0.117-0.665-0.407c0-0.225,0.193-0.43,0.405-0.43h0.26
		c0.117,0,0.213-0.068,0.261-0.177c0.049-0.099,0.058-0.234,0.058-0.585v-3.424c0-0.397-0.009-0.497-0.058-0.604
		c-0.048-0.115-0.144-0.204-0.261-0.204h-0.26c-0.212,0-0.405-0.176-0.405-0.409c0-0.304,0.193-0.419,0.665-0.419h2.208
		c0.232,0,0.366,0.059,0.685,0.41l2.084,2.313l2.427-2.412c0.252-0.243,0.405-0.311,0.618-0.311h1.698
		c0.462,0,0.616,0.115,0.616,0.419c0,0.233-0.173,0.409-0.375,0.409h-0.311c-0.115,0-0.171,0.068-0.221,0.174
		c-0.048,0.099-0.048,0.237-0.048,0.635v3.424C32.204,84.736,32.204,84.826,32.281,84.941z M50.419,85.955h-3.056
		c-0.29,0-0.445-0.164-0.445-0.407c0-0.295,0.164-0.373,0.549-0.438c0.328-0.06,0.355-0.236,0.232-0.548l-0.04-0.098
		c-0.076-0.196-0.184-0.215-0.519-0.215h-2.218c-0.224,0-0.338,0.019-0.398,0.048c-0.066,0.03-0.114,0.059-0.145,0.117l-0.026,0.069
		c-0.097,0.223,0.009,0.565,0.404,0.613c0.375,0.051,0.53,0.155,0.53,0.428s-0.201,0.43-0.501,0.43h-2.41
		c-0.357,0-0.521-0.117-0.521-0.38c0-0.252,0.125-0.359,0.405-0.427c0.202-0.051,0.271-0.099,0.356-0.207
		c0.067-0.087,0.202-0.352,0.339-0.613l2.265-4.536c0.261-0.517,0.752-0.635,1.206-0.635c0.414,0,0.937,0.147,1.176,0.635
		l2.189,4.361c0.337,0.673,0.442,0.816,0.666,0.896l0.203,0.067c0.144,0.048,0.261,0.176,0.261,0.38
		C50.921,85.791,50.746,85.955,50.419,85.955z M68.258,85.955h-1.803c-0.405,0-0.6-0.125-0.88-0.429l-2.034-2.31
		c-0.201-0.227-0.278-0.362-0.278-0.46c0-0.193,0.164-0.281,0.568-0.321c1.023-0.087,1.532-0.458,1.532-1.24
		c0-0.875-0.704-1.276-1.581-1.276c-0.338,0-0.674,0.068-0.849,0.194c-0.151,0.117-0.211,0.313-0.243,0.733l-0.026,0.478v3.005
		c0,0.379,0,0.487,0.039,0.574c0.048,0.126,0.173,0.206,0.28,0.206h0.299c0.202,0,0.366,0.184,0.366,0.416
		c0,0.313-0.165,0.43-0.666,0.43h-2.709c-0.473,0-0.668-0.117-0.668-0.43c0-0.232,0.195-0.416,0.405-0.416h0.263
		c0.142,0,0.23-0.08,0.279-0.206c0.037-0.107,0.037-0.195,0.037-0.574v-3.347c0-0.399-0.066-0.467-0.443-0.49
		c-0.289-0.016-0.451-0.151-0.451-0.407c0-0.127,0.077-0.273,0.162-0.362c0.474-0.378,2.303-0.564,3.759-0.564
		c2.489,0,3.859,0.645,3.859,1.871c0,0.849-0.376,1.551-1.716,1.786l1.293,1.425c0.48,0.535,0.828,0.721,1.232,0.789
		c0.289,0.08,0.329,0.089,0.415,0.137c0.085,0.05,0.176,0.175,0.176,0.331C68.876,85.791,68.661,85.955,68.258,85.955z
		 M81.227,85.955h-2.711c-0.473,0-0.663-0.117-0.663-0.429c0-0.233,0.19-0.416,0.403-0.416h0.26c0.145,0,0.231-0.081,0.278-0.207
		c0.04-0.107,0.04-0.195,0.04-0.574v-3.396c0-0.381-0.008-0.516-0.04-0.583c-0.047-0.108-0.134-0.205-0.278-0.205h-0.26
		c-0.213,0-0.403-0.177-0.403-0.429c0-0.305,0.19-0.42,0.663-0.42h2.711c0.498,0,0.666,0.115,0.666,0.42
		c0,0.252-0.168,0.429-0.377,0.429h-0.289c-0.117,0-0.203,0.076-0.251,0.205c-0.05,0.128-0.067,0.186-0.067,0.583v3.396
		c0,0.253,0.01,0.497,0.084,0.612c0.07,0.109,0.138,0.169,0.234,0.169h0.289c0.182,0,0.376,0.183,0.376,0.416
		C81.893,85.838,81.697,85.955,81.227,85.955z M86.999,85.955h-1.83c-0.396,0-0.521-0.135-0.809-0.429l-2.655-2.653
		c-0.123-0.126-0.173-0.193-0.173-0.274c0-0.075,0.077-0.173,0.173-0.25l1.922-1.639c0.279-0.243,0.115-0.54-0.039-0.54
		c-0.175,0-0.277-0.161-0.277-0.454c0-0.265,0.133-0.42,0.461-0.42h3.075c0.318,0,0.491,0.126,0.491,0.41
		c0,0.243-0.124,0.372-0.491,0.419c-0.337,0.045-0.47,0.045-0.705,0.105c-0.218,0.06-0.499,0.226-0.684,0.381l-1.754,1.522
		l2.169,2.155c0.57,0.566,0.898,0.74,1.185,0.821c0.327,0.085,0.484,0.143,0.484,0.416C87.542,85.791,87.35,85.955,86.999,85.955z
		 M104.184,84.465l-0.501,1.268c-0.078,0.166-0.134,0.205-0.386,0.205l-0.291,0.018h-5.929c-0.501,0-0.665-0.117-0.665-0.43
		c0-0.232,0.164-0.407,0.365-0.407h0.3c0.087,0,0.201-0.089,0.222-0.208c0.058-0.094,0.069-0.203,0.069-0.581v-3.366
		c0-0.381-0.012-0.486-0.069-0.586c-0.021-0.136-0.135-0.232-0.222-0.232h-0.3c-0.201,0-0.393-0.196-0.393-0.43
		c0-0.304,0.191-0.42,0.692-0.42h5.872c0.309,0,0.415,0.049,0.473,0.195l0.443,1.15c0.019,0.058,0.066,0.135,0.059,0.166
		c-0.027,0.119-0.27,0.223-0.482,0.223c-0.077,0-0.133,0-0.174-0.029c-0.076-0.018-0.134-0.058-0.184-0.086
		c-0.027-0.038-0.055-0.088-0.145-0.184c-0.239-0.285-0.662-0.586-1.612-0.586h-0.979c-0.82,0-0.908,0.075-0.908,0.604v1.103h1.888
		c0.454,0,0.582,0.242,0.582,0.497c0,0.272-0.175,0.519-0.582,0.519h-1.153c-0.301,0-0.531-0.021-0.608,0.036
		c-0.077,0.06-0.127,0.166-0.127,0.39v1.045c0,0.525,0.041,0.632,0.293,0.691c0.161,0.04,0.489,0.081,1.27,0.081
		c0.733,0,1.12-0.022,1.358-0.051c0.33-0.037,0.814-0.595,1.054-0.896c0.144-0.188,0.202-0.217,0.405-0.217
		c0.252,0,0.386,0.099,0.416,0.226C104.25,84.24,104.241,84.308,104.184,84.465z M120.701,81.158c-0.154,0-0.279-0.059-0.402-0.226
		c-0.072-0.086-0.088-0.106-0.118-0.134c-0.142-0.178-0.388-0.52-0.56-0.578c-0.162-0.06-0.378-0.076-0.925-0.076
		c-0.694,0-0.781,0.048-0.781,0.477v3.708c0,0.379,0,0.467,0.038,0.574c0.049,0.126,0.164,0.206,0.291,0.206h0.402
		c0.225,0,0.395,0.184,0.395,0.416c0,0.313-0.17,0.43-0.711,0.43h-2.924c-0.52,0-0.701-0.117-0.701-0.43
		c0-0.232,0.182-0.416,0.375-0.416h0.434c0.098,0,0.212-0.08,0.26-0.206c0.039-0.107,0.067-0.195,0.067-0.574v-3.708
		c0-0.416-0.067-0.477-0.933-0.477c-0.745,0-1.109,0.302-1.371,0.672l-0.078,0.109c-0.131,0.192-0.249,0.232-0.445,0.232
		c-0.209,0-0.5-0.108-0.517-0.232c0-0.029,0.017-0.139,0.047-0.216l0.446-1.161c0.085-0.244,0.154-0.253,0.499-0.253h6.769
		c0.222,0,0.232,0.009,0.33,0.049c0.047,0.019,0.082,0.088,0.132,0.204l0.481,1.218c0.021,0.06,0.048,0.129,0.041,0.159
		C121.223,81.042,120.931,81.158,120.701,81.158z"/>
	<path display="inline" fill="#05684C" d="M46.243,81.394c-0.116-0.255-0.164-0.461-0.191-0.617h-0.059
		c-0.038,0.149-0.136,0.371-0.243,0.617l-0.731,1.64l-0.145,0.229l0.251-0.025h1.784l0.203,0.025l-0.126-0.229L46.243,81.394z"/>
	<path display="inline" fill="#05684C" d="M19.705,43.549c0.528,1.452,1.058,1.906,2.155,1.906c0.492,0,0.982-0.187,1.284-0.418
		c0.302-0.305,0.416-0.574,0.756-1.488l3.704-10.476l3.477,10.476c0.452,1.411,1.02,1.906,2.153,1.906
		c1.134,0,1.626-0.531,2.192-2.405l6.008-19.608c0.421-1.344,0.685-1.705,1.472-1.873h0.207c0.267,0,0.53,0.19,0.645,0.496
		c0.112,0.266,0.112,0.458,0.112,1.492v17.162c0,1.028,0,1.22-0.112,1.526c-0.078,0.268-0.377,0.46-0.645,0.46h-0.755
		c-0.528,0-0.982,0.497-0.982,1.069c0,0.842,0.454,1.108,1.737,1.108h6.879c1.21,0,1.625-0.267,1.625-1.069
		c0-0.611-0.377-1.108-0.906-1.108h-0.72c-0.304,0-0.605-0.192-0.717-0.46c-0.077-0.307-0.115-0.532-0.115-1.526v-6.996
		c0-1.758,0.152-1.911,1.552-1.911h5.138c0.754,0,1.133,0.115,1.321,0.347c0.191,0.228,0.191,0.382,0.191,1.796v6.766
		c0,0.994,0,1.219-0.114,1.526c-0.113,0.268-0.417,0.46-0.681,0.46h-0.718c-0.531,0-0.983,0.497-0.983,1.069
		c0,0.842,0.417,1.108,1.701,1.108h6.877c1.326,0,1.739-0.267,1.739-1.108c0-0.572-0.414-1.069-0.981-1.069h-0.759
		c-0.265,0-0.565-0.192-0.644-0.46c-0.112-0.308-0.146-0.532-0.146-1.526V23.558c0-0.957,0.035-1.227,0.146-1.492
		c0.079-0.269,0.379-0.496,0.644-0.496h0.759c0.527,0,0.981-0.459,0.981-1.069c0-0.842-0.454-1.11-1.739-1.11h-6.877
		c-1.284,0-1.74,0.268-1.74,1.11c0,0.61,0.456,1.069,1.022,1.069h0.717c0.263,0,0.568,0.19,0.681,0.496
		c0.113,0.266,0.113,0.497,0.113,1.492v5.654h-8.202v-5.654c0-0.957,0.038-1.227,0.115-1.492c0.112-0.269,0.414-0.496,0.717-0.496
		h0.72c0.528,0,0.941-0.459,0.941-1.069c0-0.842-0.414-1.11-1.662-1.11H37.504c-1.02,0-1.436,0.306-1.436,1.07
		c0,0.611,0.378,0.994,1.208,1.069c0.907,0.112,1.323,0.42,1.323,0.993c0,0.23-0.038,0.534-0.151,0.919L33.99,38.082L29.493,24.09
		c-0.304-0.916-0.378-1.26-0.378-1.604c0-0.688,0.264-0.916,1.284-1.03c0.832-0.116,1.211-0.423,1.211-1.034
		c0-0.687-0.417-1.031-1.285-1.031h-7.408c-0.87,0-1.325,0.418-1.325,1.145c0,0.576,0.303,0.844,1.096,1.035
		c0.87,0.228,1.173,0.419,1.398,0.993c0.076,0.152,0.153,0.456,0.303,0.88l1.738,5.121l-3.513,9.899L17.513,24.09l-0.303-0.878
		c-0.113-0.308-0.152-0.576-0.152-0.84c0-0.612,0.341-0.882,1.172-0.957c0.982-0.076,1.361-0.344,1.361-0.995
		c0-0.687-0.379-1.031-1.247-1.031h-7.788c-0.869,0-1.284,0.345-1.284,0.994c0,0.611,0.265,0.879,1.06,1.032
		c1.208,0.27,1.396,0.46,1.965,2.026L19.705,43.549z"/>
	<path display="inline" fill="#05684C" d="M45.609,74.401c6.393,0,10.832-3.644,12.139-9.589c1.273,5.896,5.698,9.589,11.974,9.589
		c7.673,0,12.545-5.239,12.545-13.419c0-8.029-4.872-13.19-12.472-13.19c-6.324,0-10.724,3.612-12.025,9.542
		c-1.273-5.907-5.717-9.542-12.084-9.542c-7.598,0-12.437,5.2-12.437,13.381C33.25,69.162,38.126,74.401,45.609,74.401z
		 M69.759,50.508c4.196,0,6.84,4.088,6.84,10.665c0,6.422-2.607,10.475-6.763,10.475c-4.271,0-6.806-3.896-6.806-10.438
		C63.031,54.561,65.566,50.508,69.759,50.508z M45.646,50.508c4.196,0,6.84,4.088,6.84,10.665c0,6.422-2.607,10.475-6.764,10.475
		c-4.271,0-6.804-3.896-6.804-10.438C38.919,54.561,41.451,50.508,45.646,50.508z"/>
</g>
</svg>
