<?xml version="1.0" encoding="utf-8"?>
<!-- Generator: Adobe Illustrator 16.0.0, SVG Export Plug-In . SVG Version: 6.00 Build 0)  -->
<!DOCTYPE svg PUBLIC "-//W3C//DTD SVG 1.1//EN" "http://www.w3.org/Graphics/SVG/1.1/DTD/svg11.dtd">
<svg version="1.1" xmlns="http://www.w3.org/2000/svg" xmlns:xlink="http://www.w3.org/1999/xlink" x="0px" y="0px" width="200px"
	 height="200px" viewBox="0 0 200 200" enable-background="new 0 0 200 200" xml:space="preserve">
<g id="Layer_1" display="none">
	<path display="inline" fill-rule="evenodd" clip-rule="evenodd" fill="#0099CC" d="M100.02,6.002
		c51.879-0.048,94.33,42.254,93.98,94.666c-0.345,51.633-42.524,93.651-94.64,93.328c-51.538-0.32-93.818-42.447-93.358-94.88
		C6.454,47.666,48.375,5.958,100.02,6.002z M52.73,159.621c-0.384,2.957-0.01,5.929-0.188,8.888
		c-0.071,1.175,0.204,1.513,1.461,1.511c30.587-0.043,61.175-0.034,91.764-0.034c0.32,0,0.641-0.005,0.962-0.002
		c0.438,0.002,0.704-0.192,0.693-0.649c-0.074-3.237,0.214-6.48-0.153-9.713c0.022-2.288-0.035-4.58,0.097-6.861
		c0.079-1.359-0.277-1.74-1.699-1.738c-30.444,0.047-60.889,0.036-91.334,0.036c-0.274,0-0.552,0.024-0.824-0.003
		c-0.668-0.066-0.865,0.244-0.853,0.88C52.7,154.496,52.708,157.058,52.73,159.621z M70.556,44.747
		c-4.167-0.003-8.335,0.023-12.502-0.036c-0.988-0.015-1.231,0.296-1.203,1.24c0.066,2.242,0.021,4.488,0.021,6.731
		c0,2.367,0,2.358-2.368,2.373c-2.078,0.012-1.857-0.216-1.858,1.815c-0.005,30.777,0.008,61.553-0.041,92.331
		c-0.002,1.449,0.431,1.68,1.75,1.678c30.411-0.037,60.821-0.037,91.231,0.002c1.387,0.002,1.809-0.29,1.807-1.759
		c-0.047-30.318-0.036-60.637-0.036-90.956c0-3.119,0-3.152-3.092-3.161c-0.888-0.001-1.177-0.238-1.157-1.147
		c0.056-2.656-0.011-5.312,0.037-7.968c0.016-0.861-0.183-1.188-1.123-1.178c-4.944,0.053-9.891,0.037-14.836,0.044
		c-0.069-0.115-0.168-0.222-0.204-0.347c-2.315-7.838-9.397-13.735-17.479-14.229c-6.806-0.416-13.631-0.116-20.448-0.117
		c-1.316,0-2.641,0.189-3.923,0.561C77.774,32.754,72.859,37.401,70.556,44.747z"/>
	<path display="inline" fill-rule="evenodd" clip-rule="evenodd" fill="#0E2E40" d="M127.186,44.757
		c4.945-0.007,9.892,0.009,14.836-0.044c0.94-0.01,1.139,0.316,1.123,1.178c-0.048,2.656,0.019,5.312-0.037,7.968
		c-0.02,0.91,0.27,1.146,1.157,1.147c3.092,0.008,3.092,0.042,3.092,3.161c0,30.319-0.011,60.638,0.036,90.956
		c0.002,1.469-0.42,1.761-1.807,1.759c-30.41-0.039-60.821-0.039-91.231-0.002c-1.319,0.002-1.752-0.229-1.75-1.678
		c0.049-30.777,0.036-61.554,0.041-92.331c0-2.031-0.22-1.804,1.858-1.815c2.368-0.015,2.368-0.006,2.368-2.373
		c0-2.244,0.045-4.49-0.021-6.731c-0.028-0.944,0.215-1.255,1.203-1.24c4.167,0.059,8.335,0.032,12.502,0.037
		c-0.307,1.57-0.495,3.146-0.492,4.754c0.022,10.02,0.007,20.038,0.028,30.059c0.001,0.847-0.122,1.514-0.75,2.201
		c-1.024,1.119-0.795,2.818,0.312,3.821c1.072,0.969,2.824,0.951,3.873-0.042c1.079-1.022,1.258-2.718,0.218-3.828
		c-0.605-0.646-0.712-1.281-0.71-2.077c0.017-8.555,0.038-17.111,0.003-25.666c-0.014-3.337,0.865-6.388,2.579-9.223
		c0.365-0.003,0.731-0.013,1.097-0.013c15.096-0.01,30.191-0.02,45.289-0.028c1.837,2.735,2.669,5.79,2.686,9.043
		c0.044,8.701,0.017,17.403,0.029,26.105c0,0.655-0.092,1.17-0.616,1.694c-1.116,1.114-1.037,2.882,0.033,3.946
		c1.068,1.063,2.882,1.076,3.969,0.026c1.103-1.063,1.208-2.818,0.106-3.947c-0.502-0.515-0.666-1-0.664-1.678
		c0.017-8.152,0.029-16.304,0.002-24.458C127.535,51.876,127.837,48.3,127.186,44.757z"/>
	<path display="inline" fill-rule="evenodd" clip-rule="evenodd" fill="#0E2E40" d="M147.269,159.621
		c0.367,3.232,0.079,6.476,0.153,9.713c0.011,0.457-0.255,0.651-0.693,0.649c-0.321-0.003-0.642,0.002-0.962,0.002
		c-30.589,0-61.177-0.009-91.764,0.034c-1.257,0.002-1.532-0.336-1.461-1.511c0.179-2.959-0.195-5.931,0.188-8.888
		C84.243,159.621,115.756,159.621,147.269,159.621z"/>
	<path display="inline" fill-rule="evenodd" clip-rule="evenodd" fill="#FEFFFF" d="M147.269,159.621c-31.513,0-63.026,0-94.539,0
		c-0.021-2.563-0.03-5.125-0.075-7.687c-0.012-0.636,0.185-0.946,0.853-0.88c0.272,0.027,0.549,0.003,0.824,0.003
		c30.445,0,60.89,0.011,91.334-0.036c1.422-0.002,1.778,0.379,1.699,1.738C147.233,155.041,147.291,157.333,147.269,159.621z"/>
	<path display="inline" fill-rule="evenodd" clip-rule="evenodd" fill="#FEFFFF" d="M75.616,44.748
		c-1.714,2.835-2.593,5.885-2.579,9.223c0.034,8.555,0.014,17.11-0.003,25.666c-0.001,0.796,0.105,1.431,0.71,2.077
		c1.04,1.11,0.861,2.806-0.218,3.828c-1.049,0.993-2.801,1.011-3.873,0.042c-1.107-1.003-1.335-2.703-0.312-3.821
		c0.629-0.687,0.751-1.354,0.75-2.201c-0.021-10.021-0.006-20.039-0.028-30.059c-0.003-1.608,0.185-3.185,0.492-4.754
		c2.303-7.347,7.218-11.994,14.576-14.124c1.282-0.372,2.606-0.561,3.923-0.561c6.817,0.001,13.643-0.298,20.448,0.117
		c8.081,0.494,15.163,6.391,17.479,14.229c0.036,0.125,0.135,0.232,0.204,0.347c0.651,3.542,0.35,7.119,0.361,10.682
		c0.027,8.154,0.015,16.305-0.002,24.458c-0.002,0.679,0.162,1.163,0.664,1.678c1.102,1.129,0.996,2.884-0.106,3.947
		c-1.087,1.049-2.9,1.037-3.969-0.026c-1.07-1.063-1.149-2.832-0.033-3.946c0.524-0.524,0.616-1.039,0.616-1.694
		c-0.013-8.703,0.015-17.405-0.029-26.105c-0.017-3.253-0.849-6.308-2.686-9.043c-3.455-5.636-8.466-8.737-15.09-8.921
		c-5.118-0.144-10.246-0.03-15.369-0.029C84.543,35.758,79.329,38.924,75.616,44.748z"/>
	<path display="inline" fill-rule="evenodd" clip-rule="evenodd" fill="#0099CC" d="M75.616,44.748
		c3.713-5.824,8.927-8.99,15.927-8.991c5.124-0.001,10.251-0.115,15.369,0.029c6.624,0.185,11.635,3.285,15.09,8.921
		c-15.098,0.008-30.193,0.018-45.289,0.028C76.347,44.735,75.981,44.745,75.616,44.748z"/>
</g>
<g id="Layer_2">
	<path fill-rule="evenodd" clip-rule="evenodd" fill="#CDE3E8" d="M106.363,0.022c-4.258,0.766-8.514,0.766-12.771,0
		C97.85,0.022,102.105,0.022,106.363,0.022z"/>
	<path fill-rule="evenodd" clip-rule="evenodd" fill="#CDE3E8" d="M93.593,198.963c4.033-0.746,8.065-0.746,12.098,0
		C101.658,198.963,97.625,198.963,93.593,198.963z"/>
	<path fill-rule="evenodd" clip-rule="evenodd" fill="#D7ECF8" d="M28.392,30.958c0.001-0.45,0.003-0.9,0.005-1.35
		c1.673-0.013,3.347-0.038,5.02-0.039c19.522-0.003,39.045,0.006,58.567-0.019c1.464-0.002,3.295,0.529,3.719-1.771
		c0.903-4.892,4.364-7.273,8.669-8.823c7.674-0.223,12.065,3.926,12.067,11.476c0.01,37.396-0.039,74.791,0.085,112.186
		c0.011,3.1-0.957,3.638-3.77,3.628c-26.312-0.1-52.622-0.059-78.933-0.059c-5.188,0-5.188-0.001-5.398-5.041
		c3.892-4.635,3.882-7.845-0.038-12.454c0.042-11.306,0.123-22.611,0.117-33.918C28.492,73.502,28.432,52.23,28.392,30.958z
		 M55.938,77.878c-1.177-0.001-2.354-0.003-3.531-0.004c-0.004-10.145,0.011-20.288-0.044-30.432
		c-0.006-1.064,0.64-2.87-1.214-2.876c-1.935-0.008-1.17,1.833-1.177,2.871c-0.065,10.144-0.045,20.288-0.05,30.432
		c-0.21,0.069-0.426,0.089-0.645,0.062c-0.012-7.579-0.014-15.157-0.042-22.735c-0.005-1.376,0.421-3.302-2.147-2.087
		c-0.267-0.049-0.533-0.099-0.799-0.148c0.02-4.25,0.063-8.499,0.042-12.748c-0.005-0.946,0.17-2.312-1.285-2.269
		c-1.502,0.045-1.023,1.445-1.111,2.357c-0.074,0.776-0.016,1.565-0.017,2.348c-0.014,11.745-0.028,23.49-0.043,35.235
		c-0.223,0.067-0.444,0.062-0.663-0.015c-0.009-6.945-0.014-13.889-0.029-20.833c-0.005-2.127-0.022-4.255-0.068-6.383
		c-0.013-0.588-0.287-1.18-0.938-1.18c-0.65,0-0.906,0.59-0.941,1.18c-0.055,0.893-0.066,1.79-0.068,2.685
		c-0.012,8.177-0.018,16.354-0.025,24.53c-0.437-0.005-0.874-0.011-1.311-0.016c0.001-5.482,0.088-10.966-0.023-16.446
		c-0.09-4.456,0.524-8.941-0.445-13.368c0-3.868,0-7.736,0-11.604c-0.244,0.009-0.488,0.018-0.731,0.027c0,3.935,0,7.871,0,11.806
		c-0.079,9.307-0.16,18.614-0.23,27.922c-0.006,0.879-0.066,1.797,0.759,2.428c0.65,0.056,1.3,0.111,1.951,0.167
		c0.012,2.451,0.011,4.903,0.046,7.355c0.013,0.876-0.118,2.112,0.9,2.296c3.179,0.58,6.571,0.983,9.547-0.125
		c1.924-0.717,0.713-3.42,0.908-5.224c0.155-1.434,0.068-2.894,0.089-4.341c1.109,0.003,2.219,0.006,3.329,0.01
		c0.017,0.663,0.044,1.327,0.049,1.991c0.04,5.249,0.039,5.249,5.189,5.251c6.075,0.002,6.075,0.002,6.234-7.238
		c1.108-0.006,2.217-0.012,3.325-0.018c0.199,5.94,0.199,5.94,5.575,5.94c6.922,0.001,5.704,0.313,5.896-5.908
		c1.315,0.004,2.629,0.007,3.944,0.011c0.017,2.34,0.029,4.681,0.052,7.021c0.011,1.075,0.229,2.145,1.54,2.159
		c2.869,0.032,6.116,1.076,8.488-0.496c1.818-1.205,0.518-4.17,0.749-6.339c0.083-0.772,0.027-1.559,0.034-2.339
		c0.943-0.095,1.888-0.189,3.006-0.301c-1.01-0.8-2.037-0.35-2.934-0.614c-0.002-9.509,0.015-19.018-0.042-28.526
		c-0.005-0.925,0.688-2.617-1.207-2.468c-1.507,0.119-0.857,1.598-0.862,2.461c-0.051,9.508-0.037,19.017-0.041,28.525
		c-0.222,0.036-0.443,0.072-0.665,0.108c-0.021-3.991-0.075-7.983-0.05-11.974c0.009-1.37-0.023-2.52-1.906-2.03
		c-0.256,0.047-0.512,0.095-0.767,0.143c-0.051-2.909-0.064-5.818-0.172-8.725c-0.038-1.027,0.367-2.629-1.242-2.634
		c-1.71-0.005-1.138,1.643-1.146,2.622c-0.065,7.502-0.057,15.005-0.073,22.508c-0.223,0.067-0.443,0.062-0.663-0.015
		c-0.009-10.977-0.016-21.954-0.032-32.931c-0.001-0.893-0.008-1.799-0.164-2.671c-0.06-0.336-0.547-0.597-0.839-0.892
		c-0.293,0.294-0.79,0.558-0.841,0.89c-0.151,0.988-0.165,2.003-0.166,3.007c-0.017,10.865-0.021,21.73-0.028,32.595
		c-1.332,0.001-2.663,0.003-3.995,0.003c-0.002-4.617-0.052-9.234,0.017-13.851c0.022-1.508-0.346-2.331-2.004-2.034
		c-0.262-0.026-0.523-0.051-0.785-0.077c-0.06-1.552-0.088-3.105-0.192-4.655c-0.061-0.901,0.426-2.224-1.207-2.214
		c-1.676,0.01-1.116,1.369-1.123,2.232c-0.062,6.9-0.067,13.801-0.09,20.702c-0.207-0.015-0.411-0.046-0.612-0.096
		c-0.015-1.951-0.078-3.902-0.028-5.851c0.037-1.44-0.334-2.343-2-2.066c-0.809-0.624-0.948-2.372-2.455-1.767
		c-1.313,0.529-0.889,1.914-0.917,2.98c-0.061,2.237-0.038,4.476-0.049,6.714c-1.123-0.005-2.245-0.01-3.367-0.016
		c-0.004-8.354,0.012-16.708-0.04-25.062c-0.006-0.946,0.651-2.544-1.227-2.481c-1.788,0.06-1.136,1.613-1.178,2.583
		c-0.138,3.22-0.167,6.445-0.238,9.667c-0.253,0.013-0.505,0.026-0.758,0.04c-1.739-0.337-1.974,0.596-1.954,2.063
		c0.062,4.414,0.003,8.83-0.008,13.245c-0.216,0.032-0.429,0.017-0.639-0.042c-0.018-5.374-0.013-10.747-0.076-16.12
		c-0.01-0.909,0.424-2.332-1.026-2.441c-1.779-0.132-1.35,1.46-1.364,2.456c-0.081,5.372-0.086,10.745-0.12,16.118
		c-0.245-0.013-0.49-0.026-0.734-0.038c-0.025-2.084-0.032-4.169-0.086-6.254c-0.014-0.542-0.132-1.178-0.802-1.264
		c-0.916-0.117-1.069,0.632-1.09,1.281C55.96,73.708,55.961,75.793,55.938,77.878z M52.021,119.622
		c-0.096-2.047-0.04-4.121-1.101-5.991c2.234-0.04,4.469-0.161,6.7-0.094c1.618,0.048,2.459-0.287,2.407-2.184
		c-0.119-4.357-0.085-8.72-0.011-13.079c0.025-1.509-0.317-2.202-2.018-2.177c-6.036,0.086-12.075,0.081-18.11,0.004
		c-1.724-0.022-2.023,0.765-2.003,2.236c0.06,4.359,0.03,8.72,0.015,13.08c-0.004,1.059,0.015,2.055,1.402,2.208
		c-1.558,3.987-1.718,7.699,2.085,10.635c-0.446,0.034-0.894,0.057-1.338,0.105c-0.879,0.097-1.987,0.048-1.997,1.274
		c-0.012,1.464,1.238,1.325,2.217,1.379c0.893,0.05,1.789,0.02,2.684,0.02c15.662,0.001,31.325,0.002,46.987,0.001
		c4.811-0.001,9.622,0.014,14.432-0.02c0.96-0.007,2.314,0.196,2.404-1.173c0.112-1.691-1.396-1.378-2.446-1.462
		c-0.779-0.063-1.565-0.017-2.35-0.017c-17.787-0.004-35.575-0.007-53.363-0.009c0.868-0.864,1.737-1.728,2.605-2.591
		c17.676,0.009,35.352,0.021,53.027,0.029c0.336,0,0.673,0.021,1.007-0.01c0.73-0.068,1.666,0.176,1.733-1.015
		c0.069-1.227-0.841-1.09-1.605-1.112c-0.783-0.023-1.566-0.009-2.35-0.01C86.03,119.643,69.025,119.633,52.021,119.622z
		 M85.522,103.47c4.366,0,8.731,0.006,13.098-0.003c2.238-0.004,4.476-0.012,6.714-0.063c0.692-0.016,1.383-0.254,1.469-1.079
		c0.109-1.038-0.626-1.327-1.478-1.404c-0.556-0.05-1.117-0.054-1.677-0.054c-12.089-0.002-24.179-0.022-36.269,0.032
		c-1.062,0.005-2.912-0.675-2.916,1.18c-0.005,1.689,1.768,1.361,2.924,1.369C73.433,103.488,79.479,103.467,85.522,103.47z
		 M85.818,98.146c6.161,0,12.321,0.023,18.482-0.027c0.877-0.006,2.375,0.438,2.3-1.098c-0.058-1.157-1.394-0.867-2.223-0.869
		c-12.322-0.024-24.644-0.029-36.965,0.01c-0.876,0.003-2.375-0.435-2.3,1.098c0.056,1.154,1.393,0.864,2.224,0.868
		C73.496,98.159,79.657,98.145,85.818,98.146z M55.292,131.75c4.918,0,9.836,0.018,14.754-0.017c0.83-0.006,2.148,0.3,2.234-0.852
		c0.116-1.552-1.377-1.14-2.252-1.143c-9.836-0.041-19.672-0.035-29.509-0.01c-0.832,0.003-2.148-0.284-2.233,0.862
		c-0.116,1.564,1.382,1.121,2.251,1.131C45.456,131.779,50.374,131.75,55.292,131.75z M75.045,108.194
		c2.91,0,5.821,0.023,8.73-0.016c0.842-0.011,2.003,0.178,2.04-1.125c0.033-1.183-1.002-1.399-1.913-1.404
		c-5.82-0.033-11.641-0.032-17.461-0.011c-0.906,0.003-1.989,0.15-2.024,1.292c-0.049,1.566,1.32,1.229,2.233,1.247
		C69.447,108.235,72.246,108.198,75.045,108.194z M105.02,74.713c-0.727,0.33-1.407,0.781-1.377,1.849
		c0.031,1.103,0.681,1.58,1.684,1.562c1.182-0.021,1.842-0.654,1.687-1.879C106.882,75.208,106.111,74.844,105.02,74.713z
		 M106.987,58.001c-0.072-1.078-0.697-1.579-1.727-1.541c-0.863,0.032-1.473,0.476-1.514,1.401c-0.046,1.043,0.538,1.71,1.54,1.76
		C106.306,59.674,106.871,59.019,106.987,58.001z M105.265,50.425c1.076-0.027,1.724-0.533,1.748-1.618
		c0.023-1.05-0.501-1.695-1.602-1.726c-1.069-0.03-1.702,0.479-1.724,1.583C103.668,49.728,104.212,50.324,105.265,50.425z
		 M103.896,67.415c0.081,0.816,0.641,1.096,1.359,1.054c0.692-0.041,1.318-0.347,1.399-1.123c0.083-0.8-0.453-1.214-1.185-1.265
		C104.576,66.019,104.042,66.495,103.896,67.415z"/>
	<path fill-rule="evenodd" clip-rule="evenodd" fill="#536981" d="M175.659,99c0.017,14.323-0.025,28.649,0.094,42.972
		c0.026,3.207-1.192,4.373-4.351,4.35c-12.758-0.092-25.517-0.029-38.274-0.042c-4.413-0.005-4.911-0.383-4.936-4.742
		c-0.08-14.212-0.055-28.425-0.072-42.64C143.967,98.931,159.813,98.965,175.659,99z M141.292,103.641
		c-2.003-0.037-4.011,0.005-6.008-0.136c-1.802-0.129-2.17,0.699-2.317,2.338c-0.256,2.86,0.592,4.196,3.656,3.738
		c1.528-0.229,3.105-0.138,4.66-0.19c1.662,0.02,3.335-0.071,4.983,0.085c2.421,0.229,3.519-0.354,3.542-3.174
		c0.025-2.976-1.539-2.874-3.534-2.78C144.615,103.6,142.953,103.604,141.292,103.641z M157.599,131.027
		c2.666,0.365,3.123-1.163,3.172-3.405c0.058-2.675-1.546-2.656-3.474-2.729c-2.235-0.085-3.221,0.638-3.193,3.021
		C154.132,130.442,155.235,131.343,157.599,131.027z M168.202,131.006c2.275,0.424,3.288-0.581,3.329-3.079
		c0.038-2.377-0.937-3.122-3.185-3.033c-1.926,0.075-3.537,0.048-3.48,2.728C164.914,129.868,165.375,131.393,168.202,131.006z
		 M157.585,135.72c-2.027-0.205-3.492,0.061-3.479,2.675c0.014,2.346,0.733,3.436,3.24,3.418c2.322-0.016,3.446-0.681,3.437-3.214
		C160.775,136.196,159.759,135.396,157.585,135.72z M168.305,141.707c2.346,0.422,3.177-0.762,3.226-3.166
		c0.051-2.491-1.188-2.924-3.289-2.896c-1.999,0.027-3.423,0.214-3.383,2.8C164.894,140.806,165.634,142.057,168.305,141.707z
		 M157.595,103.588c-2.206-0.45-3.244,0.198-3.248,2.684c-0.004,2.382,0.584,3.329,3.162,3.276c2.331-0.048,3.059-0.771,3.021-3.058
		C160.495,104.322,160.116,102.975,157.595,103.588z M139.085,127.817c0.639-2.292-0.44-2.989-2.808-2.949
		c-2.081,0.034-3.302,0.193-3.216,2.819c0.077,2.295,0.352,3.494,3.095,3.356C138.412,130.93,139.634,130.462,139.085,127.817z
		 M133.186,116.707c-0.084,1.908-0.452,3.766,2.514,3.562c2.068-0.142,3.727,0.018,3.547-2.926c-0.127-2.06-0.21-3.464-2.854-3.211
		C134.566,114.307,132.526,113.832,133.186,116.707z M168.361,114.238c-2.201-0.428-3.265,0.185-3.214,2.698
		c0.045,2.272,0.389,3.427,3.074,3.357c2.345-0.06,3.065-0.8,3.007-3.076C171.175,115.134,170.964,113.624,168.361,114.238z
		 M143.953,127.694c-0.329,2.111-0.016,3.417,2.646,3.343c2.219-0.061,3.216-0.54,3.128-2.971c-0.072-2.026-0.14-3.37-2.798-3.207
		C144.854,124.987,143.318,125.094,143.953,127.694z M168.305,103.594c-2.29-0.509-3.228,0.275-3.152,2.743
		c0.063,2.131,0.366,3.274,2.916,3.194c2.19-0.07,3.264-0.479,3.165-2.957C171.15,104.463,170.931,102.965,168.305,103.594z
		 M143.957,116.987c-0.374,2.156,0.073,3.352,2.676,3.298c2.248-0.047,3.17-0.587,3.097-2.985c-0.063-2.072-0.242-3.316-2.837-3.194
		C144.761,114.205,143.328,114.429,143.957,116.987z M160.365,117.048c0.544-2.431-0.68-2.912-2.9-2.938
		c-2.275-0.026-3.052,0.636-3.079,2.982c-0.027,2.484,0.746,3.211,3.226,3.202C160.126,120.283,160.726,119.245,160.365,117.048z
		 M139.112,138.529c0.595-2.608-0.887-2.837-2.99-2.907c-2.268-0.077-3.07,0.532-3.063,2.935c0.008,2.396,0.83,3.011,3.082,2.955
		C138.299,141.459,139.673,141.078,139.112,138.529z M146.813,135.781c-2.152-0.58-3.112,0.218-2.965,2.662
		c0.109,1.81,0.019,3.244,2.559,3.062c1.891-0.137,3.509,0.056,3.313-2.696C149.58,136.871,149.727,135.097,146.813,135.781z"/>
	<path fill-rule="evenodd" clip-rule="evenodd" fill="#B9D3E7" d="M104.372,18.957c-4.305,1.55-7.766,3.931-8.669,8.823
		c-0.424,2.3-2.254,1.769-3.719,1.771c-19.522,0.025-39.045,0.016-58.567,0.019c-1.673,0-3.347,0.025-5.02,0.039
		c-5.824-0.016-11.653-0.186-17.47,0.012C7.754,29.729,7.65,28.355,8.419,26c1.411-4.324,5.395-7.082,10.692-7.141
		c7.84-0.086,15.68-0.063,23.521-0.087c19.24,0.023,38.48,0.045,57.721,0.075C101.693,18.85,103.033,18.919,104.372,18.957z"/>
	<path fill-rule="evenodd" clip-rule="evenodd" fill="#2F4C61" d="M128.224,97.502c-0.047-5.367-0.087-10.734-0.147-16.101
		c-0.03-2.663,1.328-3.878,3.92-3.878c13.313,0.002,26.627,0.002,39.94,0.002c2.576,0,3.919,1.127,3.857,3.867
		c-0.122,5.365-0.122,10.731-0.172,16.097C159.822,97.494,144.023,97.499,128.224,97.502z M152.092,82.563
		c-3.304-0.676-6.644-0.255-9.965-0.281c-9.254-0.072-9.254-0.025-8.987,9.289c0.003,0.112,0.014,0.225,0.001,0.334
		c-0.206,1.682,0.418,2.391,2.223,2.346c5.562-0.139,11.127-0.138,16.69-0.192c3.469,0.022,6.939,0.059,10.409,0.063
		c9.016,0.009,8.961,0.006,8.61-9.114c-0.073-1.886-0.642-2.528-2.525-2.495C163.063,82.611,157.577,82.557,152.092,82.563z"/>
	<path fill-rule="evenodd" clip-rule="evenodd" fill="#283D54" d="M152.524,160.067c-2.059,0.804-4.218,0.307-6.299,0.318
		c-19.377,0.107-38.755,0.066-58.131,0.05c-0.655,0-1.31-0.189-1.965-0.291c0.078-1.181,0.155-2.361,0.232-3.542
		c16.708,0.034,33.418,0.125,50.126,0.03c2.035-0.013,4.095,1.231,6.118-0.009c1.026,0.279,2.023,4.149,3.087,0.024
		c2.152,0.054,4.306,0.107,6.458,0.162C152.275,157.896,152.399,158.982,152.524,160.067z"/>
	<path fill-rule="evenodd" clip-rule="evenodd" fill="#536981" d="M142.605,156.624c-2.023,1.24-4.083-0.004-6.118,0.009
		c-16.708,0.095-33.418,0.004-50.126-0.03l-0.297,0.041c0.044-0.866,0.088-1.733,0.132-2.599c22.05,0.018,44.101,0.034,66.15,0.052
		c-0.064,0.903-0.129,1.809-0.195,2.714c-2.152-0.055-4.306-0.108-6.458-0.162C144.68,154.648,143.643,155.627,142.605,156.624z"/>
	<path fill-rule="evenodd" clip-rule="evenodd" fill="#FBD25D" d="M64.006,162.458c0.071,3.894-3.047,7.31-6.72,7.361
		c-3.883,0.055-6.923-3.018-6.998-7.071c-0.075-4.04,2.849-7.252,6.708-7.37C60.717,155.265,63.934,158.513,64.006,162.458z
		 M61.996,162.29c0.007-3.349-1.642-5.063-4.836-5.025c-2.843,0.033-5.169,2.262-5.205,4.987c-0.034,2.646,2.563,5.16,5.234,5.065
		C59.766,167.227,61.99,164.9,61.996,162.29z"/>
	<path fill-rule="evenodd" clip-rule="evenodd" fill="#FBD25D" d="M28.386,128.692c3.92,4.609,3.93,7.819,0.038,12.454
		c-2.427-0.506-4.763,1.797-7.341-0.08c-3.236-2.355-4.446-5.672-2.858-9.232c1.516-3.398,4.711-4.762,8.578-3.654
		C27.335,128.333,27.858,128.521,28.386,128.692z M29.458,134.313c-0.074-2.676-2.631-5.227-5.176-5.161
		c-2.37,0.06-5.216,2.97-5.205,5.318c0.013,2.539,2.643,5.063,5.275,5.063C27.002,139.533,29.531,136.949,29.458,134.313z"/>
	<path fill-rule="evenodd" clip-rule="evenodd" fill="#283D54" d="M128.224,97.502c15.8-0.004,31.599-0.009,47.398-0.013
		c0.013,0.502,0.025,1.005,0.038,1.508c-15.847-0.033-31.693-0.067-47.54-0.101C128.155,98.434,128.19,97.968,128.224,97.502z"/>
	<path fill-rule="evenodd" clip-rule="evenodd" fill="#CDE3E8" d="M86.361,156.603c-0.077,1.181-0.154,2.361-0.232,3.542
		c-3.47-0.869-7.305-0.517-10.274-3.064c-0.056-0.048-0.084-0.201-0.05-0.266c0.048-0.088,0.168-0.138,0.257-0.205
		c3.333,0.011,6.667,0.022,10.001,0.034L86.361,156.603z"/>
	<path fill-rule="evenodd" clip-rule="evenodd" fill="#F4F9FC" d="M86.063,156.644c-3.334-0.012-6.667-0.023-10.001-0.034
		c3.158-1.723,6.69-1.965,10.133-2.564C86.152,154.91,86.107,155.777,86.063,156.644z"/>
	<path fill-rule="evenodd" clip-rule="evenodd" fill="#F36F44" d="M152.15,156.811c0.066-0.905,0.131-1.811,0.195-2.714
		c1.831,0.103,2.405,1.357,2.464,2.895c0.06,1.563-0.518,2.8-2.285,3.078C152.399,158.982,152.275,157.896,152.15,156.811z"/>
	<path fill-rule="evenodd" clip-rule="evenodd" fill="#536981" d="M39.303,113.626c-1.388-0.153-1.407-1.149-1.403-2.208
		c0.015-4.36,0.045-8.721-0.015-13.08c-0.021-1.471,0.279-2.258,2.003-2.236c6.036,0.077,12.074,0.082,18.11-0.004
		c1.7-0.024,2.043,0.668,2.018,2.177c-0.074,4.359-0.108,8.721,0.011,13.079c0.052,1.896-0.79,2.231-2.407,2.184
		c-2.23-0.067-4.466,0.054-6.699,0.094C46.61,109.667,43.731,109.665,39.303,113.626z"/>
	<path fill-rule="evenodd" clip-rule="evenodd" fill="#CEE3F3" d="M48.618,124.36c17.788,0.002,35.576,0.005,53.363,0.009
		c0.784,0,1.57-0.046,2.35,0.017c1.051,0.084,2.559-0.229,2.446,1.462c-0.09,1.369-1.444,1.166-2.404,1.173
		c-4.81,0.033-9.621,0.019-14.432,0.02c-15.662,0.001-31.325,0-46.987-0.001c-0.895,0-1.792,0.03-2.684-0.02
		c-0.979-0.054-2.229,0.085-2.217-1.379c0.01-1.227,1.118-1.178,1.997-1.274c0.444-0.049,0.892-0.071,1.338-0.105
		C43.793,124.622,46.19,125.561,48.618,124.36z"/>
	<path fill-rule="evenodd" clip-rule="evenodd" fill="#B9D3E7" d="M52.6,78.743c-0.02,1.448,0.066,2.908-0.088,4.341
		c-0.195,1.804,1.016,4.507-0.908,5.224c-2.976,1.109-6.368,0.706-9.547,0.125c-1.019-0.185-0.888-1.42-0.9-2.296
		c-0.035-2.452-0.034-4.904-0.046-7.355c2.08-0.115,4.159-0.231,6.239-0.346c0.584-0.001,1.167-0.001,1.752-0.001
		C50.268,78.537,51.434,78.64,52.6,78.743z"/>
	<path fill-rule="evenodd" clip-rule="evenodd" fill="#B9D3E7" d="M85.522,103.468c-6.044-0.001-12.089,0.021-18.134-0.021
		c-1.156-0.008-2.929,0.32-2.924-1.369c0.004-1.854,1.854-1.175,2.916-1.18c12.089-0.054,24.179-0.034,36.269-0.032
		c0.56,0,1.121,0.004,1.677,0.054c0.852,0.077,1.587,0.366,1.478,1.404c-0.086,0.825-0.776,1.063-1.469,1.079
		c-2.238,0.052-4.476,0.06-6.714,0.063C94.254,103.476,89.888,103.47,85.522,103.468z"/>
	<path fill-rule="evenodd" clip-rule="evenodd" fill="#536981" d="M52.021,119.622c17.004,0.011,34.009,0.021,51.013,0.03
		c0.783,0.001,1.566-0.014,2.35,0.01c0.765,0.022,1.675-0.114,1.605,1.112c-0.067,1.19-1.003,0.946-1.733,1.015
		c-0.334,0.031-0.671,0.01-1.007,0.01c-17.675-0.009-35.351-0.021-53.027-0.029C51.489,121.054,51.755,120.338,52.021,119.622z"/>
	<path fill-rule="evenodd" clip-rule="evenodd" fill="#B9D3E7" d="M97.003,78.787c-0.007,0.78,0.049,1.567-0.034,2.339
		c-0.231,2.169,1.069,5.134-0.749,6.339c-2.372,1.572-5.619,0.528-8.488,0.496c-1.311-0.014-1.529-1.084-1.54-2.159
		c-0.023-2.339-0.035-4.68-0.052-7.021c2.083-0.114,4.165-0.229,6.247-0.343c0.58-0.002,1.161-0.005,1.74-0.008
		C95.087,78.549,96.045,78.668,97.003,78.787z"/>
	<path fill-rule="evenodd" clip-rule="evenodd" fill="#63C8D3" d="M43.875,77.883c0.013-11.745,0.027-23.49,0.042-35.235
		c0.001-0.783-0.057-1.572,0.017-2.348c0.088-0.912-0.391-2.312,1.111-2.357c1.455-0.043,1.28,1.322,1.285,2.269
		c0.021,4.25-0.022,8.499-0.044,12.749c-0.683,8.303-0.24,16.616-0.241,24.924C45.322,77.884,44.599,77.884,43.875,77.883z"/>
	<path fill-rule="evenodd" clip-rule="evenodd" fill="#F4885F" d="M49.922,77.869c0.004-10.145-0.015-20.289,0.05-30.432
		c0.007-1.038-0.758-2.879,1.177-2.871c1.854,0.007,1.208,1.813,1.214,2.876c0.055,10.144,0.04,20.288,0.044,30.432
		C51.579,77.872,50.75,77.871,49.922,77.869z"/>
	<path fill-rule="evenodd" clip-rule="evenodd" fill="#B9D3E7" d="M85.818,98.146c-6.161-0.001-12.322,0.013-18.482-0.018
		c-0.831-0.004-2.168,0.286-2.224-0.868c-0.075-1.533,1.424-1.095,2.3-1.098c12.321-0.039,24.643-0.034,36.965-0.01
		c0.829,0.002,2.165-0.289,2.223,0.869c0.075,1.535-1.423,1.091-2.3,1.098C98.139,98.168,91.979,98.146,85.818,98.146z"/>
	<path fill-rule="evenodd" clip-rule="evenodd" fill="#B9D3E7" d="M67.401,78.757c-0.159,7.24-0.159,7.24-6.233,7.238
		c-5.151-0.002-5.149-0.002-5.189-5.251c-0.005-0.664-0.032-1.328-0.049-1.991c2.07-0.106,4.139-0.211,6.209-0.317
		c0.584,0.001,1.168,0.001,1.752,0.003C65.062,78.544,66.231,78.65,67.401,78.757z"/>
	<path fill-rule="evenodd" clip-rule="evenodd" fill="#F4885F" d="M64.682,62.582c0.071-3.224,0.1-6.449,0.238-9.668
		c0.042-0.97-0.61-2.523,1.178-2.583c1.877-0.063,1.221,1.536,1.227,2.481c0.051,8.354,0.036,16.708,0.04,25.062
		c-0.848,0.004-1.696,0.008-2.545,0.012C64.774,72.785,64.728,67.684,64.682,62.582z"/>
	<path fill-rule="evenodd" clip-rule="evenodd" fill="#CEE3F3" d="M86.172,77.867c0.007-10.865,0.011-21.73,0.028-32.595
		c0.001-1.004,0.015-2.02,0.166-3.007c0.051-0.332,0.548-0.595,0.841-0.89c0.292,0.295,0.779,0.555,0.839,0.892
		c0.156,0.872,0.162,1.778,0.164,2.671c0.017,10.977,0.023,21.954,0.032,32.931C87.552,77.868,86.862,77.867,86.172,77.867z"/>
	<path fill-rule="evenodd" clip-rule="evenodd" fill="#FBD25D" d="M52.021,119.622c-0.266,0.716-0.532,1.432-0.799,2.147
		c-0.868,0.863-1.737,1.727-2.604,2.591c-2.427,1.2-4.824,0.262-7.23-0.1c-3.804-2.936-3.644-6.647-2.085-10.635
		c4.429-3.961,7.308-3.959,11.618,0.005C51.981,115.501,51.925,117.575,52.021,119.622z M49.904,117.396
		c0.034-3.152-1.599-5.012-4.5-5.121c-3.022-0.114-5.396,2.103-5.498,5.136c-0.088,2.643,2.379,4.924,5.315,4.911
		C48.175,122.308,49.869,120.527,49.904,117.396z"/>
	<path fill-rule="evenodd" clip-rule="evenodd" fill="#B9D3E7" d="M55.292,131.75c-4.918,0-9.837,0.029-14.754-0.027
		c-0.87-0.01-2.367,0.434-2.251-1.131c0.085-1.146,1.401-0.859,2.233-0.862c9.836-0.025,19.672-0.031,29.509,0.01
		c0.875,0.003,2.368-0.409,2.252,1.143c-0.086,1.151-1.404,0.846-2.234,0.852C65.129,131.768,60.21,131.75,55.292,131.75z"/>
	<path fill-rule="evenodd" clip-rule="evenodd" fill="#B9D3E7" d="M82.197,78.771c-0.191,6.221,1.027,5.909-5.896,5.908
		c-5.376,0-5.376,0-5.576-5.941c2.068-0.102,4.136-0.204,6.203-0.305c0.801-0.004,1.602-0.01,2.403-0.014
		C80.287,78.536,81.241,78.654,82.197,78.771z"/>
	<path fill-rule="evenodd" clip-rule="evenodd" fill="#F36F44" d="M94.924,77.865c0.003-9.508-0.011-19.018,0.041-28.525
		c0.005-0.863-0.645-2.343,0.862-2.461c1.894-0.149,1.201,1.543,1.207,2.468c0.057,9.508,0.04,19.017,0.042,28.526
		C96.359,77.87,95.642,77.868,94.924,77.865z"/>
	<path fill-rule="evenodd" clip-rule="evenodd" fill="#63C8D3" d="M88.906,77.883c0.014-7.503,0.006-15.006,0.071-22.508
		c0.008-0.979-0.564-2.626,1.146-2.622c1.609,0.005,1.204,1.607,1.242,2.634c0.108,2.907,0.121,5.816,0.172,8.725
		c0.001,0-0.009,0.269-0.009,0.269c-1.28,4.45-0.348,8.991-0.567,13.485C90.275,77.872,89.591,77.877,88.906,77.883z"/>
	<path fill-rule="evenodd" clip-rule="evenodd" fill="#B9D3E7" d="M75.045,108.196c-2.799,0.002-5.599,0.039-8.396-0.019
		c-0.913-0.019-2.282,0.319-2.233-1.247c0.035-1.142,1.119-1.289,2.024-1.292c5.82-0.021,11.641-0.022,17.461,0.011
		c0.911,0.005,1.946,0.222,1.913,1.404c-0.036,1.303-1.197,1.114-2.04,1.125C80.866,108.218,77.956,108.194,75.045,108.196z"/>
	<path fill-rule="evenodd" clip-rule="evenodd" fill="#CEE3F3" d="M41.142,77.867c0.008-8.176,0.014-16.353,0.025-24.53
		c0.001-0.895,0.013-1.792,0.068-2.685c0.036-0.59,0.291-1.18,0.941-1.18c0.651,0,0.924,0.592,0.938,1.18
		c0.046,2.127,0.063,4.255,0.068,6.383c0.015,6.944,0.02,13.889,0.029,20.833C42.521,77.868,41.832,77.868,41.142,77.867z"/>
	<path fill-rule="evenodd" clip-rule="evenodd" fill="#2F4C61" d="M49.101,78.435c-0.584,0-1.168,0-1.752,0.001
		c0.028-0.226-0.049-0.404-0.231-0.54c-0.01-8.263-0.021-16.525-0.031-24.788c2.568-1.214,2.142,0.711,2.147,2.087
		c0.028,7.579,0.031,15.157,0.042,22.735C49.101,78.058,49.042,78.226,49.101,78.435z"/>
	<path fill-rule="evenodd" clip-rule="evenodd" fill="#2F4C61" d="M79.332,78.418c-0.801,0.004-1.602,0.01-2.403,0.014
		c0.083-0.19,0.038-0.343-0.136-0.458c0.023-6.9,0.029-13.801,0.09-20.701c0.007-0.864-0.553-2.222,1.123-2.232
		c1.633-0.01,1.146,1.313,1.207,2.214c0.104,1.549,0.133,3.103,0.192,4.654c-0.168,0.138-0.257,0.316-0.267,0.534
		c-0.562,4.985-0.562,9.97,0,14.955c0.091,0.232,0.183,0.465,0.274,0.698l-0.163,0.131L79.332,78.418z"/>
	<path fill-rule="evenodd" clip-rule="evenodd" fill="#63C8D3" d="M58.741,77.898c0.031-5.373,0.036-10.745,0.117-16.117
		c0.015-0.996-0.415-2.588,1.364-2.456c1.45,0.109,1.016,1.532,1.026,2.441c0.063,5.373,0.058,10.746,0.076,16.12
		C60.463,77.89,59.602,77.894,58.741,77.898z"/>
	<path fill-rule="evenodd" clip-rule="evenodd" fill="#B9D3E7" d="M39.362,48.037c0.969,4.427,0.355,8.912,0.445,13.368
		c0.112,5.48,0.025,10.964,0.024,16.446c-0.224,0.254-0.448,0.509-0.673,0.765c-0.824-0.63-0.764-1.548-0.758-2.428
		c0.07-9.308,0.152-18.615,0.23-27.922C38.875,48.189,39.119,48.113,39.362,48.037z"/>
	<path fill-rule="evenodd" clip-rule="evenodd" fill="#B9D3E7" d="M47.087,53.108c0.01,8.263,0.021,16.525,0.031,24.789
		c-0.358-0.004-0.715-0.008-1.073-0.012c0.001-8.309-0.442-16.622,0.241-24.924C46.554,53.009,46.82,53.059,47.087,53.108z"/>
	<path fill-rule="evenodd" clip-rule="evenodd" fill="#F36F44" d="M80.188,61.988c1.661-0.299,2.029,0.523,2.007,2.032
		c-0.069,4.616-0.02,9.234-0.017,13.851c-0.712,0.015-1.424,0.03-2.137,0.045C80.089,72.607,80.138,67.298,80.188,61.988z"/>
	<path fill-rule="evenodd" clip-rule="evenodd" fill="#CEE3F3" d="M70.731,77.89c0.012-2.238-0.012-4.477,0.049-6.714
		c0.029-1.066-0.396-2.452,0.917-2.98c1.507-0.605,1.646,1.144,2.455,1.767c-0.044,2.641-0.088,5.28-0.132,7.921
		C72.924,77.885,71.828,77.888,70.731,77.89z"/>
	<path fill-rule="evenodd" clip-rule="evenodd" fill="#2F4C61" d="M63.891,78.438c-0.584-0.001-1.168-0.002-1.752-0.003
		c0.057-0.209-0.001-0.378-0.176-0.508c0.012-4.414,0.07-8.83,0.008-13.244c-0.021-1.467,0.215-2.4,1.953-2.063
		c0.065,5.092,0.132,10.184,0.198,15.277C63.946,78.035,63.869,78.215,63.891,78.438z"/>
	<path fill-rule="evenodd" clip-rule="evenodd" fill="#2F4C61" d="M94.127,78.431c-0.58,0.003-1.16,0.005-1.74,0.008
		c-0.027-4.823-0.056-9.645-0.083-14.469c1.882-0.49,1.915,0.66,1.906,2.03c-0.025,3.991,0.028,7.983,0.05,11.974
		C94.075,78.086,94.031,78.238,94.127,78.431z"/>
	<path fill-rule="evenodd" clip-rule="evenodd" fill="#758195" d="M92.304,63.97c0.027,4.824,0.056,9.646,0.083,14.469
		c-2.082,0.114-4.164,0.229-6.247,0.343c-1.315-0.004-2.629-0.007-3.944-0.011c-0.956-0.118-1.91-0.236-2.865-0.353l-0.082-0.192
		l0.163-0.131c0.189-0.128,0.398-0.188,0.627-0.179c0.713-0.015,1.425-0.03,2.137-0.045c1.332,0,2.663-0.002,3.995-0.003
		c0.69,0,1.38,0.001,2.07,0.001c0.219,0.077,0.44,0.082,0.664,0.015c0.686-0.006,1.37-0.011,2.055-0.017
		c1.372-4.445,0.381-8.99,0.567-13.485c0,0,0.01-0.269,0.009-0.269C91.792,64.065,92.048,64.018,92.304,63.97z"/>
	<path fill-rule="evenodd" clip-rule="evenodd" fill="#758195" d="M39.362,48.037c-0.244,0.076-0.488,0.152-0.731,0.229
		c0-3.936,0-7.871,0-11.806c0.244-0.009,0.488-0.018,0.731-0.027C39.362,40.301,39.362,44.169,39.362,48.037z"/>
	<path fill-rule="evenodd" clip-rule="evenodd" fill="#63C8D3" d="M74.021,77.883c0.044-2.641,0.088-5.28,0.132-7.921
		c1.666-0.276,2.037,0.626,2,2.066c-0.05,1.948,0.013,3.9,0.028,5.851C75.46,77.88,74.74,77.882,74.021,77.883z"/>
	<path fill-rule="evenodd" clip-rule="evenodd" fill="#CEE3F3" d="M55.938,77.878c0.024-2.085,0.022-4.17,0.088-6.254
		c0.021-0.648,0.174-1.398,1.09-1.281c0.67,0.086,0.789,0.722,0.802,1.264c0.054,2.084,0.062,4.169,0.086,6.254
		C57.314,77.867,56.626,77.872,55.938,77.878z"/>
	<path fill-rule="evenodd" clip-rule="evenodd" fill="#CDE3E8" d="M80.04,77.916c-0.229-0.009-0.438,0.051-0.627,0.179
		c-0.091-0.232-0.183-0.466-0.274-0.698c0.538-4.986,0.539-9.97,0-14.955c0.01-0.218,0.099-0.396,0.267-0.534
		c0.262,0.026,0.523,0.052,0.784,0.078C80.138,67.298,80.089,72.607,80.04,77.916z"/>
	<path fill-rule="evenodd" clip-rule="evenodd" fill="#F4885F" d="M105.02,74.713c1.092,0.13,1.862,0.495,1.993,1.531
		c0.155,1.225-0.505,1.859-1.687,1.879c-1.003,0.018-1.652-0.459-1.684-1.562C103.612,75.494,104.293,75.043,105.02,74.713z"/>
	<path fill-rule="evenodd" clip-rule="evenodd" fill="#B9D3E7" d="M64.122,77.897c-0.066-5.093-0.133-10.185-0.198-15.277
		c0.253-0.013,0.505-0.026,0.758-0.039c0.045,5.102,0.092,10.203,0.137,15.305C64.586,77.89,64.354,77.893,64.122,77.897z"/>
	<path fill-rule="evenodd" clip-rule="evenodd" fill="#63C8D3" d="M106.987,58.001c-0.116,1.018-0.682,1.673-1.7,1.621
		c-1.002-0.05-1.586-0.717-1.54-1.76c0.041-0.926,0.65-1.37,1.514-1.401C106.29,56.422,106.915,56.923,106.987,58.001z"/>
	<path fill-rule="evenodd" clip-rule="evenodd" fill="#2F4C61" d="M105.265,50.425c-1.053-0.101-1.597-0.697-1.577-1.761
		c0.021-1.104,0.654-1.614,1.724-1.583c1.101,0.031,1.625,0.676,1.602,1.726C106.988,49.892,106.341,50.397,105.265,50.425z"/>
	<path fill-rule="evenodd" clip-rule="evenodd" fill="#758195" d="M55.938,77.878c0.688-0.006,1.377-0.011,2.066-0.017
		c0.245,0.012,0.49,0.025,0.736,0.038c0.863-0.005,1.724-0.009,2.584-0.014c0.209,0.06,0.422,0.074,0.639,0.042
		c0.175,0.13,0.233,0.299,0.176,0.508c-2.07,0.106-4.139,0.211-6.209,0.317c-1.109-0.004-2.219-0.007-3.329-0.01
		c-1.167-0.103-2.333-0.206-3.5-0.308c-0.059-0.208,0-0.377,0.175-0.504c0.219,0.027,0.435,0.007,0.645-0.062
		c0.829,0.002,1.657,0.003,2.486,0.005C53.583,77.875,54.761,77.876,55.938,77.878z"/>
	<path fill-rule="evenodd" clip-rule="evenodd" fill="#758195" d="M64.122,77.897c0.232-0.004,0.464-0.007,0.697-0.011
		c0.849-0.004,1.697-0.008,2.545-0.012c1.122,0.005,2.244,0.01,3.367,0.016c1.097-0.002,2.193-0.004,3.29-0.006
		c0.72-0.001,1.44-0.003,2.16-0.004c0.201,0.049,0.405,0.081,0.612,0.095c0.173,0.115,0.218,0.268,0.136,0.458
		c-2.067,0.102-4.135,0.203-6.203,0.305c-1.107,0.007-2.216,0.013-3.324,0.019c-1.17-0.106-2.34-0.212-3.511-0.319
		C63.869,78.215,63.946,78.035,64.122,77.897z"/>
	<path fill-rule="evenodd" clip-rule="evenodd" fill="#CEE3F3" d="M103.896,67.415c0.146-0.919,0.68-1.396,1.574-1.334
		c0.731,0.051,1.268,0.465,1.185,1.265c-0.081,0.776-0.707,1.083-1.399,1.123C104.537,68.511,103.978,68.23,103.896,67.415z"/>
	<path fill-rule="evenodd" clip-rule="evenodd" fill="#758195" d="M46.045,77.885c0.357,0.004,0.715,0.008,1.073,0.012
		c0.182,0.135,0.259,0.313,0.231,0.539c-2.08,0.115-4.159,0.231-6.239,0.346c-0.65-0.056-1.3-0.111-1.951-0.167
		c0.224-0.255,0.448-0.51,0.672-0.765c0.436,0.005,0.873,0.011,1.31,0.016c0.69,0.001,1.379,0.001,2.069,0.001
		c0.219,0.077,0.44,0.082,0.664,0.015C44.599,77.884,45.322,77.884,46.045,77.885z"/>
	<path fill-rule="evenodd" clip-rule="evenodd" fill="#758195" d="M94.127,78.431c-0.097-0.193-0.053-0.345,0.132-0.458
		c0.222-0.036,0.443-0.072,0.665-0.108c0.717,0.003,1.435,0.005,2.152,0.007c0.896,0.264,1.923-0.187,2.934,0.614
		c-1.119,0.112-2.063,0.206-3.006,0.301C96.045,78.668,95.087,78.549,94.127,78.431z"/>
	<path fill-rule="evenodd" clip-rule="evenodd" fill="#FFC743" d="M141.292,103.641c1.661-0.037,3.323-0.041,4.982-0.119
		c1.995-0.094,3.56-0.195,3.534,2.78c-0.023,2.82-1.121,3.403-3.542,3.174c-1.648-0.156-3.321-0.065-4.983-0.085
		C141.287,107.474,141.29,105.558,141.292,103.641z"/>
	<path fill-rule="evenodd" clip-rule="evenodd" fill="#FBD25D" d="M141.292,103.641c-0.002,1.917-0.005,3.833-0.009,5.75
		c-1.555,0.053-3.132-0.038-4.66,0.19c-3.064,0.458-3.912-0.878-3.656-3.738c0.147-1.639,0.516-2.467,2.317-2.338
		C137.281,103.646,139.289,103.604,141.292,103.641z"/>
	<path fill-rule="evenodd" clip-rule="evenodd" fill="#283D54" d="M157.599,131.027c-2.363,0.315-3.467-0.585-3.495-3.112
		c-0.027-2.384,0.958-3.106,3.193-3.021c1.928,0.072,3.531,0.054,3.474,2.729C160.722,129.864,160.265,131.393,157.599,131.027z"/>
	<path fill-rule="evenodd" clip-rule="evenodd" fill="#283D54" d="M168.202,131.006c-2.827,0.387-3.288-1.138-3.336-3.385
		c-0.057-2.68,1.555-2.652,3.48-2.728c2.248-0.089,3.223,0.656,3.185,3.033C171.49,130.425,170.478,131.43,168.202,131.006z"/>
	<path fill-rule="evenodd" clip-rule="evenodd" fill="#283D54" d="M157.585,135.72c2.174-0.323,3.19,0.477,3.198,2.879
		c0.01,2.533-1.114,3.198-3.437,3.214c-2.507,0.018-3.227-1.072-3.24-3.418C154.093,135.78,155.558,135.515,157.585,135.72z"/>
	<path fill-rule="evenodd" clip-rule="evenodd" fill="#283D54" d="M168.305,141.707c-2.671,0.35-3.411-0.901-3.446-3.262
		c-0.04-2.586,1.384-2.772,3.383-2.8c2.102-0.028,3.34,0.404,3.289,2.896C171.481,140.945,170.65,142.129,168.305,141.707z"/>
	<path fill-rule="evenodd" clip-rule="evenodd" fill="#F36F44" d="M157.595,103.588c2.521-0.613,2.9,0.734,2.935,2.902
		c0.038,2.287-0.689,3.01-3.021,3.058c-2.578,0.053-3.166-0.895-3.162-3.276C154.351,103.786,155.389,103.138,157.595,103.588z"/>
	<path fill-rule="evenodd" clip-rule="evenodd" fill="#F4F9FC" d="M139.085,127.817c0.549,2.645-0.673,3.112-2.929,3.227
		c-2.743,0.138-3.018-1.062-3.095-3.356c-0.086-2.626,1.135-2.785,3.216-2.819C138.645,124.828,139.724,125.525,139.085,127.817z"/>
	<path fill-rule="evenodd" clip-rule="evenodd" fill="#F4F9FC" d="M133.186,116.707c-0.659-2.875,1.381-2.4,3.207-2.575
		c2.644-0.253,2.727,1.151,2.854,3.211c0.18,2.943-1.479,2.784-3.547,2.926C132.733,120.473,133.102,118.615,133.186,116.707z"/>
	<path fill-rule="evenodd" clip-rule="evenodd" fill="#F4F9FC" d="M168.361,114.238c2.603-0.614,2.813,0.896,2.867,2.979
		c0.059,2.276-0.662,3.017-3.007,3.076c-2.686,0.069-3.029-1.085-3.074-3.357C165.097,114.423,166.16,113.811,168.361,114.238z"/>
	<path fill-rule="evenodd" clip-rule="evenodd" fill="#F4F9FC" d="M143.953,127.694c-0.635-2.601,0.9-2.707,2.976-2.835
		c2.658-0.163,2.726,1.181,2.798,3.207c0.088,2.431-0.909,2.91-3.128,2.971C143.938,131.111,143.624,129.806,143.953,127.694z"/>
	<path fill-rule="evenodd" clip-rule="evenodd" fill="#F4F9FC" d="M168.305,103.594c2.626-0.629,2.846,0.869,2.929,2.98
		c0.099,2.479-0.975,2.887-3.165,2.957c-2.55,0.08-2.853-1.063-2.916-3.194C165.077,103.869,166.015,103.085,168.305,103.594z"/>
	<path fill-rule="evenodd" clip-rule="evenodd" fill="#F4F9FC" d="M143.957,116.987c-0.629-2.559,0.804-2.782,2.936-2.882
		c2.595-0.122,2.774,1.122,2.837,3.194c0.073,2.398-0.849,2.938-3.097,2.985C144.03,120.339,143.583,119.144,143.957,116.987z"/>
	<path fill-rule="evenodd" clip-rule="evenodd" fill="#F4F9FC" d="M160.365,117.048c0.36,2.197-0.239,3.235-2.754,3.246
		c-2.479,0.009-3.253-0.718-3.226-3.202c0.027-2.347,0.804-3.009,3.079-2.982C159.686,114.136,160.909,114.617,160.365,117.048z"/>
	<path fill-rule="evenodd" clip-rule="evenodd" fill="#F4F9FC" d="M139.112,138.529c0.561,2.549-0.813,2.93-2.972,2.982
		c-2.252,0.056-3.074-0.559-3.082-2.955c-0.007-2.402,0.796-3.012,3.063-2.935C138.226,135.692,139.707,135.921,139.112,138.529z"/>
	<path fill-rule="evenodd" clip-rule="evenodd" fill="#F4F9FC" d="M146.813,135.781c2.914-0.685,2.768,1.09,2.906,3.027
		c0.196,2.752-1.422,2.56-3.313,2.696c-2.54,0.183-2.449-1.252-2.559-3.062C143.7,135.999,144.66,135.201,146.813,135.781z"/>
	<path fill-rule="evenodd" clip-rule="evenodd" fill="#96D5EA" d="M152.054,94.059c-5.563,0.054-11.129,0.053-16.69,0.192
		c-1.805,0.045-2.429-0.664-2.223-2.346c0.013-0.109,0.002-0.223-0.001-0.334c-0.267-9.314-0.267-9.361,8.987-9.289
		c3.321,0.026,6.661-0.396,9.966,0.282C152.08,86.396,152.066,90.227,152.054,94.059z"/>
	<path fill-rule="evenodd" clip-rule="evenodd" fill="#63C8D3" d="M152.054,94.059c0.013-3.832,0.026-7.664,0.039-11.496
		c5.484-0.006,10.971,0.047,16.455-0.05c1.884-0.034,2.452,0.608,2.525,2.495c0.351,9.12,0.405,9.123-8.61,9.114
		C158.993,94.118,155.522,94.081,152.054,94.059z"/>
	<path fill-rule="evenodd" clip-rule="evenodd" fill="#B9D3E7" d="M142.605,156.624c1.037-0.997,2.074-1.976,3.087,0.024
		C144.629,160.773,143.632,156.903,142.605,156.624z"/>
	<path fill-rule="evenodd" clip-rule="evenodd" fill="#FFC743" d="M61.996,162.29c-0.006,2.61-2.23,4.937-4.807,5.027
		c-2.671,0.095-5.269-2.419-5.234-5.065c0.036-2.726,2.361-4.954,5.205-4.987C60.354,157.227,62.003,158.941,61.996,162.29z"/>
	<path fill-rule="evenodd" clip-rule="evenodd" fill="#FFC743" d="M29.458,134.313c0.073,2.636-2.456,5.22-5.105,5.22
		c-2.632,0-5.263-2.523-5.275-5.063c-0.012-2.349,2.834-5.259,5.205-5.318C26.827,129.087,29.384,131.638,29.458,134.313z"/>
	<path fill-rule="evenodd" clip-rule="evenodd" fill="#FFC743" d="M49.904,117.396c-0.035,3.132-1.729,4.912-4.682,4.926
		c-2.936,0.013-5.403-2.269-5.315-4.911c0.101-3.033,2.475-5.25,5.498-5.136C48.305,112.384,49.938,114.243,49.904,117.396z"/>
	<path fill-rule="evenodd" clip-rule="evenodd" fill="#96D5EA" d="M91.528,64.381c-0.187,4.496,0.805,9.04-0.567,13.485
		C91.18,73.372,90.248,68.831,91.528,64.381z"/>
	<path fill-rule="evenodd" clip-rule="evenodd" fill="#758195" d="M79.138,62.442c0.539,4.985,0.538,9.969,0,14.955
		C78.576,72.413,78.576,67.428,79.138,62.442z"/>
</g>
</svg>
