<?xml version="1.0" encoding="utf-8"?>
<!-- Generator: Adobe Illustrator 16.0.0, SVG Export Plug-In . SVG Version: 6.00 Build 0)  -->
<!DOCTYPE svg PUBLIC "-//W3C//DTD SVG 1.1//EN" "http://www.w3.org/Graphics/SVG/1.1/DTD/svg11.dtd">
<svg version="1.1" id="Layer_1" xmlns="http://www.w3.org/2000/svg" xmlns:xlink="http://www.w3.org/1999/xlink" x="0px" y="0px"
	 width="178px" height="50px" viewBox="0 0 178 50" enable-background="new 0 0 178 50" xml:space="preserve">
<g>

		<image overflow="visible" opacity="0.45" width="87" height="30" xlink:href="2C1295FF.png"  transform="matrix(1 0 0 1 -0.5 12.5)">
	</image>
	<g>
		<path fill="#FFFFFF" d="M80.807,36.814c-3.573-2.281-6.316-5.345-8.923-8.609c-1.225,1.295-1.27,2.867-1.751,4.318
			c-0.107-0.41-0.215-0.822-0.321-1.234c-0.107-0.418-0.207-0.838-0.318-1.256c-0.287-1.07-0.558-2.148-0.875-3.211
			c-0.396-1.329-1.331-2.083-2.708-1.942c-1.516,0.154-2.426-0.487-3.181-1.711c-0.656-1.064-1.439-2.057-2.237-3.022
			c-0.809-0.98-1.551-0.811-1.957,0.391c-0.41,1.214-1.235,2.122-2.15,2.964c-0.863,0.794-1.74,1.575-2.611,2.359
			c-0.319,0.287-0.424,0.632-0.488,1.068c-0.087,0.592-0.408,1.146-0.578,1.73c-0.108,0.377-0.249,0.813-0.157,1.164
			c0.194,0.75,0.51,1.471,0.815,2.188c0.234,0.547,0.539,1.064,0.789,1.605c0.053,0.115,0.003,0.279,0,0.422
			c-0.129-0.053-0.313-0.068-0.381-0.164c-0.714-1.006-1.464-1.992-2.094-3.051c-0.548-0.922-1.257-1.611-2.19-2.104
			c-0.509-0.268-1.032-0.52-1.508-0.84c-0.473-0.317-0.88-0.266-1.298,0.058c-0.881,0.676-1.76,1.354-2.644,2.028
			c-0.125,0.097-0.27,0.218-0.413,0.229c-1.041,0.076-1.782,0.678-2.492,1.354c-0.431,0.412-0.872,0.816-1.334,1.191
			c-0.245,0.2-0.544,0.336-0.858,0.45c0.972-1.711,2.092-3.268,3.724-4.422c1.003-0.711,1.983-1.477,2.86-2.334
			c0.96-0.938,1.94-1.211,3.178-0.652c0.712,0.32,1.463,0.583,2.264,0.261c0.423-0.171,0.618-0.362,0.489-0.921
			c-0.304-1.311-0.872-2.387-1.983-3.203c-0.534-0.392-1.012-0.787-1.685-0.945c-1.272-0.299-2.055-1.131-2.383-2.406
			c-0.474-1.846-1.696-3.063-3.366-3.868c-0.146-0.07-0.468,0.007-0.586,0.132c-0.932,0.984-1.797,2.033-2.754,2.99
			c-1.205,1.205-2.294,2.469-2.919,4.084c-0.131,0.338-0.373,0.636-0.58,0.942c-0.795,1.172-1.575,2.356-2.405,3.502
			c-0.575,0.795-1.164,1.597-1.855,2.285c-0.67,0.668-1.583,0.92-2.654,0.988c1.974-2.393,4.31-4.469,4.749-7.836
			c-0.467,0.354-0.849,0.622-1.207,0.92c-2.904,2.42-5.522,5.094-7.78,8.15c-1.166,1.578-2.7,2.883-4.067,4.313
			c-0.061-0.047-0.121-0.096-0.181-0.143c0.065-0.188,0.124-0.377,0.198-0.562c0.533-1.313,1.086-2.62,1.6-3.942
			c0.315-0.812,0.158-1.31-0.571-1.648c-0.875-0.408-1.497-1.068-2.08-1.795c-1.287-1.604-1.613-1.578-3.221-0.305
			c-3.014,2.387-6.078,4.713-9.139,7.039c-1.583,1.205-3.495,1.717-5.317,2.41c-0.096,0.037-0.236-0.043-0.355-0.068
			c0.037-0.117,0.038-0.277,0.117-0.348c1.736-1.541,3.352-3.265,5.254-4.568c3.456-2.369,7.074-4.5,10.651-6.688
			c0.338-0.207,0.9-0.227,1.298-0.117c0.723,0.201,1.423,0.523,2.092,0.872c0.618,0.321,1.18,0.75,1.774,1.119
			c1.055,0.654,1.819,0.578,2.734-0.268c0.272-0.252,0.542-0.508,0.798-0.773c2.296-2.391,4.923-4.302,8.02-5.521
			c1.402-0.552,2.544-1.397,3.578-2.512c1.041-1.123,2.282-2.066,3.479-3.035c1.329-1.076,2.291-0.31,3.35,0.794
			c0.169,0.176,0.273,0.424,0.46,0.573c1.213,0.962,2.048,2.238,2.958,3.459c0.497,0.667,1.111,1.251,1.707,1.837
			c0.792,0.777,1.618,1.518,2.428,2.275c0.181,0.168,0.347,0.354,0.539,0.508c0.576,0.463,1.009,0.477,1.537-0.021
			c1.505-1.42,3.005-2.846,4.477-4.301c0.71-0.702,1.5-0.861,2.31-0.208c1.071,0.863,2.118,1.769,3.083,2.748
			c1.062,1.077,2.213,1.858,3.762,2.035c1.077,0.123,1.896,0.717,2.431,1.702c0.141,0.261,0.441,0.488,0.721,0.604
			c0.529,0.219,1.086,0.41,1.649,0.494c0.962,0.145,1.626,0.656,2.227,1.391c2.067,2.537,4.185,5.033,6.26,7.564
			C80.823,36.039,81.384,36.35,80.807,36.814z"/>
	</g>
</g>
<g>

		<image overflow="visible" opacity="0.45" width="18" height="27" xlink:href="2C1295F4.png"  transform="matrix(1 0 0 1 164.5 9.5)">
	</image>
	<g>
		<path fill="#FFFFFF" d="M167.688,22.904c0,1.66,0,3.157,0,4.653c0,0.926-0.008,1.853,0.002,2.777
			c0.006,0.557-0.278,0.766-0.808,0.764c-0.524-0.002-0.797-0.192-0.796-0.764c0.01-6.194,0.007-12.387,0.002-18.581
			c0-0.402,0.109-0.746,0.555-0.727c1.658,0.072,3.355-0.009,4.965,0.325c3.447,0.715,4.634,3.374,4.31,6.398
			c-0.304,2.833-2.002,4.623-4.871,5.354c-0.231,0.059-0.463,0.118-0.776,0.197c0.566,0.629,1.084,1.207,1.605,1.782
			c1.439,1.582,2.886,3.16,4.316,4.75c0.266,0.295,0.762,0.568,0.33,1.076c-0.24,0.285-1.17,0.266-1.502-0.016
			c-0.142-0.119-0.261-0.267-0.386-0.402c-2.133-2.342-4.266-4.686-6.399-7.028C168.098,23.312,167.951,23.172,167.688,22.904z
			 M167.73,12.55c0,3.22,0,6.296,0,9.417c0.916-0.118,1.807-0.161,2.662-0.356c2.058-0.471,3.551-1.571,3.938-3.805
			c0.445-2.572-0.889-4.602-3.414-5.029C169.895,12.604,168.837,12.623,167.73,12.55z"/>
	</g>
</g>
<g>

		<image overflow="visible" opacity="0.45" width="21" height="27" xlink:href="2C1295F5.png"  transform="matrix(1 0 0 1 98.5 9.5)">
	</image>
	<g>
		<path fill="#FFFFFF" d="M113.857,18.511c0,2.018,0.006,4.035-0.002,6.053c-0.015,3.668-2.668,6.521-6.315,6.795
			c-3.36,0.255-6.451-2.272-7.009-5.746c-0.057-0.343-0.057-0.698-0.057-1.047c-0.004-4.221-0.004-8.441-0.002-12.662
			c0-0.769,0.207-0.949,0.951-0.895c0.401,0.029,0.6,0.233,0.626,0.619c0.013,0.185,0.007,0.371,0.007,0.556
			c0,4.118-0.015,8.235,0.006,12.353c0.015,2.859,2.18,5.132,4.936,5.236c2.938,0.11,5.248-2.14,5.262-5.17
			c0.02-4.117,0.006-8.235,0.006-12.353c0-0.165,0.002-0.329,0.002-0.494c-0.002-0.554,0.291-0.751,0.821-0.751
			c0.546,0,0.778,0.217,0.774,0.775C113.85,14.023,113.857,16.267,113.857,18.511z"/>
	</g>
</g>
<g>

		<image overflow="visible" opacity="0.45" width="16" height="27" xlink:href="2C1295F6.png"  transform="matrix(1 0 0 1 150.5 9.5)">
	</image>
	<g>
		<path fill="#FFFFFF" d="M153.859,12.589c0,2.319,0,4.536,0,6.832c0.244,0,0.465,0,0.684,0c1.977,0,3.951-0.003,5.928,0.002
			c0.7,0.001,0.838,0.161,0.854,0.822c0.015,0.597-0.272,0.786-0.836,0.781c-1.977-0.017-3.951-0.007-5.928-0.007
			c-0.221,0-0.44,0-0.693,0c0,2.842,0,5.611,0,8.458c0.225,0.012,0.439,0.03,0.656,0.03c1.976,0.002,3.951,0,5.927,0.002
			c0.731,0.002,0.87,0.136,0.87,0.789c-0.002,0.65-0.147,0.791-0.877,0.793c-2.448,0.004-4.897,0.004-7.348,0
			c-0.729-0.002-0.854-0.133-0.854-0.875c-0.002-6.113-0.002-12.225,0-18.336c0-0.754,0.109-0.867,0.852-0.868
			c2.471-0.003,4.939-0.003,7.409,0c0.669,0.001,0.797,0.152,0.821,0.783c0.023,0.598-0.266,0.8-0.823,0.797
			c-1.976-0.01-3.95-0.004-5.926-0.004C154.354,12.589,154.132,12.589,153.859,12.589z"/>
	</g>
</g>
<g>

		<image overflow="visible" opacity="0.45" width="17" height="27" xlink:href="2C1295F7.png"  transform="matrix(1 0 0 1 117.5 9.5)">
	</image>
	<g>
		<path fill="#FFFFFF" d="M120.771,23.534c0,2.293-0.008,4.532,0.008,6.772c0.004,0.553-0.225,0.793-0.77,0.788
			c-0.619-0.006-0.828-0.174-0.828-0.797c-0.004-6.172-0.002-12.344-0.004-18.517c0-0.42,0.125-0.755,0.604-0.764
			c1.873-0.035,3.748-0.039,5.566,0.513c2.344,0.712,3.557,2.363,3.704,4.813c0.273,4.524-2.671,6.562-6.243,7.014
			C122.161,23.442,121.506,23.473,120.771,23.534z M120.838,22.01c0.895-0.097,1.715-0.131,2.516-0.285
			c2.416-0.464,3.871-1.803,4.139-3.957c0.318-2.57-0.504-4.423-3.303-4.934c-0.905-0.165-1.834-0.2-2.75-0.313
			c-0.521-0.064-0.656,0.146-0.652,0.654c0.021,2.715,0.01,5.43,0.013,8.145C120.799,21.501,120.818,21.682,120.838,22.01z"/>
	</g>
</g>
<g>

		<image overflow="visible" opacity="0.45" width="18" height="27" xlink:href="2C129607.png"  transform="matrix(1 0 0 1 136.5 9.5)">
	</image>
	<g>
		<path fill="#FFFFFF" d="M144.193,12.589c0,0.349,0,0.613,0,0.876c0,5.557,0,11.113,0,16.67c0,0.445,0.017,0.891-0.602,0.955
			c-0.721,0.078-0.969-0.135-0.969-0.887c-0.002-5.597-0.001-11.195-0.001-16.792c0-0.243,0-0.486,0-0.821c-0.983,0-1.922,0-2.86,0
			c-0.369,0-0.74,0.004-1.111-0.001c-0.739-0.009-0.894-0.189-0.867-0.928c0.016-0.437,0.219-0.647,0.645-0.647
			c3.313-0.002,6.627-0.002,9.939,0c0.549,0,0.679,0.338,0.679,0.817c-0.001,0.52-0.244,0.758-0.749,0.758
			C146.962,12.589,145.627,12.589,144.193,12.589z"/>
	</g>
</g>
<g>

		<image overflow="visible" opacity="0.45" width="14" height="28" xlink:href="2C12960B.png"  transform="matrix(1 0 0 1 86.5 9.5)">
	</image>
	<g>
		<path fill="#FFFFFF" d="M93.703,12.589c-1.444,0-2.821,0.005-4.199-0.002c-0.687-0.003-0.92-0.284-0.848-0.964
			c0.041-0.388,0.24-0.608,0.635-0.608c1.813-0.004,3.622-0.005,5.434,0c0.484,0.002,0.613,0.308,0.61,0.741
			c-0.009,1.44-0.003,2.881-0.003,4.322c0,2.901-0.08,5.806,0.021,8.704c0.125,3.61-2.994,6.351-6.078,6.739
			c-0.225,0.029-0.45,0.058-0.675,0.074c-0.798,0.063-1.009-0.154-0.974-0.932c0.022-0.488,0.293-0.619,0.725-0.635
			c1.48-0.051,2.757-0.615,3.846-1.6c0.956-0.865,1.536-1.938,1.54-3.249c0.014-4.075,0.006-8.149,0.005-12.225
			C93.743,12.859,93.723,12.76,93.703,12.589z"/>
	</g>
</g>
<g>

		<image overflow="visible" opacity="0.45" width="9" height="27" xlink:href="2C12960E.png"  transform="matrix(1 0 0 1 131.5 9.5)">
	</image>
	<g>
		<path fill="#FFFFFF" d="M134.586,21.079c0,3.045,0.001,6.091-0.002,9.136c0,0.736-0.279,1.008-0.98,0.85
			c-0.229-0.051-0.41-0.36-0.586-0.575c-0.051-0.062-0.011-0.199-0.011-0.302c-0.001-6.091,0.001-12.184-0.003-18.274
			c0-0.47,0.043-0.872,0.653-0.904c0.72-0.038,0.927,0.137,0.927,0.871C134.587,14.946,134.586,18.012,134.586,21.079z"/>
	</g>
</g>
<g>

		<image overflow="visible" opacity="0.45" width="12" height="12" xlink:href="2C12960F.png"  transform="matrix(1 0 0 1 131.5 33.5)">
	</image>
	<g>
		<path fill="#FFFFFF" d="M135.613,38.303c0.57-1.086,1.066-2.053,1.595-3.002c0.103-0.186,0.334-0.301,0.507-0.447
			c0.1,0.222,0.276,0.439,0.282,0.662c0.028,1.129,0.013,2.26,0.015,3.39c0,0.307-0.037,0.647-0.427,0.581
			c-0.157-0.024-0.353-0.354-0.373-0.563c-0.053-0.527-0.019-1.063-0.149-1.654c-0.217,0.414-0.412,0.845-0.662,1.24
			c-0.238,0.381-0.533,0.727-0.803,1.088c-0.265-0.369-0.547-0.729-0.785-1.115c-0.244-0.391-0.443-0.809-0.806-1.186
			c0,0.563,0.03,1.129-0.018,1.688c-0.017,0.187-0.229,0.354-0.354,0.529c-0.137-0.184-0.388-0.363-0.393-0.551
			c-0.036-1.191-0.027-2.383-0.01-3.574c0.004-0.176,0.14-0.35,0.213-0.522c0.173,0.11,0.416,0.182,0.505,0.34
			C134.502,36.184,135.018,37.184,135.613,38.303z"/>
	</g>
</g>
<g>

		<image overflow="visible" opacity="0.45" width="10" height="12" xlink:href="5EAFAD7C.png"  transform="matrix(1 0 0 1 117.5 33.5)">
	</image>
	<g>
		<path fill="#FFFFFF" d="M119.352,36.736c0,0.719,0,1.436,0,2.154c-0.002,0.299-0.019,0.659-0.41,0.594
			c-0.164-0.029-0.375-0.396-0.381-0.615c-0.039-1.15-0.029-2.305-0.006-3.455c0.004-0.188,0.166-0.371,0.254-0.555
			c0.166,0.096,0.379,0.154,0.488,0.293c0.686,0.869,1.348,1.756,2.165,2.613c0-0.621,0-1.242,0.001-1.863
			c0-0.187-0.045-0.392,0.018-0.551c0.062-0.154,0.234-0.267,0.359-0.396c0.137,0.141,0.387,0.277,0.389,0.42
			c0.031,1.275,0.025,2.551,0.008,3.826c-0.002,0.129-0.146,0.357-0.23,0.361c-0.152,0.004-0.357-0.086-0.455-0.207
			c-0.564-0.707-1.104-1.435-1.654-2.152c-0.135-0.174-0.277-0.34-0.416-0.51C119.438,36.707,119.395,36.723,119.352,36.736z"/>
	</g>
</g>
<g>

		<image overflow="visible" opacity="0.45" width="11" height="12" xlink:href="5EAFAD76.png"  transform="matrix(1 0 0 1 165.5 33.5)">
	</image>
	<g>
		<path fill="#FFFFFF" d="M167.896,36.732c0,0.717,0,1.436,0,2.151c-0.002,0.296-0.004,0.664-0.401,0.601
			c-0.162-0.025-0.377-0.394-0.384-0.611c-0.039-1.129-0.031-2.262-0.008-3.395c0.006-0.207,0.164-0.412,0.252-0.619
			c0.179,0.11,0.404,0.184,0.526,0.34c0.675,0.852,1.322,1.723,2.132,2.564c0-0.619-0.002-1.24,0-1.861
			c0-0.185-0.046-0.389,0.018-0.549c0.061-0.156,0.234-0.269,0.357-0.398c0.137,0.139,0.387,0.275,0.391,0.418
			c0.031,1.275,0.025,2.553,0.008,3.828c-0.002,0.129-0.146,0.357-0.23,0.361c-0.152,0.006-0.358-0.086-0.455-0.207
			c-0.565-0.707-1.104-1.435-1.656-2.152c-0.133-0.174-0.275-0.342-0.414-0.512C167.984,36.705,167.939,36.719,167.896,36.732z"/>
	</g>
</g>
<g>

		<image overflow="visible" opacity="0.45" width="11" height="12" xlink:href="5EAFAD69.png"  transform="matrix(1 0 0 1 171.5 33.5)">
	</image>
	<g>
		<path fill="#FFFFFF" d="M176.471,37.936c-0.5,0-0.832,0.041-1.147-0.018c-0.144-0.027-0.306-0.234-0.349-0.389
			c-0.021-0.074,0.213-0.307,0.342-0.316c0.492-0.039,0.986-0.021,1.479-0.012c0.095,0.002,0.209,0.039,0.278,0.102
			c0.314,0.281,0.133,1.676-0.24,1.9c-1.04,0.625-2.578,0.422-3.422-0.451c-0.854-0.883-0.854-2.168-0.002-3.049
			c0.832-0.861,2.258-1.098,3.299-0.508c0.156,0.088,0.212,0.354,0.313,0.541c-0.211,0.043-0.461,0.18-0.629,0.111
			c-0.838-0.343-1.613-0.314-2.306,0.295c-0.619,0.545-0.681,1.391-0.183,1.989c0.531,0.638,1.771,0.925,2.298,0.494
			C176.341,38.514,176.355,38.252,176.471,37.936z"/>
	</g>
</g>
<g>

		<image overflow="visible" opacity="0.45" width="10" height="12" xlink:href="5EAFAD6A.png"  transform="matrix(1 0 0 1 123.5 33.5)">
	</image>
	<g>
		<path fill="#FFFFFF" d="M124.572,37.236c0-0.594-0.029-1.191,0.018-1.783c0.016-0.176,0.229-0.465,0.377-0.48
			c0.887-0.1,1.717,0.076,2.401,0.703c1.003,0.92,0.946,2.383-0.125,3.215c-0.647,0.502-1.397,0.656-2.2,0.633
			c-0.331-0.01-0.479-0.166-0.473-0.5C124.58,38.428,124.572,37.832,124.572,37.236z M125.438,38.674
			c0.994,0,1.834-0.689,1.84-1.447c0.006-0.785-0.87-1.492-1.84-1.451C125.438,36.729,125.438,37.684,125.438,38.674z"/>
	</g>
</g>
<g>

		<image overflow="visible" opacity="0.45" width="10" height="12" xlink:href="5EAFAD68.png"  transform="matrix(1 0 0 1 143.5 33.5)">
	</image>
	<g>
		<path fill="#FFFFFF" d="M146.889,37.816c0.336,0.348,0.66,0.637,0.922,0.973c0.125,0.158,0.129,0.408,0.187,0.617
			c-0.24-0.023-0.545,0.039-0.71-0.084c-0.434-0.326-0.805-0.732-1.324-1.221c0,0.438,0.051,0.727-0.018,0.983
			c-0.043,0.166-0.26,0.287-0.398,0.429c-0.122-0.136-0.347-0.271-0.352-0.408c-0.026-1.25-0.026-2.502,0-3.752
			c0.004-0.138,0.223-0.373,0.354-0.383c0.426-0.027,0.865-0.019,1.283,0.063c0.591,0.114,0.996,0.487,1.086,1.106
			c0.091,0.625-0.13,1.127-0.682,1.465C147.133,37.67,147.029,37.73,146.889,37.816z M146.027,37.09
			c0.771-0.018,1.147-0.291,1.062-0.791c-0.104-0.607-0.567-0.58-1.062-0.549C146.027,36.215,146.027,36.652,146.027,37.09z"/>
	</g>
</g>
<g>

		<image overflow="visible" opacity="0.45" width="10" height="11" xlink:href="5EAFAD6E.png"  transform="matrix(1 0 0 1 90.5 33.5)">
	</image>
	<g>
		<path fill="#FFFFFF" d="M95.341,39.322c-0.153,0.059-0.317,0.184-0.458,0.16c-0.191-0.033-0.496-0.152-0.52-0.279
			c-0.12-0.646-0.525-0.703-1.075-0.697c-0.49,0.004-0.808,0.086-0.947,0.623c-0.041,0.156-0.379,0.236-0.579,0.352
			c-0.045-0.213-0.18-0.457-0.119-0.635c0.412-1.205,0.856-2.397,1.313-3.586c0.063-0.162,0.235-0.313,0.396-0.389
			c0.06-0.029,0.291,0.146,0.338,0.27c0.485,1.287,0.951,2.582,1.424,3.873c0.014,0.039,0.023,0.078,0.037,0.117
			C95.213,39.195,95.277,39.26,95.341,39.322z M93.76,37.689c-0.136-0.367-0.248-0.674-0.361-0.979
			c-0.045,0.004-0.09,0.008-0.135,0.015c-0.104,0.307-0.207,0.612-0.328,0.965C93.232,37.689,93.434,37.689,93.76,37.689z"/>
	</g>
</g>
<g>

		<image overflow="visible" opacity="0.45" width="10" height="12" xlink:href="5EAFAD65.png"  transform="matrix(1 0 0 1 148.5 33.5)">
	</image>
	<g>
		<path fill="#FFFFFF" d="M150.798,38.119c0,0.412,0.046,0.682-0.016,0.926c-0.044,0.176-0.231,0.314-0.355,0.469
			c-0.135-0.143-0.384-0.283-0.387-0.43c-0.032-1.232-0.031-2.469-0.001-3.701c0.004-0.146,0.248-0.285,0.381-0.428
			c0.126,0.15,0.34,0.289,0.359,0.451c0.052,0.422,0.018,0.854,0.018,1.484c0.502-0.563,0.887-0.994,1.27-1.425
			c0.123-0.139,0.225-0.336,0.379-0.396c0.184-0.07,0.412-0.021,0.623-0.023c-0.025,0.184,0.012,0.418-0.088,0.541
			c-0.517,0.639-1.066,1.248-1.666,1.938c0.555,0.429,1.099,0.82,1.603,1.257c0.146,0.127,0.181,0.387,0.265,0.584
			c-0.24,0.008-0.543,0.108-0.714,0.002C151.932,39.029,151.443,38.613,150.798,38.119z"/>
	</g>
</g>
<g>

		<image overflow="visible" opacity="0.45" width="10" height="11" xlink:href="5EAFAD66.png"  transform="matrix(1 0 0 1 138.5 33.5)">
	</image>
	<g>
		<path fill="#FFFFFF" d="M143.412,39.197c-0.08,0.086-0.199,0.293-0.278,0.279c-0.19-0.033-0.493-0.146-0.519-0.271
			c-0.141-0.727-0.639-0.697-1.199-0.699c-0.441-0.002-0.65,0.135-0.799,0.555c-0.066,0.189-0.393,0.285-0.602,0.424
			c-0.041-0.227-0.172-0.485-0.106-0.678c0.391-1.168,0.817-2.324,1.257-3.477c0.07-0.186,0.268-0.322,0.402-0.482
			c0.146,0.15,0.356,0.273,0.426,0.453c0.449,1.168,0.867,2.35,1.296,3.527C143.325,38.924,143.354,39.021,143.412,39.197z
			 M141.176,37.666c0.322,0,0.553,0,0.83,0c-0.143-0.371-0.264-0.688-0.427-1.109C141.424,36.982,141.309,37.303,141.176,37.666z"/>
	</g>
</g>
<g>

		<image overflow="visible" opacity="0.45" width="11" height="11" xlink:href="5EAFAD67.png"  transform="matrix(1 0 0 1 111.5 33.5)">
	</image>
	<g>
		<path fill="#FFFFFF" d="M113.152,39.131c0.518-1.412,0.992-2.725,1.484-4.029c0.041-0.106,0.217-0.244,0.313-0.231
			c0.131,0.016,0.312,0.137,0.356,0.256c0.488,1.287,0.965,2.576,1.411,3.877c0.044,0.127-0.125,0.326-0.194,0.49
			c-0.184-0.091-0.412-0.138-0.537-0.277c-0.168-0.186-0.211-0.59-0.383-0.641c-0.36-0.104-0.791-0.115-1.153-0.021
			c-0.197,0.053-0.296,0.422-0.478,0.611c-0.139,0.145-0.33,0.293-0.511,0.314C113.365,39.49,113.238,39.234,113.152,39.131z
			 M115.034,36.705c-0.046-0.002-0.089-0.004-0.134-0.006c-0.111,0.313-0.223,0.625-0.344,0.965c0.299,0,0.527,0,0.822,0
			C115.251,37.305,115.143,37.004,115.034,36.705z"/>
	</g>
</g>
<g>

		<image overflow="visible" opacity="0.45" width="10" height="12" xlink:href="5EAFAD94.png"  transform="matrix(1 0 0 1 99.5 33.5)">
	</image>
	<g>
		<path fill="#FFFFFF" d="M102.217,37.439c0,0.473,0,0.856,0,1.326c0.436,0,0.846-0.033,1.244,0.016
			c0.174,0.021,0.327,0.217,0.489,0.332c-0.167,0.137-0.324,0.373-0.505,0.391c-0.508,0.055-1.025,0.018-1.541,0.02
			c-0.346,0.004-0.539-0.137-0.537-0.51c0.005-1.193,0.005-2.389-0.001-3.582c-0.001-0.338,0.149-0.488,0.483-0.486
			c0.557,0.007,1.113-0.02,1.666,0.021c0.151,0.011,0.289,0.207,0.435,0.32c-0.146,0.137-0.276,0.369-0.438,0.391
			c-0.4,0.058-0.816,0.021-1.275,0.021c0,0.332,0,0.623,0,0.99c0.345,0,0.668-0.015,0.99,0.004c0.283,0.016,0.705-0.125,0.709,0.352
			c0.004,0.51-0.435,0.381-0.742,0.395C102.891,37.449,102.584,37.439,102.217,37.439z"/>
	</g>
</g>
<g>

		<image overflow="visible" opacity="0.45" width="10" height="12" xlink:href="5EAFAD8A.png"  transform="matrix(1 0 0 1 153.5 33.5)">
	</image>
	<g>
		<path fill="#FFFFFF" d="M155.841,35.695c0,0.356,0,0.635,0,0.99c0.417,0,0.808-0.037,1.185,0.016
			c0.193,0.027,0.363,0.219,0.543,0.336c-0.188,0.133-0.362,0.348-0.567,0.383c-0.356,0.064-0.731,0.018-1.146,0.018
			c0,0.445,0,0.843,0,1.328c0.414,0,0.822-0.033,1.222,0.017c0.175,0.021,0.329,0.213,0.493,0.327
			c-0.166,0.14-0.321,0.377-0.5,0.396c-0.529,0.054-1.073,0.062-1.6-0.004c-0.179-0.022-0.455-0.312-0.462-0.481
			c-0.041-1.193-0.018-2.388-0.022-3.58c-0.002-0.336,0.143-0.494,0.479-0.492c0.557,0.006,1.112-0.021,1.666,0.018
			c0.152,0.012,0.292,0.205,0.438,0.316c-0.144,0.139-0.272,0.373-0.432,0.396C156.734,35.732,156.32,35.695,155.841,35.695z"/>
	</g>
</g>
<g>

		<image overflow="visible" opacity="0.45" width="10" height="12" xlink:href="5EAFAD85.png"  transform="matrix(1 0 0 1 104.5 33.5)">
	</image>
	<g>
		<path fill="#FFFFFF" d="M107.18,39.654c-0.385-0.172-0.789-0.313-1.144-0.533c-0.136-0.084-0.156-0.355-0.229-0.541
			c0.213-0.029,0.436-0.113,0.635-0.078c0.313,0.057,0.611,0.273,0.914,0.27c0.203-0.002,0.47-0.229,0.574-0.43
			c0.047-0.09-0.191-0.41-0.367-0.521c-0.291-0.184-0.643-0.268-0.955-0.418c-0.711-0.342-0.99-0.84-0.846-1.461
			c0.15-0.647,0.74-1.125,1.467-1.051c0.405,0.041,0.812,0.246,1.176,0.451c0.123,0.07,0.119,0.367,0.176,0.563
			c-0.216,0.012-0.438,0.063-0.646,0.026c-0.324-0.055-0.64-0.223-0.959-0.227c-0.141-0.002-0.363,0.266-0.401,0.441
			c-0.03,0.143,0.116,0.399,0.26,0.487c0.291,0.185,0.632,0.287,0.951,0.427c0.8,0.352,1.128,0.858,0.972,1.498
			C108.609,39.152,107.979,39.563,107.18,39.654z"/>
	</g>
</g>
<g>

		<image overflow="visible" opacity="0.45" width="10" height="12" xlink:href="5EAFAD86.png"  transform="matrix(1 0 0 1 85.5 33.5)">
	</image>
	<g>
		<path fill="#FFFFFF" d="M88.612,39.654c-0.388-0.164-0.799-0.291-1.152-0.51c-0.148-0.095-0.171-0.386-0.251-0.586
			c0.216-0.021,0.441-0.084,0.646-0.045c0.272,0.053,0.54,0.288,0.789,0.262c0.252-0.029,0.48-0.281,0.719-0.438
			c-0.158-0.188-0.283-0.428-0.481-0.551c-0.291-0.185-0.642-0.269-0.952-0.427c-0.65-0.329-0.887-0.75-0.782-1.379
			c0.106-0.631,0.537-0.948,1.124-1.069c0.604-0.125,1.152,0.028,1.576,0.478c0.104,0.112,0.072,0.354,0.104,0.536
			c-0.202,0.015-0.412,0.068-0.603,0.031c-0.323-0.065-0.632-0.248-0.952-0.265c-0.148-0.006-0.407,0.248-0.438,0.416
			c-0.03,0.162,0.124,0.437,0.278,0.535c0.286,0.189,0.633,0.283,0.952,0.424c0.792,0.351,1.074,0.783,0.949,1.449
			C90.023,39.127,89.419,39.551,88.612,39.654z"/>
	</g>
</g>
<g>

		<image overflow="visible" opacity="0.45" width="10" height="12" xlink:href="5EAFAD84.png"  transform="matrix(1 0 0 1 95.5 33.5)">
	</image>
	<g>
		<path fill="#FFFFFF" d="M97.732,38.766c0.513,0,0.944-0.037,1.365,0.019c0.186,0.022,0.346,0.235,0.519,0.364
			c-0.159,0.125-0.312,0.345-0.479,0.357c-0.572,0.045-1.15,0.018-1.728,0.018c-0.367-0.002-0.498-0.203-0.496-0.555
			c0.009-1.172-0.013-2.348,0.021-3.52c0.006-0.168,0.25-0.33,0.383-0.496c0.139,0.164,0.387,0.322,0.395,0.492
			c0.042,0.863,0.021,1.729,0.021,2.594C97.732,38.258,97.732,38.477,97.732,38.766z"/>
	</g>
</g>
<g>

		<image overflow="visible" opacity="0.45" width="10" height="11" xlink:href="5EAFADBC.png"  transform="matrix(1 0 0 1 157.5 33.5)">
	</image>
	<g>
		<path fill="#FFFFFF" d="M161.089,35.693c0,1.115,0.022,2.141-0.017,3.164c-0.01,0.223-0.211,0.604-0.362,0.625
			c-0.438,0.059-0.418-0.326-0.418-0.644c0.002-1.022,0.001-2.045,0.001-3.108c-0.293-0.017-0.55,0.02-0.768-0.058
			c-0.147-0.053-0.295-0.248-0.334-0.405c-0.02-0.072,0.221-0.298,0.35-0.304c0.759-0.028,1.52-0.032,2.277,0
			c0.146,0.009,0.281,0.216,0.423,0.332c-0.13,0.131-0.238,0.328-0.396,0.379C161.646,35.742,161.404,35.693,161.089,35.693z"/>
	</g>
</g>
<g>

		<image overflow="visible" opacity="0.45" width="8" height="11" xlink:href="5EAFADBD.png"  transform="matrix(1 0 0 1 162.5 33.5)">
	</image>
	<g>
		<path fill="#FFFFFF" d="M164.781,37.229c0.001,0.576,0,1.152,0.001,1.729c0,0.285-0.04,0.601-0.403,0.531
			c-0.152-0.029-0.359-0.324-0.365-0.505c-0.033-1.172-0.033-2.346,0-3.516c0.004-0.174,0.211-0.457,0.366-0.49
			c0.382-0.08,0.399,0.244,0.401,0.523C164.783,36.078,164.781,36.654,164.781,37.229z"/>
	</g>
</g>
<g>
	<g opacity="0.45">
		<path d="M148.027,39.09c0-0.438,0-0.875,0-1.34"/>
	</g>
	<g>
		<path fill="#FFFFFF" d="M146.027,37.09c0-0.438,0-0.875,0-1.34"/>
	</g>
</g>
<g>
	<image overflow="visible" opacity="0.45" width="7" height="8" xlink:href="5EAFADBE.png"  transform="matrix(1 0 0 1 91.5 35.5)">
	</image>
	<g>
		<path fill="#FFFFFF" d="M92.936,37.689c0.121-0.353,0.226-0.658,0.328-0.965c0.045-0.007,0.09-0.011,0.135-0.015"/>
	</g>
</g>
<g>

		<image overflow="visible" opacity="0.45" width="8" height="8" xlink:href="5EAFAD83.png"  transform="matrix(1 0 0 1 139.5 35.5)">
	</image>
	<g>
		<path fill="#FFFFFF" d="M142.006,37.666c-0.277,0-0.508,0-0.83,0c0.133-0.363,0.248-0.684,0.403-1.109"/>
	</g>
</g>
<g>

		<image overflow="visible" opacity="0.45" width="7" height="8" xlink:href="5EAFAD80.png"  transform="matrix(1 0 0 1 113.5 35.5)">
	</image>
	<g>
		<path fill="#FFFFFF" d="M114.559,37.664c0.121-0.34,0.23-0.652,0.342-0.965c0.045,0.002,0.09,0.004,0.135,0.006"/>
	</g>
</g>
</svg>
