<?xml version="1.0" encoding="utf-8"?>
<!-- Generator: Adobe Illustrator 16.0.0, SVG Export Plug-In . SVG Version: 6.00 Build 0)  -->
<!DOCTYPE svg PUBLIC "-//W3C//DTD SVG 1.1//EN" "http://www.w3.org/Graphics/SVG/1.1/DTD/svg11.dtd">
<svg version="1.1" id="Layer_1" xmlns="http://www.w3.org/2000/svg" xmlns:xlink="http://www.w3.org/1999/xlink" x="0px" y="0px"
	 width="178px" height="50px" viewBox="0 0 178 50" enable-background="new 0 0 178 50" xml:space="preserve">
<path fill-rule="evenodd" clip-rule="evenodd" d="M80.807,36.814c-3.573-2.281-6.316-5.344-8.923-8.609
	c-1.225,1.295-1.27,2.867-1.751,4.318c-0.107-0.41-0.215-0.822-0.321-1.234c-0.107-0.418-0.207-0.838-0.318-1.256
	c-0.287-1.07-0.558-2.148-0.875-3.211c-0.396-1.329-1.331-2.083-2.708-1.942c-1.516,0.154-2.426-0.487-3.181-1.711
	c-0.656-1.064-1.439-2.057-2.237-3.022c-0.809-0.98-1.551-0.811-1.957,0.391c-0.41,1.214-1.235,2.122-2.15,2.964
	c-0.863,0.794-1.74,1.575-2.611,2.36c-0.319,0.287-0.424,0.631-0.488,1.068c-0.087,0.592-0.408,1.146-0.578,1.73
	c-0.108,0.377-0.249,0.813-0.157,1.164c0.194,0.75,0.51,1.471,0.815,2.188c0.234,0.547,0.539,1.064,0.789,1.605
	c0.053,0.115,0.003,0.279,0,0.422c-0.129-0.053-0.313-0.068-0.381-0.164c-0.714-1.006-1.464-1.992-2.094-3.051
	c-0.548-0.922-1.257-1.611-2.19-2.104c-0.509-0.268-1.032-0.52-1.508-0.84c-0.473-0.318-0.88-0.266-1.298,0.057
	c-0.881,0.676-1.76,1.355-2.644,2.029c-0.125,0.096-0.27,0.217-0.413,0.229c-1.041,0.076-1.782,0.678-2.492,1.355
	c-0.431,0.412-0.872,0.816-1.334,1.191c-0.245,0.201-0.544,0.336-0.858,0.451c0.972-1.711,2.092-3.268,3.724-4.422
	c1.003-0.711,1.983-1.477,2.86-2.334c0.96-0.939,1.94-1.212,3.178-0.653c0.712,0.321,1.463,0.583,2.264,0.261
	c0.423-0.171,0.618-0.363,0.489-0.921c-0.304-1.311-0.872-2.387-1.983-3.203c-0.534-0.392-1.012-0.787-1.685-0.945
	c-1.272-0.299-2.055-1.131-2.383-2.406c-0.474-1.846-1.696-3.063-3.366-3.868c-0.146-0.07-0.468,0.007-0.586,0.132
	c-0.932,0.984-1.797,2.033-2.754,2.99c-1.205,1.205-2.294,2.469-2.919,4.084c-0.131,0.338-0.373,0.636-0.58,0.942
	c-0.795,1.172-1.575,2.356-2.405,3.503c-0.575,0.795-1.164,1.596-1.855,2.285c-0.67,0.668-1.583,0.92-2.654,0.988
	c1.974-2.393,4.31-4.469,4.749-7.836c-0.467,0.354-0.849,0.622-1.207,0.92c-2.904,2.42-5.522,5.094-7.78,8.15
	c-1.166,1.578-2.7,2.883-4.067,4.313c-0.061-0.047-0.121-0.096-0.181-0.143c0.065-0.188,0.124-0.377,0.198-0.561
	c0.533-1.314,1.086-2.621,1.6-3.943c0.315-0.811,0.158-1.309-0.571-1.648c-0.875-0.408-1.497-1.068-2.08-1.795
	c-1.287-1.604-1.613-1.578-3.221-0.305c-3.014,2.387-6.078,4.713-9.139,7.039c-1.583,1.205-3.495,1.717-5.317,2.41
	c-0.096,0.037-0.236-0.043-0.355-0.068c0.037-0.117,0.038-0.277,0.117-0.348c1.736-1.541,3.352-3.264,5.254-4.568
	c3.456-2.369,7.074-4.5,10.651-6.688c0.338-0.207,0.9-0.227,1.298-0.117c0.723,0.201,1.423,0.523,2.092,0.872
	c0.618,0.321,1.18,0.75,1.774,1.119c1.055,0.654,1.819,0.578,2.734-0.268c0.272-0.252,0.542-0.507,0.798-0.773
	c2.296-2.391,4.923-4.302,8.02-5.521c1.402-0.552,2.544-1.397,3.578-2.512c1.041-1.123,2.282-2.066,3.479-3.035
	c1.329-1.076,2.291-0.31,3.35,0.794c0.169,0.176,0.273,0.424,0.46,0.573c1.213,0.962,2.048,2.238,2.958,3.459
	c0.497,0.667,1.111,1.251,1.707,1.837c0.792,0.777,1.618,1.518,2.428,2.275c0.181,0.168,0.347,0.354,0.539,0.508
	c0.576,0.463,1.009,0.477,1.537-0.021c1.505-1.42,3.005-2.846,4.477-4.301c0.71-0.702,1.5-0.861,2.31-0.208
	c1.071,0.863,2.118,1.769,3.083,2.748c1.062,1.077,2.213,1.858,3.762,2.035c1.077,0.123,1.896,0.717,2.431,1.702
	c0.141,0.26,0.441,0.488,0.721,0.604c0.529,0.219,1.086,0.41,1.649,0.494c0.962,0.145,1.626,0.656,2.227,1.391
	c2.067,2.537,4.185,5.033,6.26,7.564C80.823,36.039,81.384,36.35,80.807,36.814z"/>
<path fill-rule="evenodd" clip-rule="evenodd" d="M167.687,22.904c0,1.66,0,3.157,0,4.653c0,0.926-0.007,1.852,0.002,2.777
	c0.006,0.557-0.278,0.766-0.807,0.764c-0.524-0.002-0.797-0.193-0.796-0.764c0.009-6.194,0.007-12.387,0.002-18.581
	c0-0.402,0.11-0.746,0.554-0.727c1.659,0.072,3.356-0.009,4.966,0.325c3.447,0.715,4.633,3.374,4.309,6.398
	c-0.304,2.833-2.002,4.623-4.871,5.354c-0.231,0.059-0.463,0.118-0.776,0.197c0.566,0.629,1.084,1.207,1.605,1.782
	c1.439,1.582,2.886,3.16,4.316,4.75c0.266,0.295,0.762,0.568,0.331,1.076c-0.241,0.285-1.171,0.266-1.503-0.016
	c-0.141-0.119-0.26-0.266-0.385-0.402c-2.133-2.342-4.266-4.686-6.399-7.028C168.098,23.312,167.951,23.172,167.687,22.904z
	 M167.73,12.55c0,3.22,0,6.296,0,9.417c0.917-0.118,1.807-0.161,2.662-0.356c2.058-0.471,3.551-1.571,3.938-3.805
	c0.446-2.572-0.889-4.602-3.414-5.029C169.894,12.604,168.837,12.623,167.73,12.55z"/>
<path fill-rule="evenodd" clip-rule="evenodd" d="M113.857,18.511c0,2.018,0.006,4.035-0.001,6.053
	c-0.015,3.669-2.669,6.521-6.316,6.796c-3.361,0.254-6.451-2.273-7.009-5.747c-0.056-0.343-0.057-0.698-0.057-1.047
	c-0.004-4.221-0.004-8.441-0.002-12.662c0-0.769,0.207-0.949,0.952-0.895c0.401,0.029,0.6,0.233,0.626,0.619
	c0.012,0.185,0.007,0.371,0.007,0.556c0,4.118-0.015,8.235,0.005,12.353c0.015,2.859,2.18,5.132,4.936,5.236
	c2.937,0.111,5.248-2.139,5.262-5.17c0.02-4.117,0.006-8.235,0.006-12.353c0-0.165,0.001-0.329,0.001-0.494
	c-0.002-0.554,0.291-0.751,0.822-0.751c0.546,0,0.778,0.217,0.774,0.775C113.849,14.023,113.857,16.267,113.857,18.511z"/>
<path fill-rule="evenodd" clip-rule="evenodd" d="M153.859,12.589c0,2.319,0,4.536,0,6.832c0.245,0,0.465,0,0.684,0
	c1.976,0,3.951-0.003,5.927,0.002c0.701,0.001,0.839,0.161,0.854,0.822c0.015,0.597-0.272,0.786-0.836,0.781
	c-1.976-0.017-3.951-0.007-5.927-0.007c-0.221,0-0.441,0-0.694,0c0,2.842,0,5.611,0,8.457c0.225,0.012,0.44,0.031,0.656,0.031
	c1.976,0.002,3.951,0,5.927,0.002c0.732,0.002,0.871,0.135,0.87,0.789c-0.002,0.65-0.147,0.791-0.877,0.793
	c-2.448,0.004-4.897,0.004-7.347,0c-0.73-0.002-0.854-0.133-0.854-0.875c-0.002-6.113-0.002-12.225,0-18.336
	c0-0.754,0.11-0.867,0.852-0.868c2.47-0.003,4.939-0.003,7.409,0c0.669,0.001,0.797,0.152,0.821,0.783
	c0.024,0.598-0.265,0.8-0.823,0.797c-1.975-0.01-3.95-0.004-5.926-0.004C154.354,12.589,154.132,12.589,153.859,12.589z"/>
<path fill-rule="evenodd" clip-rule="evenodd" d="M120.772,23.534c0,2.293-0.009,4.532,0.007,6.772
	c0.004,0.553-0.225,0.793-0.769,0.789c-0.619-0.006-0.828-0.174-0.828-0.797c-0.005-6.172-0.003-12.344-0.004-18.517
	c0-0.42,0.125-0.755,0.603-0.764c1.873-0.035,3.749-0.039,5.566,0.513c2.345,0.712,3.558,2.363,3.705,4.814
	c0.273,4.524-2.671,6.561-6.243,7.014C122.161,23.442,121.506,23.473,120.772,23.534z M120.838,22.01
	c0.894-0.097,1.715-0.131,2.515-0.285c2.416-0.464,3.871-1.803,4.139-3.957c0.319-2.57-0.503-4.423-3.303-4.934
	c-0.905-0.165-1.833-0.2-2.749-0.313c-0.521-0.064-0.657,0.146-0.653,0.654c0.022,2.715,0.01,5.43,0.013,8.145
	C120.799,21.501,120.818,21.682,120.838,22.01z"/>
<path fill-rule="evenodd" clip-rule="evenodd" d="M144.194,12.589c0,0.349,0,0.613,0,0.876c0,5.557,0,11.113,0,16.67
	c0,0.445,0.016,0.891-0.602,0.955c-0.721,0.078-0.969-0.135-0.969-0.887c-0.002-5.597-0.001-11.195-0.001-16.792
	c0-0.243,0-0.486,0-0.821c-0.984,0-1.922,0-2.86,0c-0.37,0-0.741,0.004-1.111-0.001c-0.74-0.009-0.894-0.189-0.868-0.928
	c0.016-0.437,0.219-0.647,0.645-0.647c3.313-0.002,6.626-0.002,9.939,0c0.549,0,0.679,0.338,0.679,0.817
	c-0.001,0.52-0.244,0.758-0.749,0.758C146.962,12.589,145.627,12.589,144.194,12.589z"/>
<path fill-rule="evenodd" clip-rule="evenodd" d="M93.703,12.589c-1.444,0-2.821,0.005-4.199-0.002
	c-0.687-0.003-0.92-0.284-0.848-0.964c0.041-0.388,0.24-0.608,0.635-0.608c1.812-0.004,3.622-0.005,5.434,0
	c0.484,0.002,0.613,0.308,0.61,0.741c-0.009,1.44-0.003,2.881-0.003,4.322c0,2.901-0.08,5.806,0.021,8.704
	c0.125,3.611-2.994,6.351-6.077,6.74c-0.225,0.029-0.45,0.057-0.675,0.074c-0.798,0.063-1.009-0.154-0.974-0.932
	c0.022-0.488,0.293-0.619,0.725-0.635c1.48-0.051,2.757-0.615,3.846-1.6c0.957-0.865,1.536-1.938,1.54-3.248
	c0.014-4.075,0.006-8.149,0.005-12.225C93.743,12.859,93.723,12.76,93.703,12.589z"/>
<path fill-rule="evenodd" clip-rule="evenodd" d="M134.586,21.079c0,3.045,0.001,6.091-0.002,9.136c0,0.736-0.279,1.008-0.981,0.85
	c-0.229-0.051-0.409-0.361-0.585-0.576c-0.051-0.061-0.011-0.199-0.011-0.301c-0.001-6.092,0.001-12.184-0.003-18.275
	c0-0.47,0.043-0.872,0.653-0.904c0.72-0.038,0.927,0.137,0.927,0.871C134.587,14.946,134.586,18.012,134.586,21.079z"/>
<path fill-rule="evenodd" clip-rule="evenodd" d="M135.613,38.303c0.571-1.086,1.066-2.053,1.595-3.002
	c0.103-0.186,0.334-0.301,0.507-0.447c0.099,0.221,0.276,0.439,0.282,0.662c0.029,1.129,0.013,2.26,0.014,3.389
	c0.001,0.307-0.036,0.648-0.426,0.582c-0.157-0.025-0.352-0.355-0.373-0.563c-0.053-0.527-0.018-1.063-0.149-1.654
	c-0.218,0.414-0.413,0.844-0.662,1.24c-0.239,0.381-0.534,0.727-0.804,1.088c-0.264-0.369-0.546-0.729-0.785-1.115
	c-0.243-0.391-0.443-0.809-0.805-1.186c0,0.563,0.03,1.129-0.018,1.688c-0.016,0.186-0.229,0.354-0.354,0.529
	c-0.137-0.184-0.388-0.363-0.393-0.551c-0.036-1.191-0.027-2.383-0.009-3.574c0.003-0.176,0.139-0.35,0.213-0.523
	c0.172,0.111,0.415,0.182,0.504,0.34C134.502,36.184,135.018,37.184,135.613,38.303z"/>
<path fill-rule="evenodd" clip-rule="evenodd" d="M119.351,36.736c0,0.719,0.001,1.436,0,2.154c-0.001,0.299-0.018,0.66-0.41,0.594
	c-0.163-0.029-0.374-0.396-0.381-0.615c-0.038-1.15-0.029-2.305-0.006-3.455c0.004-0.188,0.166-0.371,0.255-0.555
	c0.165,0.096,0.378,0.154,0.488,0.293c0.685,0.869,1.347,1.756,2.165,2.613c0-0.621,0-1.242,0.001-1.863
	c0-0.186-0.045-0.391,0.018-0.551c0.061-0.154,0.234-0.266,0.359-0.396c0.136,0.141,0.386,0.277,0.389,0.42
	c0.031,1.275,0.025,2.551,0.008,3.826c-0.002,0.129-0.147,0.357-0.231,0.361c-0.152,0.004-0.358-0.086-0.455-0.207
	c-0.565-0.707-1.104-1.434-1.655-2.152c-0.134-0.174-0.277-0.34-0.416-0.51C119.437,36.707,119.394,36.723,119.351,36.736z"/>
<path fill-rule="evenodd" clip-rule="evenodd" d="M167.896,36.732c0,0.717,0.001,1.436,0,2.152c-0.001,0.295-0.003,0.664-0.401,0.6
	c-0.162-0.025-0.377-0.393-0.384-0.611c-0.039-1.129-0.031-2.262-0.007-3.395c0.005-0.207,0.163-0.412,0.251-0.619
	c0.179,0.111,0.405,0.184,0.527,0.34c0.674,0.852,1.322,1.723,2.131,2.564c0-0.619-0.001-1.24,0-1.861
	c0-0.184-0.045-0.389,0.018-0.549c0.061-0.156,0.234-0.268,0.357-0.398c0.137,0.139,0.388,0.275,0.392,0.418
	c0.03,1.275,0.024,2.553,0.007,3.828c-0.002,0.129-0.146,0.357-0.23,0.361c-0.152,0.006-0.359-0.086-0.456-0.207
	c-0.565-0.707-1.104-1.434-1.655-2.152c-0.134-0.174-0.276-0.342-0.415-0.512C167.984,36.705,167.94,36.719,167.896,36.732z"/>
<path fill-rule="evenodd" clip-rule="evenodd" d="M176.471,37.936c-0.5,0-0.833,0.041-1.148-0.018
	c-0.143-0.027-0.305-0.234-0.348-0.389c-0.021-0.074,0.212-0.307,0.342-0.316c0.491-0.039,0.986-0.021,1.479-0.012
	c0.095,0.002,0.209,0.039,0.278,0.102c0.315,0.281,0.133,1.676-0.24,1.9c-1.04,0.625-2.578,0.422-3.422-0.451
	c-0.854-0.883-0.854-2.168-0.002-3.049c0.832-0.861,2.258-1.098,3.299-0.508c0.156,0.088,0.212,0.355,0.313,0.541
	c-0.212,0.043-0.462,0.18-0.629,0.111c-0.838-0.342-1.613-0.314-2.306,0.295c-0.619,0.545-0.681,1.391-0.182,1.99
	c0.53,0.637,1.771,0.924,2.297,0.494C176.341,38.514,176.355,38.252,176.471,37.936z"/>
<path fill-rule="evenodd" clip-rule="evenodd" d="M124.572,37.236c0-0.594-0.029-1.191,0.018-1.783
	c0.015-0.176,0.229-0.465,0.377-0.48c0.887-0.1,1.717,0.076,2.401,0.703c1.003,0.92,0.947,2.383-0.125,3.215
	c-0.647,0.502-1.398,0.656-2.2,0.633c-0.331-0.01-0.479-0.166-0.473-0.5C124.58,38.428,124.572,37.832,124.572,37.236z
	 M125.438,38.674c0.994,0,1.834-0.689,1.839-1.447c0.006-0.785-0.87-1.492-1.839-1.451
	C125.438,36.729,125.438,37.684,125.438,38.674z"/>
<path fill-rule="evenodd" clip-rule="evenodd" d="M146.888,37.816c0.337,0.348,0.661,0.637,0.923,0.973
	c0.124,0.158,0.128,0.408,0.186,0.617c-0.24-0.023-0.545,0.039-0.71-0.084c-0.433-0.326-0.805-0.732-1.324-1.221
	c0,0.438,0.05,0.727-0.018,0.984c-0.043,0.166-0.26,0.287-0.398,0.428c-0.122-0.135-0.347-0.27-0.351-0.408
	c-0.027-1.25-0.027-2.502,0-3.752c0.003-0.137,0.222-0.373,0.353-0.383c0.426-0.027,0.865-0.018,1.283,0.064
	c0.591,0.115,0.996,0.488,1.086,1.107c0.091,0.625-0.13,1.127-0.682,1.465C147.133,37.67,147.029,37.73,146.888,37.816z
	 M146.027,37.09c0.772-0.018,1.148-0.291,1.062-0.791c-0.104-0.607-0.568-0.58-1.062-0.549
	C146.027,36.215,146.027,36.652,146.027,37.09z"/>
<path fill-rule="evenodd" clip-rule="evenodd" d="M95.341,39.322c-0.153,0.059-0.318,0.184-0.458,0.16
	c-0.191-0.033-0.496-0.152-0.52-0.279c-0.12-0.646-0.525-0.703-1.075-0.697c-0.49,0.004-0.808,0.086-0.947,0.623
	c-0.041,0.156-0.379,0.236-0.58,0.352c-0.044-0.213-0.179-0.457-0.118-0.635c0.411-1.205,0.856-2.398,1.313-3.586
	c0.063-0.162,0.235-0.313,0.396-0.389c0.059-0.029,0.29,0.146,0.337,0.27c0.486,1.287,0.952,2.582,1.424,3.873
	c0.014,0.039,0.024,0.078,0.037,0.117C95.213,39.195,95.277,39.26,95.341,39.322z M93.76,37.689
	c-0.136-0.367-0.249-0.674-0.362-0.979c-0.044,0.004-0.089,0.008-0.134,0.014c-0.104,0.307-0.208,0.613-0.328,0.965
	C93.232,37.689,93.434,37.689,93.76,37.689z"/>
<path fill-rule="evenodd" clip-rule="evenodd" d="M150.798,38.119c0,0.412,0.046,0.682-0.016,0.926
	c-0.044,0.176-0.231,0.314-0.355,0.469c-0.135-0.143-0.384-0.283-0.387-0.43c-0.032-1.232-0.031-2.469-0.001-3.701
	c0.004-0.146,0.248-0.285,0.381-0.428c0.126,0.15,0.34,0.289,0.36,0.451c0.051,0.422,0.017,0.854,0.017,1.484
	c0.502-0.563,0.886-0.994,1.27-1.424c0.123-0.139,0.224-0.336,0.378-0.396c0.184-0.07,0.413-0.02,0.623-0.023
	c-0.025,0.184,0.012,0.418-0.088,0.541c-0.516,0.639-1.066,1.248-1.665,1.938c0.554,0.428,1.098,0.82,1.602,1.256
	c0.146,0.127,0.18,0.387,0.265,0.584c-0.241,0.008-0.544,0.109-0.714,0.002C151.931,39.029,151.444,38.613,150.798,38.119z"/>
<path fill-rule="evenodd" clip-rule="evenodd" d="M143.412,39.197c-0.08,0.086-0.199,0.293-0.278,0.279
	c-0.19-0.033-0.494-0.146-0.519-0.271c-0.141-0.727-0.638-0.697-1.199-0.699c-0.442-0.002-0.65,0.135-0.799,0.555
	c-0.066,0.189-0.393,0.285-0.601,0.424c-0.041-0.227-0.172-0.486-0.107-0.678c0.391-1.168,0.817-2.324,1.257-3.477
	c0.071-0.186,0.267-0.322,0.403-0.482c0.146,0.15,0.356,0.273,0.425,0.453c0.449,1.168,0.868,2.35,1.296,3.527
	C143.325,38.924,143.354,39.021,143.412,39.197z M141.176,37.666c0.322,0,0.552,0,0.83,0c-0.143-0.371-0.264-0.688-0.427-1.109
	C141.424,36.982,141.308,37.303,141.176,37.666z"/>
<path fill-rule="evenodd" clip-rule="evenodd" d="M113.152,39.131c0.518-1.412,0.992-2.725,1.485-4.029
	c0.041-0.107,0.216-0.244,0.313-0.232c0.131,0.016,0.312,0.137,0.356,0.256c0.489,1.287,0.965,2.576,1.412,3.877
	c0.043,0.127-0.125,0.326-0.194,0.49c-0.184-0.09-0.412-0.137-0.538-0.277c-0.167-0.186-0.211-0.59-0.383-0.641
	c-0.36-0.105-0.79-0.115-1.153-0.02c-0.197,0.053-0.296,0.422-0.478,0.611c-0.138,0.145-0.329,0.293-0.51,0.314
	C113.365,39.49,113.238,39.234,113.152,39.131z M115.034,36.705c-0.045-0.002-0.089-0.004-0.134-0.006
	c-0.111,0.313-0.222,0.625-0.343,0.965c0.298,0,0.527,0,0.822,0C115.251,37.305,115.143,37.004,115.034,36.705z"/>
<path fill-rule="evenodd" clip-rule="evenodd" d="M102.217,37.439c0,0.473,0,0.857,0,1.326c0.435,0,0.845-0.033,1.244,0.016
	c0.174,0.021,0.327,0.217,0.489,0.332c-0.167,0.137-0.324,0.373-0.504,0.391c-0.509,0.055-1.026,0.018-1.541,0.02
	c-0.347,0.004-0.54-0.137-0.538-0.51c0.005-1.193,0.005-2.389-0.001-3.582c-0.001-0.338,0.15-0.488,0.484-0.486
	c0.556,0.006,1.113-0.02,1.666,0.02c0.151,0.01,0.289,0.207,0.434,0.32c-0.146,0.137-0.276,0.369-0.438,0.391
	c-0.401,0.057-0.816,0.02-1.275,0.02c0,0.332,0,0.623,0,0.99c0.344,0,0.668-0.014,0.99,0.004c0.283,0.016,0.705-0.125,0.709,0.352
	c0.004,0.51-0.435,0.381-0.742,0.395C102.89,37.449,102.584,37.439,102.217,37.439z"/>
<path fill-rule="evenodd" clip-rule="evenodd" d="M155.841,35.695c0,0.357,0,0.635,0,0.99c0.417,0,0.808-0.037,1.185,0.016
	c0.193,0.027,0.362,0.219,0.543,0.336c-0.188,0.133-0.363,0.348-0.568,0.383c-0.356,0.064-0.731,0.018-1.146,0.018
	c0,0.445,0,0.842,0,1.328c0.414,0,0.823-0.033,1.222,0.016c0.175,0.021,0.329,0.213,0.493,0.328c-0.166,0.139-0.321,0.377-0.5,0.395
	c-0.529,0.053-1.073,0.061-1.6-0.004c-0.178-0.023-0.455-0.311-0.461-0.482c-0.041-1.193-0.018-2.387-0.023-3.58
	c-0.002-0.336,0.143-0.494,0.479-0.492c0.556,0.006,1.112-0.02,1.666,0.018c0.152,0.012,0.292,0.205,0.438,0.316
	c-0.144,0.139-0.273,0.373-0.433,0.396C156.735,35.732,156.32,35.695,155.841,35.695z"/>
<path fill-rule="evenodd" clip-rule="evenodd" d="M107.18,39.654c-0.385-0.172-0.79-0.313-1.144-0.533
	c-0.136-0.084-0.156-0.355-0.229-0.541c0.212-0.029,0.435-0.113,0.635-0.078c0.313,0.057,0.61,0.273,0.913,0.27
	c0.203-0.002,0.47-0.23,0.575-0.43c0.047-0.09-0.192-0.41-0.368-0.521c-0.291-0.184-0.642-0.268-0.955-0.418
	c-0.71-0.342-0.99-0.84-0.846-1.461c0.151-0.648,0.741-1.125,1.467-1.051c0.406,0.041,0.812,0.246,1.176,0.451
	c0.124,0.07,0.12,0.367,0.176,0.563c-0.216,0.012-0.438,0.063-0.646,0.027c-0.325-0.055-0.64-0.223-0.96-0.227
	c-0.14-0.002-0.362,0.266-0.401,0.441c-0.03,0.143,0.117,0.4,0.26,0.488c0.291,0.184,0.632,0.287,0.951,0.426
	c0.8,0.352,1.128,0.859,0.972,1.498C108.609,39.152,107.979,39.563,107.18,39.654z"/>
<path fill-rule="evenodd" clip-rule="evenodd" d="M88.612,39.654c-0.388-0.164-0.799-0.291-1.152-0.51
	c-0.148-0.094-0.171-0.385-0.251-0.586c0.216-0.02,0.441-0.084,0.646-0.045c0.272,0.053,0.54,0.289,0.789,0.262
	c0.252-0.029,0.48-0.281,0.719-0.438c-0.158-0.188-0.283-0.428-0.481-0.551c-0.291-0.184-0.642-0.268-0.952-0.426
	c-0.65-0.33-0.887-0.75-0.782-1.379c0.106-0.631,0.537-0.949,1.124-1.07c0.604-0.125,1.152,0.029,1.575,0.477
	c0.105,0.113,0.073,0.355,0.104,0.537c-0.202,0.014-0.412,0.068-0.603,0.031c-0.323-0.066-0.632-0.248-0.952-0.264
	c-0.148-0.006-0.407,0.248-0.438,0.416c-0.03,0.162,0.124,0.436,0.278,0.535c0.286,0.189,0.633,0.283,0.952,0.424
	c0.792,0.35,1.074,0.783,0.949,1.449C90.023,39.127,89.419,39.551,88.612,39.654z"/>
<path fill-rule="evenodd" clip-rule="evenodd" d="M97.733,38.766c0.512,0,0.944-0.037,1.365,0.018
	c0.185,0.023,0.346,0.236,0.518,0.365c-0.159,0.125-0.311,0.344-0.479,0.357c-0.572,0.045-1.151,0.018-1.728,0.018
	c-0.367-0.002-0.498-0.203-0.496-0.555c0.009-1.172-0.013-2.348,0.021-3.52c0.005-0.168,0.249-0.33,0.383-0.496
	c0.138,0.164,0.386,0.322,0.394,0.492c0.042,0.863,0.021,1.729,0.021,2.594C97.733,38.258,97.733,38.477,97.733,38.766z"/>
<path fill-rule="evenodd" clip-rule="evenodd" d="M161.089,35.693c0,1.115,0.022,2.141-0.017,3.164
	c-0.009,0.223-0.211,0.605-0.362,0.625c-0.438,0.059-0.418-0.326-0.418-0.643c0.002-1.023,0.001-2.045,0.001-3.109
	c-0.293-0.016-0.55,0.02-0.767-0.057c-0.148-0.053-0.296-0.248-0.335-0.406c-0.019-0.072,0.221-0.297,0.35-0.303
	c0.759-0.029,1.52-0.033,2.278,0c0.146,0.008,0.281,0.215,0.422,0.332c-0.13,0.131-0.238,0.328-0.395,0.379
	C161.646,35.742,161.405,35.693,161.089,35.693z"/>
<path fill-rule="evenodd" clip-rule="evenodd" d="M164.781,37.229c0.001,0.576,0,1.152,0.001,1.729c0,0.285-0.04,0.6-0.403,0.531
	c-0.153-0.029-0.36-0.324-0.366-0.504c-0.032-1.172-0.032-2.346,0-3.516c0.005-0.174,0.212-0.457,0.367-0.49
	c0.381-0.08,0.4,0.244,0.401,0.523C164.783,36.078,164.781,36.654,164.781,37.229z"/>
<path fill-rule="evenodd" clip-rule="evenodd" fill="#FFFFFF" d="M146.027,37.09c0-0.438,0-0.875,0-1.34"/>
<path fill-rule="evenodd" clip-rule="evenodd" fill="#FFFFFF" d="M92.936,37.689c0.12-0.352,0.225-0.658,0.328-0.965
	c0.045-0.006,0.09-0.01,0.134-0.014"/>
<path fill-rule="evenodd" clip-rule="evenodd" fill="#FFFFFF" d="M142.006,37.666c-0.278,0-0.508,0-0.83,0
	c0.132-0.363,0.248-0.684,0.403-1.109"/>
<path fill-rule="evenodd" clip-rule="evenodd" fill="#FFFFFF" d="M114.558,37.664c0.121-0.34,0.231-0.652,0.343-0.965
	c0.045,0.002,0.089,0.004,0.134,0.006"/>
</svg>
