<?xml version="1.0" encoding="utf-8"?>
<!-- Generator: Adobe Illustrator 16.0.0, SVG Export Plug-In . SVG Version: 6.00 Build 0)  -->
<!DOCTYPE svg PUBLIC "-//W3C//DTD SVG 1.1//EN" "http://www.w3.org/Graphics/SVG/1.1/DTD/svg11.dtd">
<svg version="1.1" id="Layer_1" xmlns="http://www.w3.org/2000/svg" xmlns:xlink="http://www.w3.org/1999/xlink" x="0px" y="0px"
	 width="512px" height="512px" viewBox="0 0 512 512" enable-background="new 0 0 512 512" xml:space="preserve">
<path fill-rule="evenodd" clip-rule="evenodd" fill="#788F9B" d="M513,481c0,9.5-0.152,19.004,0.089,28.498
	c0.076,2.996-0.606,3.59-3.589,3.584c-61.667-0.109-123.333-0.082-185-0.082c-22.5,0-45,0-67.5,0
	c-0.001-10.611-0.002-21.223-0.003-31.834c8.136-0.055,16.272-0.146,24.409-0.16c39.864-0.065,79.729-0.11,119.593-0.162
	c16.001-0.001,32.002-0.002,48.003-0.002c10.666,0,21.332,0,31.998,0C491.666,480.895,502.333,480.947,513,481z"/>
<path fill-rule="evenodd" clip-rule="evenodd" fill="#8FA3AD" d="M256.997,481.167c0.001,10.61,0.002,21.222,0.003,31.833
	c-84,0-168-0.026-252,0.096c-3.424,0.005-4.216-0.655-4.104-4.099C1.2,499.673,1,490.333,1,481
	c10.669-0.047,21.339-0.094,32.009-0.141c10.661,0.001,21.321,0,31.982,0c16-0.003,32.001-0.007,48.002-0.009
	c0.366-0.006,0.731-0.012,1.097-0.018c18.154,0.056,36.308,0.124,54.462,0.164C198.034,481.063,227.515,481.111,256.997,481.167z"/>
<path fill-rule="evenodd" clip-rule="evenodd" fill="#57C0EE" d="M1,192c0.935-1.544,1.981-3.032,2.787-4.641
	c14.288-28.523,28.625-57.023,42.715-85.645c1.833-3.724,3.987-4.854,7.991-4.806c19.44,0.231,38.884,0.151,58.327,0.181
	c-4.811,14.691-9.684,29.362-14.418,44.079c-5.551,17.254-11.938,34.237-16.832,51.705c-0.24,0.02-0.479,0.067-0.713,0.141
	C54.238,193.009,27.619,193.004,1,193C1,192.667,1,192.333,1,192z"/>
<path fill-rule="evenodd" clip-rule="evenodd" fill="#57C0EE" d="M401.181,97.089c20.107-0.03,40.216,0.035,60.321-0.179
	c3.502-0.037,4.472,1.956,5.69,4.399c14.311,28.698,28.656,57.378,43.021,86.05c0.807,1.609,1.853,3.097,2.787,4.641
	c0,0.333,0,0.667,0,1c-24.661,0-49.323,0.069-73.984-0.077c-3.795-0.022-5.536,0.821-5.135,4.962
	c0.319,3.294-0.023,6.652-0.071,9.985c-1.792-4.876-0.249-9.974-0.98-14.923c-2.802-8.669-5.55-17.355-8.415-26.003
	C416.696,143.65,408.929,120.373,401.181,97.089z"/>
<path fill-rule="evenodd" clip-rule="evenodd" fill="#2F97D3" d="M1,193c26.619,0.004,53.238,0.009,79.857,0.013
	c0,5.206-0.001,10.412-0.002,15.618c-1.69,5.713-4.212,11.062-7.121,16.242c-2.955,2.959-5.91,5.918-8.865,8.878
	c-9.753,6.196-20.335,8.57-31.795,6.898c-15.696-4.297-26.372-13.847-31.092-29.66C1.866,210.596,1.337,210.327,1,210
	C1,204.333,1,198.667,1,193z"/>
<path fill-rule="evenodd" clip-rule="evenodd" fill="#2F97D3" d="M433.809,207.867c0.049-3.33,0.392-6.688,0.072-9.982
	c-0.401-4.141,1.34-4.984,5.135-4.962C463.677,193.069,488.339,193,513,193c0,5.333,0,10.667,0,16
	c-2.87,7.337-5.724,14.622-11.57,20.334c-5.835,5.701-12.775,9.161-20.509,11.296c-11.46,1.693-22.038-0.688-31.79-6.886
	c-2.952-2.957-5.905-5.913-8.857-8.87c-2.483-5.096-5.785-9.847-6.592-15.648C433.724,208.773,433.767,208.32,433.809,207.867z"/>
<path fill-rule="evenodd" clip-rule="evenodd" fill="#57C0EE" d="M166.196,97.098c21.264-0.029,42.528-0.059,63.792-0.088
	c0.294,12.981-1.21,25.876-1.834,38.813c-0.919,19.081-1.702,38.167-3.226,57.213c-26.563-0.012-53.127-0.024-79.69-0.036h-0.421
	c1.964-8.544,3.985-17.076,5.883-25.635C155.892,143.95,161.034,120.521,166.196,97.098z"/>
<path fill-rule="evenodd" clip-rule="evenodd" fill="#57C0EE" d="M284.029,97.018c21.265,0.023,42.529,0.047,63.794,0.071
	c7.147,31.972,14.295,63.944,21.441,95.916c-0.001,0-0.429,0-0.429,0c-26.561,0.03-53.121,0.061-79.682,0.091
	c-0.42-8.136-0.517-16.306-1.362-24.397c-0.677-6.477-0.59-12.955-1.015-19.423C285.634,131.869,284.166,114.478,284.029,97.018z"/>
<path fill-rule="evenodd" clip-rule="evenodd" fill="#EBEDEE" d="M284.029,97.018c0.137,17.46,1.604,34.851,2.748,52.258
	c0.425,6.468,0.338,12.946,1.015,19.423c0.846,8.091,0.942,16.261,1.362,24.397c0,0-0.207-0.094-0.207-0.094
	c-21.266-0.017-42.532-0.034-63.798-0.051l-0.221,0.085c1.524-19.046,2.307-38.132,3.226-57.213
	c0.624-12.937,2.128-25.832,1.834-38.813C248.002,97.013,266.016,97.015,284.029,97.018z"/>
<path fill-rule="evenodd" clip-rule="evenodd" fill="#EBEDEE" d="M369.266,193.005c-7.147-31.972-14.295-63.944-21.442-95.916
	c17.785,0,35.57,0,53.357,0c7.748,23.284,15.516,46.562,23.233,69.855c2.865,8.647,5.613,17.334,8.416,26.003
	C411.643,192.967,390.454,192.986,369.266,193.005z"/>
<path fill-rule="evenodd" clip-rule="evenodd" fill="#EBEDEE" d="M166.196,97.098c-5.162,23.423-10.304,46.852-15.497,70.269
	c-1.898,8.559-3.918,17.091-5.882,25.635c-21.083-0.043-42.167-0.086-63.251-0.13c4.898-17.467,11.285-34.45,16.835-51.704
	c4.734-14.716,9.607-29.388,14.418-44.079C130.611,97.092,148.403,97.095,166.196,97.098z"/>
<path fill-rule="evenodd" clip-rule="evenodd" fill="#F27F21" d="M399.964,369.153c2.153,1.241,0.964,3.289,0.968,4.875
	c0.088,35.605,0.067,71.211,0.066,106.815c-39.864,0.052-79.729,0.097-119.593,0.162c-8.137,0.014-16.272,0.105-24.409,0.16
	c-29.481-0.055-58.963-0.103-88.444-0.169c-18.154-0.04-36.309-0.108-54.463-0.164c10.775-4.271,21.531-8.591,32.329-12.803
	c35.542-13.867,71.091-27.718,106.654-41.531c28.914-11.23,57.871-22.35,86.77-33.614
	C359.917,385.06,379.926,377.069,399.964,369.153z"/>
<path fill-rule="evenodd" clip-rule="evenodd" fill="#F7A723" d="M449.001,480.842c0-80.537-0.001-161.074,0.005-241.611
	c0-1.829,0.081-3.657,0.125-5.485c9.752,6.198,20.33,8.579,31.79,6.885c0.026,80.07,0.052,160.141,0.078,240.211
	C470.333,480.842,459.667,480.842,449.001,480.842z"/>
<path fill-rule="evenodd" clip-rule="evenodd" fill="#F7A723" d="M399.964,369.153c-20.038,7.916-40.047,15.906-60.121,23.731
	c-28.899,11.265-57.856,22.384-86.77,33.614c-35.563,13.813-71.112,27.664-106.654,41.531c-10.798,4.212-21.554,8.532-32.329,12.803
	c-0.365,0.006-0.73,0.012-1.096,0.018c0.002-35.579,0.076-71.158-0.092-106.735c-0.02-4.073,0.857-5.387,5.112-5.226
	c8.963,0.34,17.95,0.063,26.927,0.04c10.707-0.014,21.415-0.028,32.122-0.043c26.655,0.002,53.309,0.004,79.963,0.006
	c10.657-0.02,21.314-0.039,31.972-0.059c13.335,0,26.67,0,40.005,0c13.333,0,26.667,0,40.001,0
	C379.323,368.94,389.644,369.047,399.964,369.153z"/>
<path fill-rule="evenodd" clip-rule="evenodd" fill="#F7A723" d="M64.87,233.75c0.043,8.485,0.124,16.969,0.125,25.454
	c0.007,73.886,0,147.771-0.003,221.655c-10.66,0-21.321,0.001-31.981,0c0.021-80.07,0.043-160.14,0.065-240.21
	C44.535,242.321,55.117,239.947,64.87,233.75z"/>
<path fill-rule="evenodd" clip-rule="evenodd" fill="#CED7DA" d="M141.132,224.922c-4.813,7.505-11.292,12.847-20.043,15.05
	c-13.387,3.37-26.333-1.496-34.354-12.755c-0.567-0.796-1.229-1.526-1.846-2.288c-2.419-5.167-4.148-10.504-4.034-16.298
	c0-5.206,0.001-10.412,0.002-15.618c0.233-0.074,0.473-0.121,0.713-0.141c21.08,0.043,42.164,0.086,63.247,0.129c0,0,0.421,0,0.42,0
	c-0.031,5.209-0.062,10.419-0.092,15.629C145.261,214.419,143.527,219.752,141.132,224.922z"/>
<path fill-rule="evenodd" clip-rule="evenodd" fill="#CED7DA" d="M429.129,224.766c-10.766,19.143-37.532,22.137-51.962,5.021
	c-1.378-1.634-2.802-3.229-4.205-4.842c-2.139-5.25-3.917-10.592-4.104-16.333c-0.007-5.202-0.014-10.404-0.021-15.606
	c0,0,0.428,0,0.429,0c21.189-0.019,42.378-0.038,63.565-0.057c0.73,4.948-0.813,10.046,0.979,14.922
	c-0.043,0.45-0.086,0.903-0.128,1.358C432.621,214.542,432.219,220.047,429.129,224.766z"/>
<path fill-rule="evenodd" clip-rule="evenodd" fill="#F3A829" d="M80.855,208.631c-0.115,5.794,1.615,11.131,4.034,16.298
	c-3.718-0.019-7.436-0.038-11.154-0.057C76.643,219.693,79.165,214.344,80.855,208.631z"/>
<path fill-rule="evenodd" clip-rule="evenodd" fill="#F3A829" d="M429.129,224.766c3.09-4.718,3.492-10.224,4.553-15.538
	c0.807,5.8,4.108,10.551,6.592,15.647C436.559,224.838,432.844,224.802,429.129,224.766z"/>
<path fill-rule="evenodd" clip-rule="evenodd" fill="#2F97D3" d="M145.145,208.63c0.031-5.209,0.062-10.419,0.092-15.629
	c26.564,0.012,53.128,0.024,79.691,0.036c0,0,0.221-0.085,0.221-0.086c-0.099,5.225-0.197,10.45-0.294,15.675
	c-1.687,5.717-4.212,11.065-7.12,16.247c-6.106,6.714-12.862,12.63-21.911,14.822c-15.812,3.83-29.535,0.028-40.735-12.042
	c-0.896-0.965-1.875-1.854-2.815-2.778C149.336,219.707,146.845,214.342,145.145,208.63z"/>
<path fill-rule="evenodd" clip-rule="evenodd" fill="#2F97D3" d="M368.836,193.005c0.008,5.202,0.015,10.404,0.021,15.604
	c-1.683,5.723-4.218,11.074-7.123,16.263c-6.105,6.713-12.859,12.629-21.907,14.821c-15.809,3.83-29.533,0.041-40.728-12.039
	c-0.897-0.968-1.869-1.868-2.806-2.801c-2.846-5.156-5.603-10.351-6.994-16.137c-0.117-5.238-0.234-10.477-0.353-15.715
	c0,0,0.207,0.093,0.207,0.094C315.715,193.066,342.275,193.036,368.836,193.005z"/>
<path fill-rule="evenodd" clip-rule="evenodd" fill="#CED7DA" d="M288.947,193.002c0.118,5.238,0.235,10.477,0.352,15.713
	c-0.082,5.717-1.524,11.09-4.099,16.177c-6.636,10.289-15.859,16.127-28.306,16.075c-10.194-0.043-18.427-4.298-24.775-12.253
	c-1.024-1.283-2.113-2.515-3.172-3.77c-2.165-5.239-4.076-10.541-4.092-16.319c0.098-5.225,0.196-10.45,0.294-15.675
	C246.415,192.968,267.682,192.985,288.947,193.002z"/>
<path fill-rule="evenodd" clip-rule="evenodd" fill="#EC6E24" d="M177.062,368.887c-10.707,0.015-21.415,0.029-32.122,0.043
	c0.02-19.795,0.147-39.592-0.036-59.385c-0.035-3.732,0.894-4.669,4.635-4.64c23.621,0.187,47.244,0.178,70.864,0.007
	c3.633-0.025,4.824,0.725,4.701,4.578c-0.291,9.138-0.037,18.292-0.003,27.44c-14.416,0.023-28.833,0.145-43.249-0.001
	c-3.515-0.035-5.064,0.681-4.938,4.618C177.205,350.653,177.042,359.772,177.062,368.887z"/>
<path fill-rule="evenodd" clip-rule="evenodd" fill="#D64527" d="M177.062,368.887c-0.021-9.114,0.143-18.233-0.147-27.339
	c-0.125-3.938,1.423-4.653,4.938-4.618c14.415,0.146,28.833,0.024,43.249,0.001c9.458,0.023,18.917,0.151,28.372,0.005
	c2.811-0.043,3.638,0.765,3.59,3.585c-0.16,9.455-0.046,18.915-0.038,28.373C230.371,368.891,203.717,368.889,177.062,368.887z"/>
<path fill-rule="evenodd" clip-rule="evenodd" fill="#788F9B" d="M329.002,368.834c-13.335,0-26.67,0-40.005,0
	c0.015-7.153-0.159-14.313,0.084-21.459c0.501-14.721,9.527-23.049,21.999-28.658c4.253,6.607,10.859,7.535,17.899,7.418
	c0.011,0.283,0.02,0.566,0.023,0.85C329.003,340.935,329.002,354.885,329.002,368.834z"/>
<path fill-rule="evenodd" clip-rule="evenodd" fill="#566F7B" d="M329.002,368.834c0-13.949,0.001-27.899,0.001-41.85
	c1.937-0.328,3.878-0.621,5.807-0.99c4.929-0.941,9.585-2.362,12.145-7.272c12.684,5.67,21.756,14.099,21.998,29.13
	c0.112,6.992,0.04,13.988,0.051,20.982C355.669,368.834,342.335,368.834,329.002,368.834z"/>
<path fill-rule="evenodd" clip-rule="evenodd" fill="#F4A659" d="M314.021,315.961c0.104-1.961,0.209-3.922,0.313-5.884
	c3.098,1.556,6.118,3.296,9.311,4.623c4.892,2.032,5.336,1.668,5.345-3.595c0.03-17.983,0.034-35.967,0.048-53.95
	c18.571-0.841,28.867,12.851,25.478,32.706c-0.989,5.795-3.448,11.2-7.476,15.547c-2.897,3.126-3.692,6.498-3.035,10.473
	c-3.7,5.324-9.475,5.701-15.135,6.349C323.262,321.701,317.643,321.196,314.021,315.961z"/>
<path fill-rule="evenodd" clip-rule="evenodd" fill="#F4B775" d="M329.038,257.155c-0.014,17.983-0.018,35.967-0.048,53.95
	c-0.009,5.263-0.453,5.627-5.345,3.595c-3.192-1.327-6.213-3.067-9.311-4.623c-0.988-3.124-3.763-4.983-5.413-7.673
	c-5.589-9.107-7.609-18.726-4.512-29.093C307.574,262.724,316.322,257.077,329.038,257.155z"/>
<path fill-rule="evenodd" clip-rule="evenodd" fill="#C4CED1" d="M328.87,322.229c5.66-0.647,11.435-1.024,15.135-6.349
	c1.244,0.676,2.285,1.563,2.949,2.842c-2.56,4.909-7.216,6.33-12.145,7.271c-1.929,0.369-3.87,0.662-5.807,0.99
	c-0.004-0.283-0.013-0.566-0.023-0.85C328.942,324.833,328.906,323.531,328.87,322.229z"/>
<path fill-rule="evenodd" clip-rule="evenodd" fill="#F3A829" d="M361.734,224.873c2.905-5.189,5.44-10.54,7.123-16.263
	c0.188,5.743,1.966,11.084,4.104,16.334C369.22,224.92,365.478,224.896,361.734,224.873z"/>
<path fill-rule="evenodd" clip-rule="evenodd" fill="#F3A829" d="M224.854,208.626c0.016,5.778,1.928,11.08,4.092,16.319
	c-3.737-0.024-7.474-0.048-11.212-0.072C220.643,219.691,223.168,214.343,224.854,208.626z"/>
<path fill-rule="evenodd" clip-rule="evenodd" fill="#EBEDEE" d="M328.87,322.229c0.036,1.302,0.072,2.604,0.109,3.905
	c-7.04,0.117-13.646-0.811-17.899-7.418c0.703-1.215,1.663-2.155,2.941-2.756C317.643,321.196,323.262,321.701,328.87,322.229z"/>
<path fill-rule="evenodd" clip-rule="evenodd" fill="#F3A829" d="M285.2,224.893c2.574-5.087,4.017-10.46,4.099-16.177
	c1.393,5.788,4.149,10.983,6.995,16.139C292.596,224.868,288.898,224.88,285.2,224.893z"/>
<path fill-rule="evenodd" clip-rule="evenodd" fill="#F3A829" d="M145.145,208.63c1.7,5.712,4.191,11.076,7.128,16.245
	c-3.713,0.016-7.427,0.032-11.141,0.047C143.527,219.752,145.261,214.419,145.145,208.63z"/>
</svg>
