<?xml version="1.0" encoding="utf-8"?>
<!-- Generator: Adobe Illustrator 16.0.0, SVG Export Plug-In . SVG Version: 6.00 Build 0)  -->
<!DOCTYPE svg PUBLIC "-//W3C//DTD SVG 1.1//EN" "http://www.w3.org/Graphics/SVG/1.1/DTD/svg11.dtd">
<svg version="1.1" id="Layer_1" xmlns="http://www.w3.org/2000/svg" xmlns:xlink="http://www.w3.org/1999/xlink" x="0px" y="0px"
	 width="200px" height="200px" viewBox="0 0 200 200" enable-background="new 0 0 200 200" xml:space="preserve">
<path fill-rule="evenodd" clip-rule="evenodd" fill="#0099CC" d="M100.02,6.002c51.879-0.048,94.33,42.254,93.98,94.666
	c-0.345,51.633-42.524,93.651-94.64,93.328c-51.538-0.32-93.818-42.447-93.358-94.88C6.454,47.666,48.375,5.958,100.02,6.002z
	 M52.73,159.621c-0.384,2.957-0.01,5.929-0.188,8.888c-0.071,1.175,0.204,1.513,1.461,1.511c30.587-0.043,61.175-0.034,91.764-0.034
	c0.32,0,0.641-0.005,0.962-0.002c0.438,0.002,0.704-0.192,0.693-0.649c-0.074-3.237,0.214-6.48-0.153-9.713
	c0.022-2.288-0.035-4.58,0.097-6.861c0.079-1.359-0.277-1.74-1.699-1.738c-30.444,0.047-60.889,0.036-91.334,0.036
	c-0.274,0-0.552,0.024-0.824-0.003c-0.668-0.066-0.865,0.244-0.853,0.88C52.7,154.496,52.708,157.058,52.73,159.621z M70.556,44.747
	c-4.167-0.003-8.335,0.023-12.502-0.036c-0.988-0.015-1.231,0.296-1.203,1.24c0.066,2.242,0.021,4.488,0.021,6.731
	c0,2.367,0,2.358-2.368,2.373c-2.078,0.012-1.857-0.216-1.858,1.815c-0.005,30.777,0.008,61.553-0.041,92.331
	c-0.002,1.449,0.431,1.68,1.75,1.678c30.411-0.037,60.821-0.037,91.231,0.002c1.387,0.002,1.809-0.29,1.807-1.759
	c-0.047-30.318-0.036-60.637-0.036-90.956c0-3.119,0-3.152-3.092-3.161c-0.888-0.001-1.177-0.238-1.157-1.147
	c0.056-2.656-0.011-5.312,0.037-7.968c0.016-0.861-0.183-1.188-1.123-1.178c-4.944,0.053-9.891,0.037-14.836,0.044
	c-0.069-0.115-0.168-0.222-0.204-0.347c-2.315-7.838-9.397-13.735-17.479-14.229c-6.806-0.416-13.631-0.116-20.448-0.117
	c-1.316,0-2.641,0.189-3.923,0.561C77.774,32.754,72.859,37.401,70.556,44.747z"/>
<path fill-rule="evenodd" clip-rule="evenodd" fill="#0E2E40" d="M127.186,44.757c4.945-0.007,9.892,0.009,14.836-0.044
	c0.94-0.01,1.139,0.316,1.123,1.178c-0.048,2.656,0.019,5.312-0.037,7.968c-0.02,0.91,0.27,1.146,1.157,1.147
	c3.092,0.008,3.092,0.042,3.092,3.161c0,30.319-0.011,60.638,0.036,90.956c0.002,1.469-0.42,1.761-1.807,1.759
	c-30.41-0.039-60.821-0.039-91.231-0.002c-1.319,0.002-1.752-0.229-1.75-1.678c0.049-30.777,0.036-61.554,0.041-92.331
	c0-2.031-0.22-1.804,1.858-1.815c2.368-0.015,2.368-0.006,2.368-2.373c0-2.244,0.045-4.49-0.021-6.731
	c-0.028-0.944,0.215-1.255,1.203-1.24c4.167,0.059,8.335,0.032,12.502,0.037c-0.307,1.57-0.495,3.146-0.492,4.754
	c0.022,10.02,0.007,20.038,0.028,30.059c0.001,0.847-0.122,1.514-0.75,2.201c-1.024,1.119-0.795,2.818,0.312,3.821
	c1.072,0.969,2.824,0.951,3.873-0.042c1.079-1.022,1.258-2.718,0.218-3.828c-0.605-0.646-0.712-1.281-0.71-2.077
	c0.017-8.555,0.038-17.111,0.003-25.666c-0.014-3.337,0.865-6.388,2.579-9.223c0.365-0.003,0.731-0.013,1.097-0.013
	c15.096-0.01,30.191-0.02,45.289-0.028c1.837,2.735,2.669,5.79,2.686,9.043c0.044,8.701,0.017,17.403,0.029,26.105
	c0,0.655-0.092,1.17-0.616,1.694c-1.116,1.114-1.037,2.882,0.033,3.946c1.068,1.063,2.882,1.076,3.969,0.026
	c1.103-1.063,1.208-2.818,0.106-3.947c-0.502-0.515-0.666-1-0.664-1.678c0.017-8.152,0.029-16.304,0.002-24.458
	C127.535,51.876,127.837,48.3,127.186,44.757z"/>
<path fill-rule="evenodd" clip-rule="evenodd" fill="#0E2E40" d="M147.269,159.621c0.367,3.232,0.079,6.476,0.153,9.713
	c0.011,0.457-0.255,0.651-0.693,0.649c-0.321-0.003-0.642,0.002-0.962,0.002c-30.589,0-61.177-0.009-91.764,0.034
	c-1.257,0.002-1.532-0.336-1.461-1.511c0.179-2.959-0.195-5.931,0.188-8.888C84.243,159.621,115.756,159.621,147.269,159.621z"/>
<path fill-rule="evenodd" clip-rule="evenodd" fill="#FEFFFF" d="M147.269,159.621c-31.513,0-63.026,0-94.539,0
	c-0.021-2.563-0.03-5.125-0.075-7.687c-0.012-0.636,0.185-0.946,0.853-0.88c0.272,0.027,0.549,0.003,0.824,0.003
	c30.445,0,60.89,0.011,91.334-0.036c1.422-0.002,1.778,0.379,1.699,1.738C147.233,155.041,147.291,157.333,147.269,159.621z"/>
<path fill-rule="evenodd" clip-rule="evenodd" fill="#FEFFFF" d="M75.616,44.748c-1.714,2.835-2.593,5.885-2.579,9.223
	c0.034,8.555,0.014,17.11-0.003,25.666c-0.001,0.796,0.105,1.431,0.71,2.077c1.04,1.11,0.861,2.806-0.218,3.828
	c-1.049,0.993-2.801,1.011-3.873,0.042c-1.107-1.003-1.335-2.703-0.312-3.821c0.629-0.687,0.751-1.354,0.75-2.201
	c-0.021-10.021-0.006-20.039-0.028-30.059c-0.003-1.608,0.185-3.185,0.492-4.754c2.303-7.347,7.218-11.994,14.576-14.124
	c1.282-0.372,2.606-0.561,3.923-0.561c6.817,0.001,13.643-0.298,20.448,0.117c8.081,0.494,15.163,6.391,17.479,14.229
	c0.036,0.125,0.135,0.232,0.204,0.347c0.651,3.542,0.35,7.119,0.361,10.682c0.027,8.154,0.015,16.305-0.002,24.458
	c-0.002,0.679,0.162,1.163,0.664,1.678c1.102,1.129,0.996,2.884-0.106,3.947c-1.087,1.049-2.9,1.037-3.969-0.026
	c-1.07-1.063-1.149-2.832-0.033-3.946c0.524-0.524,0.616-1.039,0.616-1.694c-0.013-8.703,0.015-17.405-0.029-26.105
	c-0.017-3.253-0.849-6.308-2.686-9.043c-3.455-5.636-8.466-8.737-15.09-8.921c-5.118-0.144-10.246-0.03-15.369-0.029
	C84.543,35.758,79.329,38.924,75.616,44.748z"/>
<path fill-rule="evenodd" clip-rule="evenodd" fill="#0099CC" d="M75.616,44.748c3.713-5.824,8.927-8.99,15.927-8.991
	c5.124-0.001,10.251-0.115,15.369,0.029c6.624,0.185,11.635,3.285,15.09,8.921c-15.098,0.008-30.193,0.018-45.289,0.028
	C76.347,44.735,75.981,44.745,75.616,44.748z"/>
</svg>
